solid iros2017_corridor
facet normal 0.0 0.0 -1.0
  outer loop
    vertex 15.66291832034998 -2.821031922372886 0.0
    vertex 14.039154916083175 -4.8 0.0
    vertex 14.039154916083175 -2.821031922372886 0.0
  endloop
endfacet
facet normal 0.0 0.0 -1.0
  outer loop
    vertex 0.0 5.0 0.0
    vertex 0.2 4.8 0.0
    vertex 0.0 -5.0 0.0
  endloop
endfacet
facet normal 0.0 0.0 -1.0
  outer loop
    vertex 0.2 4.8 0.0
    vertex 0.0 5.0 0.0
    vertex 40.0 5.0 0.0
  endloop
endfacet
facet normal 0.0 0.0 -1.0
  outer loop
    vertex 0.0 -5.0 0.0
    vertex 0.2 4.8 0.0
    vertex 0.19999999999999998 -4.8 0.0
  endloop
endfacet
facet normal 0.0 0.0 -1.0
  outer loop
    vertex 0.19999999999999998 -4.8 0.0
    vertex 0.2 4.8 0.0
    vertex 0.2 -1.6012980822213385 0.0
  endloop
endfacet
facet normal 0.0 0.0 -1.0
  outer loop
    vertex 0.2 4.8 0.0
    vertex 40.0 5.0 0.0
    vertex 5.535917556413307 4.8 0.0
  endloop
endfacet
facet normal 0.0 0.0 -1.0
  outer loop
    vertex 5.535917556413307 4.8 0.0
    vertex 40.0 5.0 0.0
    vertex 9.535917556413308 4.8 0.0
  endloop
endfacet
facet normal 0.0 0.0 -1.0
  outer loop
    vertex 5.535917556413307 4.8 0.0
    vertex 9.535917556413308 4.8 0.0
    vertex 5.535917556413307 2.8 0.0
  endloop
endfacet
facet normal 0.0 0.0 -1.0
  outer loop
    vertex 5.535917556413307 2.8 0.0
    vertex 9.535917556413308 4.8 0.0
    vertex 7.120338896470954 2.8 0.0
  endloop
endfacet
facet normal 0.0 0.0 -1.0
  outer loop
    vertex 7.120338896470954 2.8 0.0
    vertex 9.535917556413308 4.8 0.0
    vertex 7.740338896470954 2.8 0.0
  endloop
endfacet
facet normal 0.0 0.0 -1.0
  outer loop
    vertex 7.120338896470954 2.8 0.0
    vertex 7.740338896470954 2.8 0.0
    vertex 7.120338896470954 1.3068189269750643 0.0
  endloop
endfacet
facet normal 0.0 0.0 -1.0
  outer loop
    vertex 9.535917556413308 4.8 0.0
    vertex 40.0 5.0 0.0
    vertex 33.01746660840162 4.8 0.0
  endloop
endfacet
facet normal 0.0 0.0 -1.0
  outer loop
    vertex 33.01746660840162 4.8 0.0
    vertex 40.0 5.0 0.0
    vertex 38.15746660840161 4.8 0.0
  endloop
endfacet
facet normal 0.0 0.0 -1.0
  outer loop
    vertex 33.01746660840162 4.8 0.0
    vertex 38.15746660840161 4.8 0.0
    vertex 33.01746660840162 3.3499999999999996 0.0
  endloop
endfacet
facet normal 0.0 0.0 -1.0
  outer loop
    vertex 38.15746660840161 4.8 0.0
    vertex 40.0 5.0 0.0
    vertex 39.8 4.8 0.0
  endloop
endfacet
facet normal 0.0 0.0 -1.0
  outer loop
    vertex 39.8 4.8 0.0
    vertex 40.0 5.0 0.0
    vertex 39.8 -4.8 0.0
  endloop
endfacet
facet normal 0.0 0.0 -1.0
  outer loop
    vertex 0.19999999999999998 -4.8 0.0
    vertex 40.0 -5.0 0.0
    vertex 0.0 -5.0 0.0
  endloop
endfacet
facet normal 0.0 0.0 -1.0
  outer loop
    vertex 40.0 -5.0 0.0
    vertex 0.19999999999999998 -4.8 0.0
    vertex 3.657055652900182 -4.8 0.0
  endloop
endfacet
facet normal 0.0 0.0 -1.0
  outer loop
    vertex 40.0 -5.0 0.0
    vertex 3.657055652900182 -4.8 0.0
    vertex 5.657055652900182 -4.8 0.0
  endloop
endfacet
facet normal 0.0 0.0 -1.0
  outer loop
    vertex 40.0 -5.0 0.0
    vertex 5.657055652900182 -4.8 0.0
    vertex 14.039154916083175 -4.8 0.0
  endloop
endfacet
facet normal 0.0 0.0 -1.0
  outer loop
    vertex 40.0 -5.0 0.0
    vertex 14.039154916083175 -4.8 0.0
    vertex 15.66291832034998 -4.8 0.0
  endloop
endfacet
facet normal 0.0 0.0 -1.0
  outer loop
    vertex 15.66291832034998 -4.8 0.0
    vertex 14.039154916083175 -4.8 0.0
    vertex 15.66291832034998 -2.821031922372886 0.0
  endloop
endfacet
facet normal 0.0 0.0 -1.0
  outer loop
    vertex 40.0 -5.0 0.0
    vertex 15.66291832034998 -4.8 0.0
    vertex 39.8 -4.8 0.0
  endloop
endfacet
facet normal 0.0 0.0 -1.0
  outer loop
    vertex 40.0 -5.0 0.0
    vertex 39.8 -4.8 0.0
    vertex 40.0 5.0 0.0
  endloop
endfacet
facet normal 0.0 0.0 -1.0
  outer loop
    vertex 38.15746660840161 3.3499999999999996 0.0
    vertex 33.01746660840162 3.3499999999999996 0.0
    vertex 38.15746660840161 4.8 0.0
  endloop
endfacet
facet normal 0.0 0.0 -1.0
  outer loop
    vertex 9.535917556413308 2.8 0.0
    vertex 7.740338896470954 2.8 0.0
    vertex 9.535917556413308 4.8 0.0
  endloop
endfacet
facet normal 0.0 0.0 -1.0
  outer loop
    vertex 7.740338896470954 1.3068189269750643 0.0
    vertex 7.120338896470954 1.3068189269750643 0.0
    vertex 7.740338896470954 2.8 0.0
  endloop
endfacet
facet normal 0.0 0.0 -1.0
  outer loop
    vertex 0.2 -1.6012980822213385 0.0
    vertex 0.2 -2.7812980822213387 0.0
    vertex 0.19999999999999998 -4.8 0.0
  endloop
endfacet
facet normal 0.0 0.0 -1.0
  outer loop
    vertex 0.2 -2.7812980822213387 0.0
    vertex 0.2 -1.6012980822213385 0.0
    vertex 1.8800000000000001 -1.6012980822213385 0.0
  endloop
endfacet
facet normal 0.0 0.0 -1.0
  outer loop
    vertex 0.2 -2.7812980822213387 0.0
    vertex 1.8800000000000001 -1.6012980822213385 0.0
    vertex 1.8800000000000001 -2.7812980822213387 0.0
  endloop
endfacet
facet normal 0.0 0.0 -1.0
  outer loop
    vertex 3.011194410610795 4.125039402687097 0.0
    vertex 1.0111944106107948 2.125039402687097 0.0
    vertex 1.0111944106107948 4.125039402687097 0.0
  endloop
endfacet
facet normal 0.0 0.0 -1.0
  outer loop
    vertex 1.0111944106107948 2.125039402687097 0.0
    vertex 3.011194410610795 4.125039402687097 0.0
    vertex 3.011194410610795 2.125039402687097 0.0
  endloop
endfacet
facet normal -1.559414128376374e-17 2.0270937924737874e-17 -1.0
  outer loop
    vertex 12.93878734999139 1.848174833133052 0.0
    vertex 11.611999479216475 0.598174833133052 0.0
    vertex 11.611999479216475 1.848174833133052 0.0
  endloop
endfacet
facet normal -1.559414128376374e-17 2.0270937924737874e-17 -1.0
  outer loop
    vertex 9.17878734999139 0.598174833133052 0.0
    vertex 11.058787349991391 0.06817483313305257 -1.8047785488306544e-16
    vertex 9.17878734999139 -1.8118251668669476 0.0
  endloop
endfacet
facet normal -1.559414128376374e-17 2.0270937924737874e-17 -1.0
  outer loop
    vertex 11.058787349991391 0.06817483313305257 -1.8047785488306544e-16
    vertex 9.17878734999139 0.598174833133052 0.0
    vertex 11.611999479216475 0.598174833133052 0.0
  endloop
endfacet
facet normal -1.559414128376374e-17 2.0270937924737874e-17 -1.0
  outer loop
    vertex 11.058787349991391 0.06817483313305257 -1.8047785488306544e-16
    vertex 11.611999479216475 0.598174833133052 0.0
    vertex 12.93878734999139 0.06817483313305257 -1.8047785488306544e-16
  endloop
endfacet
facet normal -1.559414128376374e-17 2.0270937924737874e-17 -1.0
  outer loop
    vertex 12.93878734999139 0.06817483313305257 -1.8047785488306544e-16
    vertex 11.611999479216475 0.598174833133052 0.0
    vertex 12.93878734999139 1.848174833133052 0.0
  endloop
endfacet
facet normal -1.559414128376374e-17 2.0270937924737874e-17 -1.0
  outer loop
    vertex 11.058787349991391 -1.8118251668669476 -1.8047785488306544e-16
    vertex 9.17878734999139 -1.8118251668669476 0.0
    vertex 11.058787349991391 0.06817483313305257 -1.8047785488306544e-16
  endloop
endfacet
facet normal 0.0 0.0 -1.0
  outer loop
    vertex 20.009366127732058 0.22868432769803387 0.0
    vertex 18.62936612773206 -1.3213156723019694 0.0
    vertex 18.62936612773206 0.22868432769803387 0.0
  endloop
endfacet
facet normal 0.0 0.0 -1.0
  outer loop
    vertex 18.62936612773206 -1.3213156723019694 0.0
    vertex 20.009366127732058 0.22868432769803387 0.0
    vertex 20.009366127732058 -1.3213156723019694 0.0
  endloop
endfacet
facet normal 0.0 0.0 -1.0
  outer loop
    vertex 25.861571232392667 3.801398781169635 0.0
    vertex 19.91157123239267 2.9613987811696347 0.0
    vertex 19.91157123239267 3.801398781169635 0.0
  endloop
endfacet
facet normal 0.0 0.0 -1.0
  outer loop
    vertex 19.91157123239267 2.9613987811696347 0.0
    vertex 25.861571232392667 3.801398781169635 0.0
    vertex 25.861571232392667 2.9613987811696347 0.0
  endloop
endfacet
facet normal 0.0 0.0 -1.0
  outer loop
    vertex 27.719594382941256 0.5827153556948633 0.0
    vertex 24.83959438294126 -1.7272846443051373 0.0
    vertex 24.83959438294126 0.5827153556948633 0.0
  endloop
endfacet
facet normal 0.0 0.0 -1.0
  outer loop
    vertex 24.83959438294126 -1.7272846443051373 0.0
    vertex 27.719594382941256 0.5827153556948633 0.0
    vertex 26.569594382941258 -1.157284644305137 0.0
  endloop
endfacet
facet normal 0.0 0.0 -1.0
  outer loop
    vertex 26.569594382941258 -1.157284644305137 0.0
    vertex 27.719594382941256 0.5827153556948633 0.0
    vertex 27.719594382941256 -1.157284644305137 0.0
  endloop
endfacet
facet normal 0.0 0.0 -1.0
  outer loop
    vertex 26.569594382941258 -1.7272846443051373 0.0
    vertex 24.83959438294126 -1.7272846443051373 0.0
    vertex 26.569594382941258 -1.157284644305137 0.0
  endloop
endfacet
facet normal 0.0 0.0 -1.0
  outer loop
    vertex 35.543417649537226 1.9481080530258217 0.0
    vertex 34.23341764953722 -0.5218919469741784 0.0
    vertex 34.23341764953722 1.9481080530258217 0.0
  endloop
endfacet
facet normal 0.0 0.0 -1.0
  outer loop
    vertex 34.23341764953722 -0.5218919469741784 0.0
    vertex 35.543417649537226 1.9481080530258217 0.0
    vertex 35.543417649537226 -0.5218919469741784 0.0
  endloop
endfacet
facet normal 0.0 0.0 -1.0
  outer loop
    vertex 23.00186424949389 -1.6760766652353476 0.0
    vertex 22.23186424949389 -3.376076665235348 0.0
    vertex 22.23186424949389 -1.6760766652353476 0.0
  endloop
endfacet
facet normal 0.0 0.0 -1.0
  outer loop
    vertex 22.23186424949389 -3.376076665235348 0.0
    vertex 23.00186424949389 -1.6760766652353476 0.0
    vertex 23.00186424949389 -3.376076665235348 0.0
  endloop
endfacet
facet normal 0.0 0.0 -1.0
  outer loop
    vertex 8.319023470724135 -2.845189455577225 0.0
    vertex 6.9490234707241365 -4.225189455577225 0.0
    vertex 6.9490234707241365 -2.845189455577225 0.0
  endloop
endfacet
facet normal 0.0 0.0 -1.0
  outer loop
    vertex 6.9490234707241365 -4.225189455577225 0.0
    vertex 8.319023470724135 -2.845189455577225 0.0
    vertex 8.319023470724135 -4.225189455577225 0.0
  endloop
endfacet
facet normal 0.0 0.0 -1.0
  outer loop
    vertex 35.824969728911064 -2.0494876549405263 0.0
    vertex 34.38496972891106 -3.269487654940526 0.0
    vertex 34.38496972891106 -2.0494876549405263 0.0
  endloop
endfacet
facet normal 0.0 0.0 -1.0
  outer loop
    vertex 34.38496972891106 -3.269487654940526 0.0
    vertex 35.824969728911064 -2.0494876549405263 0.0
    vertex 35.824969728911064 -3.269487654940526 0.0
  endloop
endfacet
facet normal -0.0 -0.0 1.0
  outer loop
    vertex 38.15746660840161 3.3499999999999996 2.0
    vertex 33.01746660840162 4.8 2.0
    vertex 33.01746660840162 3.3499999999999996 2.0
  endloop
endfacet
facet normal -0.0 -0.0 1.0
  outer loop
    vertex 0.0 -5.0 2.0
    vertex 0.19999999999999998 -4.8 2.0
    vertex 0.0 5.0 2.0
  endloop
endfacet
facet normal -0.0 -0.0 1.0
  outer loop
    vertex 0.19999999999999998 -4.8 2.0
    vertex 0.0 -5.0 2.0
    vertex 40.0 -5.0 2.0
  endloop
endfacet
facet normal -0.0 -0.0 1.0
  outer loop
    vertex 0.19999999999999998 -4.8 2.0
    vertex 40.0 -5.0 2.0
    vertex 3.657055652900182 -4.8 2.0
  endloop
endfacet
facet normal -0.0 -0.0 1.0
  outer loop
    vertex 3.657055652900182 -4.8 2.0
    vertex 40.0 -5.0 2.0
    vertex 5.657055652900182 -4.8 2.0
  endloop
endfacet
facet normal -0.0 -0.0 1.0
  outer loop
    vertex 5.657055652900182 -4.8 2.0
    vertex 40.0 -5.0 2.0
    vertex 14.039154916083175 -4.8 2.0
  endloop
endfacet
facet normal -0.0 -0.0 1.0
  outer loop
    vertex 14.039154916083175 -4.8 2.0
    vertex 40.0 -5.0 2.0
    vertex 15.66291832034998 -4.8 2.0
  endloop
endfacet
facet normal -0.0 -0.0 1.0
  outer loop
    vertex 14.039154916083175 -4.8 2.0
    vertex 15.66291832034998 -4.8 2.0
    vertex 14.039154916083175 -2.821031922372886 2.0
  endloop
endfacet
facet normal -0.0 -0.0 1.0
  outer loop
    vertex 15.66291832034998 -4.8 2.0
    vertex 40.0 -5.0 2.0
    vertex 39.8 -4.8 2.0
  endloop
endfacet
facet normal -0.0 -0.0 1.0
  outer loop
    vertex 39.8 -4.8 2.0
    vertex 40.0 -5.0 2.0
    vertex 39.8 4.8 2.0
  endloop
endfacet
facet normal -0.0 -0.0 1.0
  outer loop
    vertex 0.0 5.0 2.0
    vertex 0.2 4.8 2.0
    vertex 40.0 5.0 2.0
  endloop
endfacet
facet normal -0.0 -0.0 1.0
  outer loop
    vertex 0.2 4.8 2.0
    vertex 0.0 5.0 2.0
    vertex 0.19999999999999998 -4.8 2.0
  endloop
endfacet
facet normal -0.0 -0.0 1.0
  outer loop
    vertex 0.2 4.8 2.0
    vertex 0.19999999999999998 -4.8 2.0
    vertex 0.2 -1.6012980822213385 2.0
  endloop
endfacet
facet normal -0.0 -0.0 1.0
  outer loop
    vertex 0.2 -1.6012980822213385 2.0
    vertex 0.19999999999999998 -4.8 2.0
    vertex 0.2 -2.7812980822213387 2.0
  endloop
endfacet
facet normal -0.0 -0.0 1.0
  outer loop
    vertex 40.0 5.0 2.0
    vertex 0.2 4.8 2.0
    vertex 5.535917556413307 4.8 2.0
  endloop
endfacet
facet normal -0.0 -0.0 1.0
  outer loop
    vertex 40.0 5.0 2.0
    vertex 5.535917556413307 4.8 2.0
    vertex 9.535917556413308 4.8 2.0
  endloop
endfacet
facet normal -0.0 -0.0 1.0
  outer loop
    vertex 9.535917556413308 4.8 2.0
    vertex 5.535917556413307 4.8 2.0
    vertex 7.120338896470954 2.8 2.0
  endloop
endfacet
facet normal -0.0 -0.0 1.0
  outer loop
    vertex 9.535917556413308 4.8 2.0
    vertex 7.120338896470954 2.8 2.0
    vertex 7.740338896470954 2.8 2.0
  endloop
endfacet
facet normal -0.0 -0.0 1.0
  outer loop
    vertex 7.740338896470954 2.8 2.0
    vertex 7.120338896470954 2.8 2.0
    vertex 7.740338896470954 1.3068189269750643 2.0
  endloop
endfacet
facet normal -0.0 -0.0 1.0
  outer loop
    vertex 9.535917556413308 4.8 2.0
    vertex 7.740338896470954 2.8 2.0
    vertex 9.535917556413308 2.8 2.0
  endloop
endfacet
facet normal -0.0 -0.0 1.0
  outer loop
    vertex 40.0 5.0 2.0
    vertex 9.535917556413308 4.8 2.0
    vertex 33.01746660840162 4.8 2.0
  endloop
endfacet
facet normal -0.0 -0.0 1.0
  outer loop
    vertex 40.0 5.0 2.0
    vertex 33.01746660840162 4.8 2.0
    vertex 38.15746660840161 4.8 2.0
  endloop
endfacet
facet normal -0.0 -0.0 1.0
  outer loop
    vertex 38.15746660840161 4.8 2.0
    vertex 33.01746660840162 4.8 2.0
    vertex 38.15746660840161 3.3499999999999996 2.0
  endloop
endfacet
facet normal -0.0 -0.0 1.0
  outer loop
    vertex 40.0 5.0 2.0
    vertex 38.15746660840161 4.8 2.0
    vertex 39.8 4.8 2.0
  endloop
endfacet
facet normal -0.0 -0.0 1.0
  outer loop
    vertex 40.0 5.0 2.0
    vertex 39.8 4.8 2.0
    vertex 40.0 -5.0 2.0
  endloop
endfacet
facet normal -0.0 -0.0 1.0
  outer loop
    vertex 15.66291832034998 -2.821031922372886 2.0
    vertex 14.039154916083175 -2.821031922372886 2.0
    vertex 15.66291832034998 -4.8 2.0
  endloop
endfacet
facet normal -0.0 -0.0 1.0
  outer loop
    vertex 1.8800000000000001 -2.7812980822213387 2.0
    vertex 0.2 -1.6012980822213385 2.0
    vertex 0.2 -2.7812980822213387 2.0
  endloop
endfacet
facet normal -0.0 -0.0 1.0
  outer loop
    vertex 0.2 -1.6012980822213385 2.0
    vertex 1.8800000000000001 -2.7812980822213387 2.0
    vertex 1.8800000000000001 -1.6012980822213385 2.0
  endloop
endfacet
facet normal -0.0 -0.0 1.0
  outer loop
    vertex 7.120338896470954 2.8 2.0
    vertex 5.535917556413307 4.8 2.0
    vertex 5.535917556413307 2.8 2.0
  endloop
endfacet
facet normal -0.0 -0.0 1.0
  outer loop
    vertex 7.740338896470954 1.3068189269750643 2.0
    vertex 7.120338896470954 2.8 2.0
    vertex 7.120338896470954 1.3068189269750643 2.0
  endloop
endfacet
facet normal 1.0 0.0 0.0
  outer loop
    vertex 40.0 5.0 0.0
    vertex 40.0 -5.0 2.0
    vertex 40.0 -5.0 0.0
  endloop
endfacet
facet normal 1.0 0.0 0.0
  outer loop
    vertex 40.0 -5.0 2.0
    vertex 40.0 5.0 0.0
    vertex 40.0 5.0 2.0
  endloop
endfacet
facet normal -0.0 -1.0 -0.0
  outer loop
    vertex 40.0 -5.0 2.0
    vertex 0.0 -5.0 0.0
    vertex 40.0 -5.0 0.0
  endloop
endfacet
facet normal -0.0 -1.0 -0.0
  outer loop
    vertex 0.0 -5.0 0.0
    vertex 40.0 -5.0 2.0
    vertex 0.0 -5.0 2.0
  endloop
endfacet
facet normal -1.0 0.0 0.0
  outer loop
    vertex 0.0 5.0 2.0
    vertex 0.0 -5.0 0.0
    vertex 0.0 -5.0 2.0
  endloop
endfacet
facet normal -1.0 0.0 0.0
  outer loop
    vertex 0.0 -5.0 0.0
    vertex 0.0 5.0 2.0
    vertex 0.0 5.0 0.0
  endloop
endfacet
facet normal -0.0 1.0 0.0
  outer loop
    vertex 0.0 5.0 2.0
    vertex 40.0 5.0 0.0
    vertex 0.0 5.0 0.0
  endloop
endfacet
facet normal -0.0 1.0 0.0
  outer loop
    vertex 40.0 5.0 0.0
    vertex 0.0 5.0 2.0
    vertex 40.0 5.0 2.0
  endloop
endfacet
facet normal -0.0 1.0 -0.0
  outer loop
    vertex 0.19999999999999998 -4.8 2.0
    vertex 3.657055652900182 -4.8 0.0
    vertex 0.19999999999999998 -4.8 0.0
  endloop
endfacet
facet normal -0.0 1.0 -0.0
  outer loop
    vertex 3.657055652900182 -4.8 0.0
    vertex 0.19999999999999998 -4.8 2.0
    vertex 3.657055652900182 -4.8 2.0
  endloop
endfacet
facet normal -1.0 0.0 0.0
  outer loop
    vertex 3.657055652900182 0.2 2.0
    vertex 3.657055652900182 -2.8000000000000003 0.0
    vertex 3.657055652900182 -2.8000000000000003 2.0
  endloop
endfacet
facet normal -1.0 0.0 0.0
  outer loop
    vertex 3.657055652900182 -2.8000000000000003 0.0
    vertex 3.657055652900182 0.2 2.0
    vertex 3.657055652900182 0.2 0.0
  endloop
endfacet
facet normal -0.0 1.0 0.0
  outer loop
    vertex 3.657055652900182 0.2 2.0
    vertex 5.247055652900183 0.2 0.0
    vertex 3.657055652900182 0.2 0.0
  endloop
endfacet
facet normal -0.0 1.0 0.0
  outer loop
    vertex 5.247055652900183 0.2 0.0
    vertex 3.657055652900182 0.2 2.0
    vertex 5.247055652900183 0.2 2.0
  endloop
endfacet
facet normal 1.0 0.0 0.0
  outer loop
    vertex 5.247055652900183 0.2 0.0
    vertex 5.247055652900183 -2.8000000000000003 2.0
    vertex 5.247055652900183 -2.8000000000000003 0.0
  endloop
endfacet
facet normal 1.0 0.0 0.0
  outer loop
    vertex 5.247055652900183 -2.8000000000000003 2.0
    vertex 5.247055652900183 0.2 0.0
    vertex 5.247055652900183 0.2 2.0
  endloop
endfacet
facet normal -0.0 1.0 -0.0
  outer loop
    vertex 5.657055652900182 -4.8 2.0
    vertex 14.039154916083175 -4.8 0.0
    vertex 5.657055652900182 -4.8 0.0
  endloop
endfacet
facet normal -0.0 1.0 -0.0
  outer loop
    vertex 14.039154916083175 -4.8 0.0
    vertex 5.657055652900182 -4.8 2.0
    vertex 14.039154916083175 -4.8 2.0
  endloop
endfacet
facet normal -1.0 0.0 0.0
  outer loop
    vertex 14.039154916083175 -2.821031922372886 2.0
    vertex 14.039154916083175 -4.8 0.0
    vertex 14.039154916083175 -4.8 2.0
  endloop
endfacet
facet normal -1.0 0.0 0.0
  outer loop
    vertex 14.039154916083175 -4.8 0.0
    vertex 14.039154916083175 -2.821031922372886 2.0
    vertex 14.039154916083175 -2.821031922372886 0.0
  endloop
endfacet
facet normal -0.0 1.0 0.0
  outer loop
    vertex 14.039154916083175 -2.821031922372886 2.0
    vertex 15.66291832034998 -2.821031922372886 0.0
    vertex 14.039154916083175 -2.821031922372886 0.0
  endloop
endfacet
facet normal -0.0 1.0 0.0
  outer loop
    vertex 15.66291832034998 -2.821031922372886 0.0
    vertex 14.039154916083175 -2.821031922372886 2.0
    vertex 15.66291832034998 -2.821031922372886 2.0
  endloop
endfacet
facet normal 1.0 0.0 0.0
  outer loop
    vertex 15.66291832034998 -2.821031922372886 0.0
    vertex 15.66291832034998 -4.8 2.0
    vertex 15.66291832034998 -4.8 0.0
  endloop
endfacet
facet normal 1.0 0.0 0.0
  outer loop
    vertex 15.66291832034998 -4.8 2.0
    vertex 15.66291832034998 -2.821031922372886 0.0
    vertex 15.66291832034998 -2.821031922372886 2.0
  endloop
endfacet
facet normal -0.0 1.0 -0.0
  outer loop
    vertex 15.66291832034998 -4.8 2.0
    vertex 39.8 -4.8 0.0
    vertex 15.66291832034998 -4.8 0.0
  endloop
endfacet
facet normal -0.0 1.0 -0.0
  outer loop
    vertex 39.8 -4.8 0.0
    vertex 15.66291832034998 -4.8 2.0
    vertex 39.8 -4.8 2.0
  endloop
endfacet
facet normal -1.0 0.0 0.0
  outer loop
    vertex 29.80593882895686 2.94 2.0
    vertex 29.80593882895686 1.4654921976154116 0.0
    vertex 29.80593882895686 1.4654921976154116 2.0
  endloop
endfacet
facet normal -1.0 0.0 0.0
  outer loop
    vertex 29.80593882895686 1.4654921976154116 0.0
    vertex 29.80593882895686 2.94 2.0
    vertex 29.80593882895686 2.94 0.0
  endloop
endfacet
facet normal -0.0 1.0 0.0
  outer loop
    vertex 29.80593882895686 2.94 2.0
    vertex 31.26593882895686 2.94 0.0
    vertex 29.80593882895686 2.94 0.0
  endloop
endfacet
facet normal -0.0 1.0 0.0
  outer loop
    vertex 31.26593882895686 2.94 0.0
    vertex 29.80593882895686 2.94 2.0
    vertex 31.26593882895686 2.94 2.0
  endloop
endfacet
facet normal 1.0 -0.0 -0.0
  outer loop
    vertex 31.26593882895686 2.94 0.0
    vertex 31.26593882895686 1.4654921976154116 2.0
    vertex 31.26593882895686 1.4654921976154116 0.0
  endloop
endfacet
facet normal 1.0 -0.0 -0.0
  outer loop
    vertex 31.26593882895686 1.4654921976154116 2.0
    vertex 31.26593882895686 2.94 0.0
    vertex 31.26593882895686 2.94 2.0
  endloop
endfacet
facet normal -1.0 0.0 0.0
  outer loop
    vertex 39.8 4.8 2.0
    vertex 39.8 -4.8 0.0
    vertex 39.8 -4.8 2.0
  endloop
endfacet
facet normal -1.0 0.0 0.0
  outer loop
    vertex 39.8 -4.8 0.0
    vertex 39.8 4.8 2.0
    vertex 39.8 4.8 0.0
  endloop
endfacet
facet normal -0.0 -1.0 -0.0
  outer loop
    vertex 39.8 4.8 2.0
    vertex 38.15746660840161 4.8 0.0
    vertex 39.8 4.8 0.0
  endloop
endfacet
facet normal -0.0 -1.0 -0.0
  outer loop
    vertex 38.15746660840161 4.8 0.0
    vertex 39.8 4.8 2.0
    vertex 38.15746660840161 4.8 2.0
  endloop
endfacet
facet normal 1.0 0.0 0.0
  outer loop
    vertex 38.15746660840161 4.8 0.0
    vertex 38.15746660840161 3.3499999999999996 2.0
    vertex 38.15746660840161 3.3499999999999996 0.0
  endloop
endfacet
facet normal 1.0 0.0 0.0
  outer loop
    vertex 38.15746660840161 3.3499999999999996 2.0
    vertex 38.15746660840161 4.8 0.0
    vertex 38.15746660840161 4.8 2.0
  endloop
endfacet
facet normal -0.0 -1.0 -0.0
  outer loop
    vertex 38.15746660840161 3.3499999999999996 2.0
    vertex 33.01746660840162 3.3499999999999996 0.0
    vertex 38.15746660840161 3.3499999999999996 0.0
  endloop
endfacet
facet normal -0.0 -1.0 -0.0
  outer loop
    vertex 33.01746660840162 3.3499999999999996 0.0
    vertex 38.15746660840161 3.3499999999999996 2.0
    vertex 33.01746660840162 3.3499999999999996 2.0
  endloop
endfacet
facet normal -1.0 0.0 0.0
  outer loop
    vertex 33.01746660840162 4.8 2.0
    vertex 33.01746660840162 3.3499999999999996 0.0
    vertex 33.01746660840162 3.3499999999999996 2.0
  endloop
endfacet
facet normal -1.0 0.0 0.0
  outer loop
    vertex 33.01746660840162 3.3499999999999996 0.0
    vertex 33.01746660840162 4.8 2.0
    vertex 33.01746660840162 4.8 0.0
  endloop
endfacet
facet normal 0.0 -1.0 0.0
  outer loop
    vertex 33.01746660840162 4.8 2.0
    vertex 9.535917556413308 4.8 0.0
    vertex 33.01746660840162 4.8 0.0
  endloop
endfacet
facet normal 0.0 -1.0 0.0
  outer loop
    vertex 9.535917556413308 4.8 0.0
    vertex 33.01746660840162 4.8 2.0
    vertex 9.535917556413308 4.8 2.0
  endloop
endfacet
facet normal 1.0 -0.0 -0.0
  outer loop
    vertex 16.593258312109167 2.463311102894053 0.0
    vertex 16.593258312109167 1.0899999999999996 2.0
    vertex 16.593258312109167 1.0899999999999996 0.0
  endloop
endfacet
facet normal 1.0 -0.0 -0.0
  outer loop
    vertex 16.593258312109167 1.0899999999999996 2.0
    vertex 16.593258312109167 2.463311102894053 0.0
    vertex 16.593258312109167 2.463311102894053 2.0
  endloop
endfacet
facet normal -0.0 -1.0 -0.0
  outer loop
    vertex 16.593258312109167 1.0899999999999996 2.0
    vertex 14.953258312109167 1.0899999999999996 0.0
    vertex 16.593258312109167 1.0899999999999996 0.0
  endloop
endfacet
facet normal -0.0 -1.0 -0.0
  outer loop
    vertex 14.953258312109167 1.0899999999999996 0.0
    vertex 16.593258312109167 1.0899999999999996 2.0
    vertex 14.953258312109167 1.0899999999999996 2.0
  endloop
endfacet
facet normal -1.0 0.0 0.0
  outer loop
    vertex 14.953258312109167 2.463311102894053 2.0
    vertex 14.953258312109167 1.0899999999999996 0.0
    vertex 14.953258312109167 1.0899999999999996 2.0
  endloop
endfacet
facet normal -1.0 0.0 0.0
  outer loop
    vertex 14.953258312109167 1.0899999999999996 0.0
    vertex 14.953258312109167 2.463311102894053 2.0
    vertex 14.953258312109167 2.463311102894053 0.0
  endloop
endfacet
facet normal 1.0 0.0 0.0
  outer loop
    vertex 9.535917556413308 4.8 0.0
    vertex 9.535917556413308 2.8 2.0
    vertex 9.535917556413308 2.8 0.0
  endloop
endfacet
facet normal 1.0 0.0 0.0
  outer loop
    vertex 9.535917556413308 2.8 2.0
    vertex 9.535917556413308 4.8 0.0
    vertex 9.535917556413308 4.8 2.0
  endloop
endfacet
facet normal -0.0 -1.0 -0.0
  outer loop
    vertex 9.535917556413308 2.8 2.0
    vertex 7.740338896470954 2.8 0.0
    vertex 9.535917556413308 2.8 0.0
  endloop
endfacet
facet normal -0.0 -1.0 -0.0
  outer loop
    vertex 7.740338896470954 2.8 0.0
    vertex 9.535917556413308 2.8 2.0
    vertex 7.740338896470954 2.8 2.0
  endloop
endfacet
facet normal 1.0 0.0 0.0
  outer loop
    vertex 7.740338896470954 2.8 0.0
    vertex 7.740338896470954 1.3068189269750643 2.0
    vertex 7.740338896470954 1.3068189269750643 0.0
  endloop
endfacet
facet normal 1.0 0.0 0.0
  outer loop
    vertex 7.740338896470954 1.3068189269750643 2.0
    vertex 7.740338896470954 2.8 0.0
    vertex 7.740338896470954 2.8 2.0
  endloop
endfacet
facet normal -0.0 -1.0 -0.0
  outer loop
    vertex 7.740338896470954 1.3068189269750643 2.0
    vertex 7.120338896470954 1.3068189269750643 0.0
    vertex 7.740338896470954 1.3068189269750643 0.0
  endloop
endfacet
facet normal -0.0 -1.0 -0.0
  outer loop
    vertex 7.120338896470954 1.3068189269750643 0.0
    vertex 7.740338896470954 1.3068189269750643 2.0
    vertex 7.120338896470954 1.3068189269750643 2.0
  endloop
endfacet
facet normal -1.0 0.0 0.0
  outer loop
    vertex 7.120338896470954 2.8 2.0
    vertex 7.120338896470954 1.3068189269750643 0.0
    vertex 7.120338896470954 1.3068189269750643 2.0
  endloop
endfacet
facet normal -1.0 0.0 0.0
  outer loop
    vertex 7.120338896470954 1.3068189269750643 0.0
    vertex 7.120338896470954 2.8 2.0
    vertex 7.120338896470954 2.8 0.0
  endloop
endfacet
facet normal -0.0 -1.0 -0.0
  outer loop
    vertex 7.120338896470954 2.8 2.0
    vertex 5.535917556413307 2.8 0.0
    vertex 7.120338896470954 2.8 0.0
  endloop
endfacet
facet normal -0.0 -1.0 -0.0
  outer loop
    vertex 5.535917556413307 2.8 0.0
    vertex 7.120338896470954 2.8 2.0
    vertex 5.535917556413307 2.8 2.0
  endloop
endfacet
facet normal -1.0 0.0 0.0
  outer loop
    vertex 5.535917556413307 4.8 2.0
    vertex 5.535917556413307 2.8 0.0
    vertex 5.535917556413307 2.8 2.0
  endloop
endfacet
facet normal -1.0 0.0 0.0
  outer loop
    vertex 5.535917556413307 2.8 0.0
    vertex 5.535917556413307 4.8 2.0
    vertex 5.535917556413307 4.8 0.0
  endloop
endfacet
facet normal -0.0 -1.0 -0.0
  outer loop
    vertex 5.535917556413307 4.8 2.0
    vertex 0.2 4.8 0.0
    vertex 5.535917556413307 4.8 0.0
  endloop
endfacet
facet normal -0.0 -1.0 -0.0
  outer loop
    vertex 0.2 4.8 0.0
    vertex 5.535917556413307 4.8 2.0
    vertex 0.2 4.8 2.0
  endloop
endfacet
facet normal 1.0 -3.524243297314885e-18 0.0
  outer loop
    vertex 0.2 4.8 0.0
    vertex 0.2 -1.6012980822213385 2.0
    vertex 0.2 -1.6012980822213385 0.0
  endloop
endfacet
facet normal 1.0 -3.524243297314885e-18 0.0
  outer loop
    vertex 0.2 -1.6012980822213385 2.0
    vertex 0.2 4.8 0.0
    vertex 0.2 4.8 2.0
  endloop
endfacet
facet normal -0.0 1.0 0.0
  outer loop
    vertex 0.2 -1.6012980822213385 2.0
    vertex 1.8800000000000001 -1.6012980822213385 0.0
    vertex 0.2 -1.6012980822213385 0.0
  endloop
endfacet
facet normal -0.0 1.0 0.0
  outer loop
    vertex 1.8800000000000001 -1.6012980822213385 0.0
    vertex 0.2 -1.6012980822213385 2.0
    vertex 1.8800000000000001 -1.6012980822213385 2.0
  endloop
endfacet
facet normal 1.0 0.0 0.0
  outer loop
    vertex 1.8800000000000001 -1.6012980822213385 0.0
    vertex 1.8800000000000001 -2.7812980822213387 2.0
    vertex 1.8800000000000001 -2.7812980822213387 0.0
  endloop
endfacet
facet normal 1.0 0.0 0.0
  outer loop
    vertex 1.8800000000000001 -2.7812980822213387 2.0
    vertex 1.8800000000000001 -1.6012980822213385 0.0
    vertex 1.8800000000000001 -1.6012980822213385 2.0
  endloop
endfacet
facet normal -0.0 -1.0 -0.0
  outer loop
    vertex 1.8800000000000001 -2.7812980822213387 2.0
    vertex 0.2 -2.7812980822213387 0.0
    vertex 1.8800000000000001 -2.7812980822213387 0.0
  endloop
endfacet
facet normal -0.0 -1.0 -0.0
  outer loop
    vertex 0.2 -2.7812980822213387 0.0
    vertex 1.8800000000000001 -2.7812980822213387 2.0
    vertex 0.2 -2.7812980822213387 2.0
  endloop
endfacet
facet normal 1.0 -1.1175365546394018e-17 0.0
  outer loop
    vertex 0.2 -2.7812980822213387 0.0
    vertex 0.19999999999999998 -4.8 2.0
    vertex 0.19999999999999998 -4.8 0.0
  endloop
endfacet
facet normal 1.0 -1.1175365546394018e-17 0.0
  outer loop
    vertex 0.19999999999999998 -4.8 2.0
    vertex 0.2 -2.7812980822213387 0.0
    vertex 0.2 -2.7812980822213387 2.0
  endloop
endfacet
facet normal -0.0 -0.0 1.0
  outer loop
    vertex 3.011194410610795 2.125039402687097 2.0
    vertex 1.0111944106107948 4.125039402687097 2.0
    vertex 1.0111944106107948 2.125039402687097 2.0
  endloop
endfacet
facet normal -0.0 -0.0 1.0
  outer loop
    vertex 1.0111944106107948 4.125039402687097 2.0
    vertex 3.011194410610795 2.125039402687097 2.0
    vertex 3.011194410610795 4.125039402687097 2.0
  endloop
endfacet
facet normal -1.0 0.0 0.0
  outer loop
    vertex 1.0111944106107948 4.125039402687097 2.0
    vertex 1.0111944106107948 2.125039402687097 0.0
    vertex 1.0111944106107948 2.125039402687097 2.0
  endloop
endfacet
facet normal -1.0 0.0 0.0
  outer loop
    vertex 1.0111944106107948 2.125039402687097 0.0
    vertex 1.0111944106107948 4.125039402687097 2.0
    vertex 1.0111944106107948 4.125039402687097 0.0
  endloop
endfacet
facet normal -0.0 1.0 0.0
  outer loop
    vertex 1.0111944106107948 4.125039402687097 2.0
    vertex 3.011194410610795 4.125039402687097 0.0
    vertex 1.0111944106107948 4.125039402687097 0.0
  endloop
endfacet
facet normal -0.0 1.0 0.0
  outer loop
    vertex 3.011194410610795 4.125039402687097 0.0
    vertex 1.0111944106107948 4.125039402687097 2.0
    vertex 3.011194410610795 4.125039402687097 2.0
  endloop
endfacet
facet normal 1.0 0.0 0.0
  outer loop
    vertex 3.011194410610795 4.125039402687097 0.0
    vertex 3.011194410610795 2.125039402687097 2.0
    vertex 3.011194410610795 2.125039402687097 0.0
  endloop
endfacet
facet normal 1.0 0.0 0.0
  outer loop
    vertex 3.011194410610795 2.125039402687097 2.0
    vertex 3.011194410610795 4.125039402687097 0.0
    vertex 3.011194410610795 4.125039402687097 2.0
  endloop
endfacet
facet normal -0.0 -1.0 -0.0
  outer loop
    vertex 3.011194410610795 2.125039402687097 2.0
    vertex 1.0111944106107948 2.125039402687097 0.0
    vertex 3.011194410610795 2.125039402687097 0.0
  endloop
endfacet
facet normal -0.0 -1.0 -0.0
  outer loop
    vertex 1.0111944106107948 2.125039402687097 0.0
    vertex 3.011194410610795 2.125039402687097 2.0
    vertex 1.0111944106107948 2.125039402687097 2.0
  endloop
endfacet
facet normal 0.0 1.0 0.0
  outer loop
    vertex 9.17878734999139 0.598174833133052 2.0
    vertex 11.611999479216475 0.598174833133052 0.0
    vertex 9.17878734999139 0.598174833133052 0.0
  endloop
endfacet
facet normal 0.0 1.0 0.0
  outer loop
    vertex 11.611999479216475 0.598174833133052 0.0
    vertex 9.17878734999139 0.598174833133052 2.0
    vertex 11.611999479216475 0.598174833133052 2.0
  endloop
endfacet
facet normal -1.0 0.0 0.0
  outer loop
    vertex 11.611999479216475 1.848174833133052 2.0
    vertex 11.611999479216475 0.598174833133052 0.0
    vertex 11.611999479216475 0.598174833133052 2.0
  endloop
endfacet
facet normal -1.0 0.0 0.0
  outer loop
    vertex 11.611999479216475 0.598174833133052 0.0
    vertex 11.611999479216475 1.848174833133052 2.0
    vertex 11.611999479216475 1.848174833133052 0.0
  endloop
endfacet
facet normal -0.0 1.0 0.0
  outer loop
    vertex 11.611999479216475 1.848174833133052 2.0
    vertex 12.93878734999139 1.848174833133052 0.0
    vertex 11.611999479216475 1.848174833133052 0.0
  endloop
endfacet
facet normal -0.0 1.0 0.0
  outer loop
    vertex 12.93878734999139 1.848174833133052 0.0
    vertex 11.611999479216475 1.848174833133052 2.0
    vertex 12.93878734999139 1.848174833133052 2.0
  endloop
endfacet
facet normal 1.0 -0.0 -0.0
  outer loop
    vertex 12.93878734999139 1.848174833133052 0.0
    vertex 12.93878734999139 0.06817483313305257 2.0
    vertex 12.93878734999139 0.06817483313305257 -1.8047785488306544e-16
  endloop
endfacet
facet normal 1.0 -0.0 -0.0
  outer loop
    vertex 12.93878734999139 0.06817483313305257 2.0
    vertex 12.93878734999139 1.848174833133052 0.0
    vertex 12.93878734999139 1.848174833133052 2.0
  endloop
endfacet
facet normal 0.0 -1.0 0.0
  outer loop
    vertex 11.058787349991391 -1.8118251668669476 2.0
    vertex 9.17878734999139 -1.8118251668669476 0.0
    vertex 11.058787349991391 -1.8118251668669476 -1.8047785488306544e-16
  endloop
endfacet
facet normal 0.0 -1.0 0.0
  outer loop
    vertex 9.17878734999139 -1.8118251668669476 0.0
    vertex 11.058787349991391 -1.8118251668669476 2.0
    vertex 9.17878734999139 -1.8118251668669476 2.0
  endloop
endfacet
facet normal -1.0 0.0 0.0
  outer loop
    vertex 9.17878734999139 0.598174833133052 2.0
    vertex 9.17878734999139 -1.8118251668669476 0.0
    vertex 9.17878734999139 -1.8118251668669476 2.0
  endloop
endfacet
facet normal -1.0 0.0 0.0
  outer loop
    vertex 9.17878734999139 -1.8118251668669476 0.0
    vertex 9.17878734999139 0.598174833133052 2.0
    vertex 9.17878734999139 0.598174833133052 0.0
  endloop
endfacet
facet normal -0.0 -0.0 1.0
  outer loop
    vertex 8.319023470724135 -4.225189455577225 2.0
    vertex 6.9490234707241365 -2.845189455577225 2.0
    vertex 6.9490234707241365 -4.225189455577225 2.0
  endloop
endfacet
facet normal -0.0 -0.0 1.0
  outer loop
    vertex 6.9490234707241365 -2.845189455577225 2.0
    vertex 8.319023470724135 -4.225189455577225 2.0
    vertex 8.319023470724135 -2.845189455577225 2.0
  endloop
endfacet
facet normal -1.0 0.0 0.0
  outer loop
    vertex 6.9490234707241365 -2.845189455577225 2.0
    vertex 6.9490234707241365 -4.225189455577225 0.0
    vertex 6.9490234707241365 -4.225189455577225 2.0
  endloop
endfacet
facet normal -1.0 0.0 0.0
  outer loop
    vertex 6.9490234707241365 -4.225189455577225 0.0
    vertex 6.9490234707241365 -2.845189455577225 2.0
    vertex 6.9490234707241365 -2.845189455577225 0.0
  endloop
endfacet
facet normal -0.0 1.0 0.0
  outer loop
    vertex 6.9490234707241365 -2.845189455577225 2.0
    vertex 8.319023470724135 -2.845189455577225 0.0
    vertex 6.9490234707241365 -2.845189455577225 0.0
  endloop
endfacet
facet normal -0.0 1.0 0.0
  outer loop
    vertex 8.319023470724135 -2.845189455577225 0.0
    vertex 6.9490234707241365 -2.845189455577225 2.0
    vertex 8.319023470724135 -2.845189455577225 2.0
  endloop
endfacet
facet normal 1.0 0.0 0.0
  outer loop
    vertex 8.319023470724135 -2.845189455577225 0.0
    vertex 8.319023470724135 -4.225189455577225 2.0
    vertex 8.319023470724135 -4.225189455577225 0.0
  endloop
endfacet
facet normal 1.0 0.0 0.0
  outer loop
    vertex 8.319023470724135 -4.225189455577225 2.0
    vertex 8.319023470724135 -2.845189455577225 0.0
    vertex 8.319023470724135 -2.845189455577225 2.0
  endloop
endfacet
facet normal -0.0 -1.0 -0.0
  outer loop
    vertex 8.319023470724135 -4.225189455577225 2.0
    vertex 6.9490234707241365 -4.225189455577225 0.0
    vertex 8.319023470724135 -4.225189455577225 0.0
  endloop
endfacet
facet normal -0.0 -1.0 -0.0
  outer loop
    vertex 6.9490234707241365 -4.225189455577225 0.0
    vertex 8.319023470724135 -4.225189455577225 2.0
    vertex 6.9490234707241365 -4.225189455577225 2.0
  endloop
endfacet
facet normal -0.0 -0.0 1.0
  outer loop
    vertex 20.009366127732058 -1.3213156723019694 2.0
    vertex 18.62936612773206 0.22868432769803387 2.0
    vertex 18.62936612773206 -1.3213156723019694 2.0
  endloop
endfacet
facet normal -0.0 -0.0 1.0
  outer loop
    vertex 18.62936612773206 0.22868432769803387 2.0
    vertex 20.009366127732058 -1.3213156723019694 2.0
    vertex 20.009366127732058 0.22868432769803387 2.0
  endloop
endfacet
facet normal -0.0 1.0 0.0
  outer loop
    vertex 18.62936612773206 0.22868432769803387 2.0
    vertex 20.009366127732058 0.22868432769803387 0.0
    vertex 18.62936612773206 0.22868432769803387 0.0
  endloop
endfacet
facet normal -0.0 1.0 0.0
  outer loop
    vertex 20.009366127732058 0.22868432769803387 0.0
    vertex 18.62936612773206 0.22868432769803387 2.0
    vertex 20.009366127732058 0.22868432769803387 2.0
  endloop
endfacet
facet normal 1.0 0.0 0.0
  outer loop
    vertex 20.009366127732058 0.22868432769803387 0.0
    vertex 20.009366127732058 -1.3213156723019694 2.0
    vertex 20.009366127732058 -1.3213156723019694 0.0
  endloop
endfacet
facet normal 1.0 0.0 0.0
  outer loop
    vertex 20.009366127732058 -1.3213156723019694 2.0
    vertex 20.009366127732058 0.22868432769803387 0.0
    vertex 20.009366127732058 0.22868432769803387 2.0
  endloop
endfacet
facet normal -0.0 -1.0 -0.0
  outer loop
    vertex 20.009366127732058 -1.3213156723019694 2.0
    vertex 18.62936612773206 -1.3213156723019694 0.0
    vertex 20.009366127732058 -1.3213156723019694 0.0
  endloop
endfacet
facet normal -0.0 -1.0 -0.0
  outer loop
    vertex 18.62936612773206 -1.3213156723019694 0.0
    vertex 20.009366127732058 -1.3213156723019694 2.0
    vertex 18.62936612773206 -1.3213156723019694 2.0
  endloop
endfacet
facet normal -1.0 0.0 0.0
  outer loop
    vertex 18.62936612773206 0.22868432769803387 2.0
    vertex 18.62936612773206 -1.3213156723019694 0.0
    vertex 18.62936612773206 -1.3213156723019694 2.0
  endloop
endfacet
facet normal -1.0 0.0 0.0
  outer loop
    vertex 18.62936612773206 -1.3213156723019694 0.0
    vertex 18.62936612773206 0.22868432769803387 2.0
    vertex 18.62936612773206 0.22868432769803387 0.0
  endloop
endfacet
facet normal -0.0 -0.0 1.0
  outer loop
    vertex 25.861571232392667 2.9613987811696347 2.0
    vertex 19.91157123239267 3.801398781169635 2.0
    vertex 19.91157123239267 2.9613987811696347 2.0
  endloop
endfacet
facet normal -0.0 -0.0 1.0
  outer loop
    vertex 19.91157123239267 3.801398781169635 2.0
    vertex 25.861571232392667 2.9613987811696347 2.0
    vertex 25.861571232392667 3.801398781169635 2.0
  endloop
endfacet
facet normal -1.0 0.0 0.0
  outer loop
    vertex 19.91157123239267 3.801398781169635 2.0
    vertex 19.91157123239267 2.9613987811696347 0.0
    vertex 19.91157123239267 2.9613987811696347 2.0
  endloop
endfacet
facet normal -1.0 0.0 0.0
  outer loop
    vertex 19.91157123239267 2.9613987811696347 0.0
    vertex 19.91157123239267 3.801398781169635 2.0
    vertex 19.91157123239267 3.801398781169635 0.0
  endloop
endfacet
facet normal -0.0 1.0 0.0
  outer loop
    vertex 19.91157123239267 3.801398781169635 2.0
    vertex 25.861571232392667 3.801398781169635 0.0
    vertex 19.91157123239267 3.801398781169635 0.0
  endloop
endfacet
facet normal -0.0 1.0 0.0
  outer loop
    vertex 25.861571232392667 3.801398781169635 0.0
    vertex 19.91157123239267 3.801398781169635 2.0
    vertex 25.861571232392667 3.801398781169635 2.0
  endloop
endfacet
facet normal 1.0 0.0 0.0
  outer loop
    vertex 25.861571232392667 3.801398781169635 0.0
    vertex 25.861571232392667 2.9613987811696347 2.0
    vertex 25.861571232392667 2.9613987811696347 0.0
  endloop
endfacet
facet normal 1.0 0.0 0.0
  outer loop
    vertex 25.861571232392667 2.9613987811696347 2.0
    vertex 25.861571232392667 3.801398781169635 0.0
    vertex 25.861571232392667 3.801398781169635 2.0
  endloop
endfacet
facet normal -0.0 -1.0 -0.0
  outer loop
    vertex 25.861571232392667 2.9613987811696347 2.0
    vertex 19.91157123239267 2.9613987811696347 0.0
    vertex 25.861571232392667 2.9613987811696347 0.0
  endloop
endfacet
facet normal -0.0 -1.0 -0.0
  outer loop
    vertex 19.91157123239267 2.9613987811696347 0.0
    vertex 25.861571232392667 2.9613987811696347 2.0
    vertex 19.91157123239267 2.9613987811696347 2.0
  endloop
endfacet
facet normal -0.0 -0.0 1.0
  outer loop
    vertex 26.569594382941258 -1.7272846443051373 2.0
    vertex 24.83959438294126 0.5827153556948633 2.0
    vertex 24.83959438294126 -1.7272846443051373 2.0
  endloop
endfacet
facet normal -0.0 -0.0 1.0
  outer loop
    vertex 24.83959438294126 0.5827153556948633 2.0
    vertex 26.569594382941258 -1.7272846443051373 2.0
    vertex 26.569594382941258 -1.157284644305137 2.0
  endloop
endfacet
facet normal -0.0 -0.0 1.0
  outer loop
    vertex 24.83959438294126 0.5827153556948633 2.0
    vertex 26.569594382941258 -1.157284644305137 2.0
    vertex 27.719594382941256 0.5827153556948633 2.0
  endloop
endfacet
facet normal -0.0 -0.0 1.0
  outer loop
    vertex 27.719594382941256 0.5827153556948633 2.0
    vertex 26.569594382941258 -1.157284644305137 2.0
    vertex 27.719594382941256 -1.157284644305137 2.0
  endloop
endfacet
facet normal 1.0 0.0 0.0
  outer loop
    vertex 27.719594382941256 0.5827153556948633 0.0
    vertex 27.719594382941256 -1.157284644305137 2.0
    vertex 27.719594382941256 -1.157284644305137 0.0
  endloop
endfacet
facet normal 1.0 0.0 0.0
  outer loop
    vertex 27.719594382941256 -1.157284644305137 2.0
    vertex 27.719594382941256 0.5827153556948633 0.0
    vertex 27.719594382941256 0.5827153556948633 2.0
  endloop
endfacet
facet normal -0.0 -1.0 -0.0
  outer loop
    vertex 27.719594382941256 -1.157284644305137 2.0
    vertex 26.569594382941258 -1.157284644305137 0.0
    vertex 27.719594382941256 -1.157284644305137 0.0
  endloop
endfacet
facet normal -0.0 -1.0 -0.0
  outer loop
    vertex 26.569594382941258 -1.157284644305137 0.0
    vertex 27.719594382941256 -1.157284644305137 2.0
    vertex 26.569594382941258 -1.157284644305137 2.0
  endloop
endfacet
facet normal 1.0 0.0 0.0
  outer loop
    vertex 26.569594382941258 -1.157284644305137 0.0
    vertex 26.569594382941258 -1.7272846443051373 2.0
    vertex 26.569594382941258 -1.7272846443051373 0.0
  endloop
endfacet
facet normal 1.0 0.0 0.0
  outer loop
    vertex 26.569594382941258 -1.7272846443051373 2.0
    vertex 26.569594382941258 -1.157284644305137 0.0
    vertex 26.569594382941258 -1.157284644305137 2.0
  endloop
endfacet
facet normal -0.0 -1.0 -0.0
  outer loop
    vertex 26.569594382941258 -1.7272846443051373 2.0
    vertex 24.83959438294126 -1.7272846443051373 0.0
    vertex 26.569594382941258 -1.7272846443051373 0.0
  endloop
endfacet
facet normal -0.0 -1.0 -0.0
  outer loop
    vertex 24.83959438294126 -1.7272846443051373 0.0
    vertex 26.569594382941258 -1.7272846443051373 2.0
    vertex 24.83959438294126 -1.7272846443051373 2.0
  endloop
endfacet
facet normal -1.0 0.0 0.0
  outer loop
    vertex 24.83959438294126 0.5827153556948633 2.0
    vertex 24.83959438294126 -1.7272846443051373 0.0
    vertex 24.83959438294126 -1.7272846443051373 2.0
  endloop
endfacet
facet normal -1.0 0.0 0.0
  outer loop
    vertex 24.83959438294126 -1.7272846443051373 0.0
    vertex 24.83959438294126 0.5827153556948633 2.0
    vertex 24.83959438294126 0.5827153556948633 0.0
  endloop
endfacet
facet normal -0.0 1.0 0.0
  outer loop
    vertex 24.83959438294126 0.5827153556948633 2.0
    vertex 27.719594382941256 0.5827153556948633 0.0
    vertex 24.83959438294126 0.5827153556948633 0.0
  endloop
endfacet
facet normal -0.0 1.0 0.0
  outer loop
    vertex 27.719594382941256 0.5827153556948633 0.0
    vertex 24.83959438294126 0.5827153556948633 2.0
    vertex 27.719594382941256 0.5827153556948633 2.0
  endloop
endfacet
facet normal -0.0 -0.0 1.0
  outer loop
    vertex 23.00186424949389 -3.376076665235348 2.0
    vertex 22.23186424949389 -1.6760766652353476 2.0
    vertex 22.23186424949389 -3.376076665235348 2.0
  endloop
endfacet
facet normal -0.0 -0.0 1.0
  outer loop
    vertex 22.23186424949389 -1.6760766652353476 2.0
    vertex 23.00186424949389 -3.376076665235348 2.0
    vertex 23.00186424949389 -1.6760766652353476 2.0
  endloop
endfacet
facet normal -0.0 1.0 0.0
  outer loop
    vertex 22.23186424949389 -1.6760766652353476 2.0
    vertex 23.00186424949389 -1.6760766652353476 0.0
    vertex 22.23186424949389 -1.6760766652353476 0.0
  endloop
endfacet
facet normal -0.0 1.0 0.0
  outer loop
    vertex 23.00186424949389 -1.6760766652353476 0.0
    vertex 22.23186424949389 -1.6760766652353476 2.0
    vertex 23.00186424949389 -1.6760766652353476 2.0
  endloop
endfacet
facet normal 1.0 0.0 0.0
  outer loop
    vertex 23.00186424949389 -1.6760766652353476 0.0
    vertex 23.00186424949389 -3.376076665235348 2.0
    vertex 23.00186424949389 -3.376076665235348 0.0
  endloop
endfacet
facet normal 1.0 0.0 0.0
  outer loop
    vertex 23.00186424949389 -3.376076665235348 2.0
    vertex 23.00186424949389 -1.6760766652353476 0.0
    vertex 23.00186424949389 -1.6760766652353476 2.0
  endloop
endfacet
facet normal -0.0 -1.0 -0.0
  outer loop
    vertex 23.00186424949389 -3.376076665235348 2.0
    vertex 22.23186424949389 -3.376076665235348 0.0
    vertex 23.00186424949389 -3.376076665235348 0.0
  endloop
endfacet
facet normal -0.0 -1.0 -0.0
  outer loop
    vertex 22.23186424949389 -3.376076665235348 0.0
    vertex 23.00186424949389 -3.376076665235348 2.0
    vertex 22.23186424949389 -3.376076665235348 2.0
  endloop
endfacet
facet normal -1.0 0.0 0.0
  outer loop
    vertex 22.23186424949389 -1.6760766652353476 2.0
    vertex 22.23186424949389 -3.376076665235348 0.0
    vertex 22.23186424949389 -3.376076665235348 2.0
  endloop
endfacet
facet normal -1.0 0.0 0.0
  outer loop
    vertex 22.23186424949389 -3.376076665235348 0.0
    vertex 22.23186424949389 -1.6760766652353476 2.0
    vertex 22.23186424949389 -1.6760766652353476 0.0
  endloop
endfacet
facet normal -0.0 -0.0 1.0
  outer loop
    vertex 35.543417649537226 -0.5218919469741784 2.0
    vertex 34.23341764953722 1.9481080530258217 2.0
    vertex 34.23341764953722 -0.5218919469741784 2.0
  endloop
endfacet
facet normal -0.0 -0.0 1.0
  outer loop
    vertex 34.23341764953722 1.9481080530258217 2.0
    vertex 35.543417649537226 -0.5218919469741784 2.0
    vertex 35.543417649537226 1.9481080530258217 2.0
  endloop
endfacet
facet normal -0.0 1.0 0.0
  outer loop
    vertex 34.23341764953722 1.9481080530258217 2.0
    vertex 35.543417649537226 1.9481080530258217 0.0
    vertex 34.23341764953722 1.9481080530258217 0.0
  endloop
endfacet
facet normal -0.0 1.0 0.0
  outer loop
    vertex 35.543417649537226 1.9481080530258217 0.0
    vertex 34.23341764953722 1.9481080530258217 2.0
    vertex 35.543417649537226 1.9481080530258217 2.0
  endloop
endfacet
facet normal 1.0 0.0 0.0
  outer loop
    vertex 35.543417649537226 1.9481080530258217 0.0
    vertex 35.543417649537226 -0.5218919469741784 2.0
    vertex 35.543417649537226 -0.5218919469741784 0.0
  endloop
endfacet
facet normal 1.0 0.0 0.0
  outer loop
    vertex 35.543417649537226 -0.5218919469741784 2.0
    vertex 35.543417649537226 1.9481080530258217 0.0
    vertex 35.543417649537226 1.9481080530258217 2.0
  endloop
endfacet
facet normal -0.0 -1.0 -0.0
  outer loop
    vertex 35.543417649537226 -0.5218919469741784 2.0
    vertex 34.23341764953722 -0.5218919469741784 0.0
    vertex 35.543417649537226 -0.5218919469741784 0.0
  endloop
endfacet
facet normal -0.0 -1.0 -0.0
  outer loop
    vertex 34.23341764953722 -0.5218919469741784 0.0
    vertex 35.543417649537226 -0.5218919469741784 2.0
    vertex 34.23341764953722 -0.5218919469741784 2.0
  endloop
endfacet
facet normal -1.0 0.0 0.0
  outer loop
    vertex 34.23341764953722 1.9481080530258217 2.0
    vertex 34.23341764953722 -0.5218919469741784 0.0
    vertex 34.23341764953722 -0.5218919469741784 2.0
  endloop
endfacet
facet normal -1.0 0.0 0.0
  outer loop
    vertex 34.23341764953722 -0.5218919469741784 0.0
    vertex 34.23341764953722 1.9481080530258217 2.0
    vertex 34.23341764953722 1.9481080530258217 0.0
  endloop
endfacet
facet normal -0.0 -0.0 1.0
  outer loop
    vertex 35.824969728911064 -3.269487654940526 2.0
    vertex 34.38496972891106 -2.0494876549405263 2.0
    vertex 34.38496972891106 -3.269487654940526 2.0
  endloop
endfacet
facet normal -0.0 -0.0 1.0
  outer loop
    vertex 34.38496972891106 -2.0494876549405263 2.0
    vertex 35.824969728911064 -3.269487654940526 2.0
    vertex 35.824969728911064 -2.0494876549405263 2.0
  endloop
endfacet
facet normal -1.0 0.0 0.0
  outer loop
    vertex 34.38496972891106 -2.0494876549405263 2.0
    vertex 34.38496972891106 -3.269487654940526 0.0
    vertex 34.38496972891106 -3.269487654940526 2.0
  endloop
endfacet
facet normal -1.0 0.0 0.0
  outer loop
    vertex 34.38496972891106 -3.269487654940526 0.0
    vertex 34.38496972891106 -2.0494876549405263 2.0
    vertex 34.38496972891106 -2.0494876549405263 0.0
  endloop
endfacet
facet normal -0.0 1.0 0.0
  outer loop
    vertex 34.38496972891106 -2.0494876549405263 2.0
    vertex 35.824969728911064 -2.0494876549405263 0.0
    vertex 34.38496972891106 -2.0494876549405263 0.0
  endloop
endfacet
facet normal -0.0 1.0 0.0
  outer loop
    vertex 35.824969728911064 -2.0494876549405263 0.0
    vertex 34.38496972891106 -2.0494876549405263 2.0
    vertex 35.824969728911064 -2.0494876549405263 2.0
  endloop
endfacet
facet normal 1.0 0.0 0.0
  outer loop
    vertex 35.824969728911064 -2.0494876549405263 0.0
    vertex 35.824969728911064 -3.269487654940526 2.0
    vertex 35.824969728911064 -3.269487654940526 0.0
  endloop
endfacet
facet normal 1.0 0.0 0.0
  outer loop
    vertex 35.824969728911064 -3.269487654940526 2.0
    vertex 35.824969728911064 -2.0494876549405263 0.0
    vertex 35.824969728911064 -2.0494876549405263 2.0
  endloop
endfacet
facet normal -0.0 -1.0 -0.0
  outer loop
    vertex 35.824969728911064 -3.269487654940526 2.0
    vertex 34.38496972891106 -3.269487654940526 0.0
    vertex 35.824969728911064 -3.269487654940526 0.0
  endloop
endfacet
facet normal -0.0 -1.0 -0.0
  outer loop
    vertex 34.38496972891106 -3.269487654940526 0.0
    vertex 35.824969728911064 -3.269487654940526 2.0
    vertex 34.38496972891106 -3.269487654940526 2.0
  endloop
endfacet
facet normal -0.0 -0.0 1.0
  outer loop
    vertex 16.593258312109167 1.0899999999999996 2.0
    vertex 14.953258312109167 2.463311102894053 2.0
    vertex 14.953258312109167 1.0899999999999996 2.0
  endloop
endfacet
facet normal -0.0 -0.0 1.0
  outer loop
    vertex 14.953258312109167 2.463311102894053 2.0
    vertex 16.593258312109167 1.0899999999999996 2.0
    vertex 16.593258312109167 2.463311102894053 2.0
  endloop
endfacet
facet normal -0.0 1.0 -0.0
  outer loop
    vertex 14.953258312109167 2.463311102894053 2.0
    vertex 16.593258312109167 2.463311102894053 0.0
    vertex 14.953258312109167 2.463311102894053 0.0
  endloop
endfacet
facet normal -0.0 1.0 -0.0
  outer loop
    vertex 16.593258312109167 2.463311102894053 0.0
    vertex 14.953258312109167 2.463311102894053 2.0
    vertex 16.593258312109167 2.463311102894053 2.0
  endloop
endfacet
facet normal 0.0 0.0 -1.0
  outer loop
    vertex 16.593258312109167 2.463311102894053 0.0
    vertex 14.953258312109167 1.0899999999999996 0.0
    vertex 14.953258312109167 2.463311102894053 0.0
  endloop
endfacet
facet normal 0.0 0.0 -1.0
  outer loop
    vertex 14.953258312109167 1.0899999999999996 0.0
    vertex 16.593258312109167 2.463311102894053 0.0
    vertex 16.593258312109167 1.0899999999999996 0.0
  endloop
endfacet
facet normal -0.0 -0.0 1.0
  outer loop
    vertex 11.058787349991391 -1.8118251668669476 2.0
    vertex 9.17878734999139 0.598174833133052 2.0
    vertex 9.17878734999139 -1.8118251668669476 2.0
  endloop
endfacet
facet normal -0.0 -0.0 1.0
  outer loop
    vertex 9.17878734999139 0.598174833133052 2.0
    vertex 11.058787349991391 -1.8118251668669476 2.0
    vertex 11.058787349991391 0.06817483313305257 2.0
  endloop
endfacet
facet normal -0.0 -0.0 1.0
  outer loop
    vertex 9.17878734999139 0.598174833133052 2.0
    vertex 11.058787349991391 0.06817483313305257 2.0
    vertex 11.611999479216475 0.598174833133052 2.0
  endloop
endfacet
facet normal -0.0 -0.0 1.0
  outer loop
    vertex 11.611999479216475 0.598174833133052 2.0
    vertex 11.058787349991391 0.06817483313305257 2.0
    vertex 12.93878734999139 0.06817483313305257 2.0
  endloop
endfacet
facet normal -0.0 -0.0 1.0
  outer loop
    vertex 11.611999479216475 0.598174833133052 2.0
    vertex 12.93878734999139 0.06817483313305257 2.0
    vertex 11.611999479216475 1.848174833133052 2.0
  endloop
endfacet
facet normal -0.0 -0.0 1.0
  outer loop
    vertex 11.611999479216475 1.848174833133052 2.0
    vertex 12.93878734999139 0.06817483313305257 2.0
    vertex 12.93878734999139 1.848174833133052 2.0
  endloop
endfacet
facet normal 0.0 -1.0 0.0
  outer loop
    vertex 12.93878734999139 0.06817483313305257 2.0
    vertex 11.058787349991391 0.06817483313305257 -1.8047785488306544e-16
    vertex 12.93878734999139 0.06817483313305257 -1.8047785488306544e-16
  endloop
endfacet
facet normal 0.0 -1.0 0.0
  outer loop
    vertex 11.058787349991391 0.06817483313305257 -1.8047785488306544e-16
    vertex 12.93878734999139 0.06817483313305257 2.0
    vertex 11.058787349991391 0.06817483313305257 2.0
  endloop
endfacet
facet normal 1.0 -0.0 -0.0
  outer loop
    vertex 11.058787349991391 0.06817483313305257 -1.8047785488306544e-16
    vertex 11.058787349991391 -1.8118251668669476 2.0
    vertex 11.058787349991391 -1.8118251668669476 -1.8047785488306544e-16
  endloop
endfacet
facet normal 1.0 -0.0 -0.0
  outer loop
    vertex 11.058787349991391 -1.8118251668669476 2.0
    vertex 11.058787349991391 0.06817483313305257 -1.8047785488306544e-16
    vertex 11.058787349991391 0.06817483313305257 2.0
  endloop
endfacet
facet normal 0.0 0.0 -1.0
  outer loop
    vertex 16.675195259283118 -0.5030348105300089 0.0
    vertex 14.395195259283117 -1.3730348105300088 0.0
    vertex 14.395195259283117 -0.5030348105300089 0.0
  endloop
endfacet
facet normal 0.0 0.0 -1.0
  outer loop
    vertex 14.395195259283117 -1.3730348105300088 0.0
    vertex 16.675195259283118 -0.5030348105300089 0.0
    vertex 16.675195259283118 -1.3730348105300088 0.0
  endloop
endfacet
facet normal -0.0 -0.0 1.0
  outer loop
    vertex 5.247055652900183 -2.8000000000000003 2.0
    vertex 3.657055652900182 0.2 2.0
    vertex 3.657055652900182 -2.8000000000000003 2.0
  endloop
endfacet
facet normal -0.0 -0.0 1.0
  outer loop
    vertex 3.657055652900182 0.2 2.0
    vertex 5.247055652900183 -2.8000000000000003 2.0
    vertex 5.247055652900183 0.2 2.0
  endloop
endfacet
facet normal -0.0 1.0 -0.0
  outer loop
    vertex 3.657055652900182 -4.8 2.0
    vertex 5.657055652900182 -4.8 0.0
    vertex 3.657055652900182 -4.8 0.0
  endloop
endfacet
facet normal -0.0 1.0 -0.0
  outer loop
    vertex 5.657055652900182 -4.8 0.0
    vertex 3.657055652900182 -4.8 2.0
    vertex 5.657055652900182 -4.8 2.0
  endloop
endfacet
facet normal 0.0 -1.0 0.0
  outer loop
    vertex 5.247055652900183 -2.8000000000000003 2.0
    vertex 3.657055652900182 -2.8000000000000003 0.0
    vertex 5.247055652900183 -2.8000000000000003 0.0
  endloop
endfacet
facet normal 0.0 -1.0 0.0
  outer loop
    vertex 3.657055652900182 -2.8000000000000003 0.0
    vertex 5.247055652900183 -2.8000000000000003 2.0
    vertex 3.657055652900182 -2.8000000000000003 2.0
  endloop
endfacet
facet normal 0.0 0.0 -1.0
  outer loop
    vertex 5.247055652900183 0.2 0.0
    vertex 3.657055652900182 -2.8000000000000003 0.0
    vertex 3.657055652900182 0.2 0.0
  endloop
endfacet
facet normal 0.0 0.0 -1.0
  outer loop
    vertex 3.657055652900182 -2.8000000000000003 0.0
    vertex 5.247055652900183 0.2 0.0
    vertex 5.247055652900183 -2.8000000000000003 0.0
  endloop
endfacet
facet normal -0.0 -0.0 1.0
  outer loop
    vertex 31.26593882895686 1.4654921976154116 2.0
    vertex 29.80593882895686 2.94 2.0
    vertex 29.80593882895686 1.4654921976154116 2.0
  endloop
endfacet
facet normal -0.0 -0.0 1.0
  outer loop
    vertex 29.80593882895686 2.94 2.0
    vertex 31.26593882895686 1.4654921976154116 2.0
    vertex 31.26593882895686 2.94 2.0
  endloop
endfacet
facet normal 0.0 -1.0 0.0
  outer loop
    vertex 31.26593882895686 1.4654921976154116 2.0
    vertex 29.80593882895686 1.4654921976154116 0.0
    vertex 31.26593882895686 1.4654921976154116 0.0
  endloop
endfacet
facet normal 0.0 -1.0 0.0
  outer loop
    vertex 29.80593882895686 1.4654921976154116 0.0
    vertex 31.26593882895686 1.4654921976154116 2.0
    vertex 29.80593882895686 1.4654921976154116 2.0
  endloop
endfacet
facet normal 0.0 0.0 -1.0
  outer loop
    vertex 31.26593882895686 2.94 0.0
    vertex 29.80593882895686 1.4654921976154116 0.0
    vertex 29.80593882895686 2.94 0.0
  endloop
endfacet
facet normal 0.0 0.0 -1.0
  outer loop
    vertex 29.80593882895686 1.4654921976154116 0.0
    vertex 31.26593882895686 2.94 0.0
    vertex 31.26593882895686 1.4654921976154116 0.0
  endloop
endfacet
facet normal 0.0 0.0 -1.0
  outer loop
    vertex 30.384171119566947 -0.08565793940124199 0.0
    vertex 29.314171119566947 -1.2756579394012422 0.0
    vertex 29.314171119566947 -0.08565793940124199 0.0
  endloop
endfacet
facet normal 0.0 0.0 -1.0
  outer loop
    vertex 29.314171119566947 -1.2756579394012422 0.0
    vertex 30.384171119566947 -0.08565793940124199 0.0
    vertex 30.384171119566947 -1.2756579394012422 0.0
  endloop
endfacet
facet normal 0.0 0.0 -1.0
  outer loop
    vertex 32.32729695593569 -2.0226173305774733 0.0
    vertex 31.487296955935687 -3.052617330577473 0.0
    vertex 31.487296955935687 -2.0226173305774733 0.0
  endloop
endfacet
facet normal 0.0 0.0 -1.0
  outer loop
    vertex 31.487296955935687 -3.052617330577473 0.0
    vertex 32.32729695593569 -2.0226173305774733 0.0
    vertex 32.32729695593569 -3.052617330577473 0.0
  endloop
endfacet
facet normal 0.0 0.0 -1.0
  outer loop
    vertex 20.02754677591775 -3.315893227949254 0.0
    vertex 18.317546775917748 -3.8358932279492546 0.0
    vertex 18.317546775917748 -3.315893227949254 0.0
  endloop
endfacet
facet normal 0.0 0.0 -1.0
  outer loop
    vertex 18.317546775917748 -3.8358932279492546 0.0
    vertex 20.02754677591775 -3.315893227949254 0.0
    vertex 20.02754677591775 -3.8358932279492546 0.0
  endloop
endfacet
facet normal 0.0 0.0 -1.0
  outer loop
    vertex 22.752279176890738 1.9510984874114596 0.0
    vertex 21.91227917689074 1.1110984874114604 0.0
    vertex 21.91227917689074 1.9510984874114596 0.0
  endloop
endfacet
facet normal 0.0 0.0 -1.0
  outer loop
    vertex 21.91227917689074 1.1110984874114604 0.0
    vertex 22.752279176890738 1.9510984874114596 0.0
    vertex 22.752279176890738 1.1110984874114604 0.0
  endloop
endfacet
facet normal 0.0 0.0 -1.0
  outer loop
    vertex 29.07816538031008 -2.6442462825471083 0.0
    vertex 27.228165380310077 -3.444246282547108 0.0
    vertex 27.228165380310077 -2.6442462825471083 0.0
  endloop
endfacet
facet normal 0.0 0.0 -1.0
  outer loop
    vertex 27.228165380310077 -3.444246282547108 0.0
    vertex 29.07816538031008 -2.6442462825471083 0.0
    vertex 29.07816538031008 -3.444246282547108 0.0
  endloop
endfacet
facet normal 0.0 0.0 -1.0
  outer loop
    vertex 17.859895546477972 4.47285693548307 0.0
    vertex 17.45989554647797 4.202856935483069 0.0
    vertex 17.45989554647797 4.47285693548307 0.0
  endloop
endfacet
facet normal 0.0 0.0 -1.0
  outer loop
    vertex 17.45989554647797 4.202856935483069 0.0
    vertex 17.859895546477972 4.47285693548307 0.0
    vertex 17.859895546477972 4.202856935483069 0.0
  endloop
endfacet
facet normal -0.0 -0.0 1.0
  outer loop
    vertex 32.32729695593569 -3.052617330577473 2.0
    vertex 31.487296955935687 -2.0226173305774733 2.0
    vertex 31.487296955935687 -3.052617330577473 2.0
  endloop
endfacet
facet normal -0.0 -0.0 1.0
  outer loop
    vertex 31.487296955935687 -2.0226173305774733 2.0
    vertex 32.32729695593569 -3.052617330577473 2.0
    vertex 32.32729695593569 -2.0226173305774733 2.0
  endloop
endfacet
facet normal -0.0 1.0 0.0
  outer loop
    vertex 31.487296955935687 -2.0226173305774733 2.0
    vertex 32.32729695593569 -2.0226173305774733 0.0
    vertex 31.487296955935687 -2.0226173305774733 0.0
  endloop
endfacet
facet normal -0.0 1.0 0.0
  outer loop
    vertex 32.32729695593569 -2.0226173305774733 0.0
    vertex 31.487296955935687 -2.0226173305774733 2.0
    vertex 32.32729695593569 -2.0226173305774733 2.0
  endloop
endfacet
facet normal 1.0 0.0 0.0
  outer loop
    vertex 32.32729695593569 -2.0226173305774733 0.0
    vertex 32.32729695593569 -3.052617330577473 2.0
    vertex 32.32729695593569 -3.052617330577473 0.0
  endloop
endfacet
facet normal 1.0 0.0 0.0
  outer loop
    vertex 32.32729695593569 -3.052617330577473 2.0
    vertex 32.32729695593569 -2.0226173305774733 0.0
    vertex 32.32729695593569 -2.0226173305774733 2.0
  endloop
endfacet
facet normal -0.0 -1.0 -0.0
  outer loop
    vertex 32.32729695593569 -3.052617330577473 2.0
    vertex 31.487296955935687 -3.052617330577473 0.0
    vertex 32.32729695593569 -3.052617330577473 0.0
  endloop
endfacet
facet normal -0.0 -1.0 -0.0
  outer loop
    vertex 31.487296955935687 -3.052617330577473 0.0
    vertex 32.32729695593569 -3.052617330577473 2.0
    vertex 31.487296955935687 -3.052617330577473 2.0
  endloop
endfacet
facet normal -1.0 0.0 0.0
  outer loop
    vertex 31.487296955935687 -2.0226173305774733 2.0
    vertex 31.487296955935687 -3.052617330577473 0.0
    vertex 31.487296955935687 -3.052617330577473 2.0
  endloop
endfacet
facet normal -1.0 0.0 0.0
  outer loop
    vertex 31.487296955935687 -3.052617330577473 0.0
    vertex 31.487296955935687 -2.0226173305774733 2.0
    vertex 31.487296955935687 -2.0226173305774733 0.0
  endloop
endfacet
facet normal -0.0 -0.0 1.0
  outer loop
    vertex 30.384171119566947 -1.2756579394012422 2.0
    vertex 29.314171119566947 -0.08565793940124199 2.0
    vertex 29.314171119566947 -1.2756579394012422 2.0
  endloop
endfacet
facet normal -0.0 -0.0 1.0
  outer loop
    vertex 29.314171119566947 -0.08565793940124199 2.0
    vertex 30.384171119566947 -1.2756579394012422 2.0
    vertex 30.384171119566947 -0.08565793940124199 2.0
  endloop
endfacet
facet normal 1.0 0.0 0.0
  outer loop
    vertex 30.384171119566947 -0.08565793940124199 0.0
    vertex 30.384171119566947 -1.2756579394012422 2.0
    vertex 30.384171119566947 -1.2756579394012422 0.0
  endloop
endfacet
facet normal 1.0 0.0 0.0
  outer loop
    vertex 30.384171119566947 -1.2756579394012422 2.0
    vertex 30.384171119566947 -0.08565793940124199 0.0
    vertex 30.384171119566947 -0.08565793940124199 2.0
  endloop
endfacet
facet normal -0.0 -1.0 -0.0
  outer loop
    vertex 30.384171119566947 -1.2756579394012422 2.0
    vertex 29.314171119566947 -1.2756579394012422 0.0
    vertex 30.384171119566947 -1.2756579394012422 0.0
  endloop
endfacet
facet normal -0.0 -1.0 -0.0
  outer loop
    vertex 29.314171119566947 -1.2756579394012422 0.0
    vertex 30.384171119566947 -1.2756579394012422 2.0
    vertex 29.314171119566947 -1.2756579394012422 2.0
  endloop
endfacet
facet normal -1.0 0.0 0.0
  outer loop
    vertex 29.314171119566947 -0.08565793940124199 2.0
    vertex 29.314171119566947 -1.2756579394012422 0.0
    vertex 29.314171119566947 -1.2756579394012422 2.0
  endloop
endfacet
facet normal -1.0 0.0 0.0
  outer loop
    vertex 29.314171119566947 -1.2756579394012422 0.0
    vertex 29.314171119566947 -0.08565793940124199 2.0
    vertex 29.314171119566947 -0.08565793940124199 0.0
  endloop
endfacet
facet normal -0.0 1.0 0.0
  outer loop
    vertex 29.314171119566947 -0.08565793940124199 2.0
    vertex 30.384171119566947 -0.08565793940124199 0.0
    vertex 29.314171119566947 -0.08565793940124199 0.0
  endloop
endfacet
facet normal -0.0 1.0 0.0
  outer loop
    vertex 30.384171119566947 -0.08565793940124199 0.0
    vertex 29.314171119566947 -0.08565793940124199 2.0
    vertex 30.384171119566947 -0.08565793940124199 2.0
  endloop
endfacet
facet normal -0.0 -0.0 1.0
  outer loop
    vertex 29.07816538031008 -3.444246282547108 2.0
    vertex 27.228165380310077 -2.6442462825471083 2.0
    vertex 27.228165380310077 -3.444246282547108 2.0
  endloop
endfacet
facet normal -0.0 -0.0 1.0
  outer loop
    vertex 27.228165380310077 -2.6442462825471083 2.0
    vertex 29.07816538031008 -3.444246282547108 2.0
    vertex 29.07816538031008 -2.6442462825471083 2.0
  endloop
endfacet
facet normal -0.0 1.0 0.0
  outer loop
    vertex 27.228165380310077 -2.6442462825471083 2.0
    vertex 29.07816538031008 -2.6442462825471083 0.0
    vertex 27.228165380310077 -2.6442462825471083 0.0
  endloop
endfacet
facet normal -0.0 1.0 0.0
  outer loop
    vertex 29.07816538031008 -2.6442462825471083 0.0
    vertex 27.228165380310077 -2.6442462825471083 2.0
    vertex 29.07816538031008 -2.6442462825471083 2.0
  endloop
endfacet
facet normal 1.0 0.0 0.0
  outer loop
    vertex 29.07816538031008 -2.6442462825471083 0.0
    vertex 29.07816538031008 -3.444246282547108 2.0
    vertex 29.07816538031008 -3.444246282547108 0.0
  endloop
endfacet
facet normal 1.0 0.0 0.0
  outer loop
    vertex 29.07816538031008 -3.444246282547108 2.0
    vertex 29.07816538031008 -2.6442462825471083 0.0
    vertex 29.07816538031008 -2.6442462825471083 2.0
  endloop
endfacet
facet normal -0.0 -1.0 -0.0
  outer loop
    vertex 29.07816538031008 -3.444246282547108 2.0
    vertex 27.228165380310077 -3.444246282547108 0.0
    vertex 29.07816538031008 -3.444246282547108 0.0
  endloop
endfacet
facet normal -0.0 -1.0 -0.0
  outer loop
    vertex 27.228165380310077 -3.444246282547108 0.0
    vertex 29.07816538031008 -3.444246282547108 2.0
    vertex 27.228165380310077 -3.444246282547108 2.0
  endloop
endfacet
facet normal -1.0 0.0 0.0
  outer loop
    vertex 27.228165380310077 -2.6442462825471083 2.0
    vertex 27.228165380310077 -3.444246282547108 0.0
    vertex 27.228165380310077 -3.444246282547108 2.0
  endloop
endfacet
facet normal -1.0 0.0 0.0
  outer loop
    vertex 27.228165380310077 -3.444246282547108 0.0
    vertex 27.228165380310077 -2.6442462825471083 2.0
    vertex 27.228165380310077 -2.6442462825471083 0.0
  endloop
endfacet
facet normal -0.0 -0.0 1.0
  outer loop
    vertex 16.675195259283118 -1.3730348105300088 2.0
    vertex 14.395195259283117 -0.5030348105300089 2.0
    vertex 14.395195259283117 -1.3730348105300088 2.0
  endloop
endfacet
facet normal -0.0 -0.0 1.0
  outer loop
    vertex 14.395195259283117 -0.5030348105300089 2.0
    vertex 16.675195259283118 -1.3730348105300088 2.0
    vertex 16.675195259283118 -0.5030348105300089 2.0
  endloop
endfacet
facet normal -1.0 0.0 0.0
  outer loop
    vertex 14.395195259283117 -0.5030348105300089 2.0
    vertex 14.395195259283117 -1.3730348105300088 0.0
    vertex 14.395195259283117 -1.3730348105300088 2.0
  endloop
endfacet
facet normal -1.0 0.0 0.0
  outer loop
    vertex 14.395195259283117 -1.3730348105300088 0.0
    vertex 14.395195259283117 -0.5030348105300089 2.0
    vertex 14.395195259283117 -0.5030348105300089 0.0
  endloop
endfacet
facet normal -0.0 1.0 0.0
  outer loop
    vertex 14.395195259283117 -0.5030348105300089 2.0
    vertex 16.675195259283118 -0.5030348105300089 0.0
    vertex 14.395195259283117 -0.5030348105300089 0.0
  endloop
endfacet
facet normal -0.0 1.0 0.0
  outer loop
    vertex 16.675195259283118 -0.5030348105300089 0.0
    vertex 14.395195259283117 -0.5030348105300089 2.0
    vertex 16.675195259283118 -0.5030348105300089 2.0
  endloop
endfacet
facet normal 1.0 0.0 0.0
  outer loop
    vertex 16.675195259283118 -0.5030348105300089 0.0
    vertex 16.675195259283118 -1.3730348105300088 2.0
    vertex 16.675195259283118 -1.3730348105300088 0.0
  endloop
endfacet
facet normal 1.0 0.0 0.0
  outer loop
    vertex 16.675195259283118 -1.3730348105300088 2.0
    vertex 16.675195259283118 -0.5030348105300089 0.0
    vertex 16.675195259283118 -0.5030348105300089 2.0
  endloop
endfacet
facet normal -0.0 -1.0 -0.0
  outer loop
    vertex 16.675195259283118 -1.3730348105300088 2.0
    vertex 14.395195259283117 -1.3730348105300088 0.0
    vertex 16.675195259283118 -1.3730348105300088 0.0
  endloop
endfacet
facet normal -0.0 -1.0 -0.0
  outer loop
    vertex 14.395195259283117 -1.3730348105300088 0.0
    vertex 16.675195259283118 -1.3730348105300088 2.0
    vertex 14.395195259283117 -1.3730348105300088 2.0
  endloop
endfacet
facet normal -0.0 -0.0 1.0
  outer loop
    vertex 20.02754677591775 -3.8358932279492546 2.0
    vertex 18.317546775917748 -3.315893227949254 2.0
    vertex 18.317546775917748 -3.8358932279492546 2.0
  endloop
endfacet
facet normal -0.0 -0.0 1.0
  outer loop
    vertex 18.317546775917748 -3.315893227949254 2.0
    vertex 20.02754677591775 -3.8358932279492546 2.0
    vertex 20.02754677591775 -3.315893227949254 2.0
  endloop
endfacet
facet normal -1.0 0.0 0.0
  outer loop
    vertex 18.317546775917748 -3.315893227949254 2.0
    vertex 18.317546775917748 -3.8358932279492546 0.0
    vertex 18.317546775917748 -3.8358932279492546 2.0
  endloop
endfacet
facet normal -1.0 0.0 0.0
  outer loop
    vertex 18.317546775917748 -3.8358932279492546 0.0
    vertex 18.317546775917748 -3.315893227949254 2.0
    vertex 18.317546775917748 -3.315893227949254 0.0
  endloop
endfacet
facet normal -0.0 1.0 0.0
  outer loop
    vertex 18.317546775917748 -3.315893227949254 2.0
    vertex 20.02754677591775 -3.315893227949254 0.0
    vertex 18.317546775917748 -3.315893227949254 0.0
  endloop
endfacet
facet normal -0.0 1.0 0.0
  outer loop
    vertex 20.02754677591775 -3.315893227949254 0.0
    vertex 18.317546775917748 -3.315893227949254 2.0
    vertex 20.02754677591775 -3.315893227949254 2.0
  endloop
endfacet
facet normal 1.0 0.0 0.0
  outer loop
    vertex 20.02754677591775 -3.315893227949254 0.0
    vertex 20.02754677591775 -3.8358932279492546 2.0
    vertex 20.02754677591775 -3.8358932279492546 0.0
  endloop
endfacet
facet normal 1.0 0.0 0.0
  outer loop
    vertex 20.02754677591775 -3.8358932279492546 2.0
    vertex 20.02754677591775 -3.315893227949254 0.0
    vertex 20.02754677591775 -3.315893227949254 2.0
  endloop
endfacet
facet normal -0.0 -1.0 -0.0
  outer loop
    vertex 20.02754677591775 -3.8358932279492546 2.0
    vertex 18.317546775917748 -3.8358932279492546 0.0
    vertex 20.02754677591775 -3.8358932279492546 0.0
  endloop
endfacet
facet normal -0.0 -1.0 -0.0
  outer loop
    vertex 18.317546775917748 -3.8358932279492546 0.0
    vertex 20.02754677591775 -3.8358932279492546 2.0
    vertex 18.317546775917748 -3.8358932279492546 2.0
  endloop
endfacet
facet normal -0.0 -0.0 1.0
  outer loop
    vertex 22.752279176890738 1.1110984874114604 2.0
    vertex 21.91227917689074 1.9510984874114596 2.0
    vertex 21.91227917689074 1.1110984874114604 2.0
  endloop
endfacet
facet normal -0.0 -0.0 1.0
  outer loop
    vertex 21.91227917689074 1.9510984874114596 2.0
    vertex 22.752279176890738 1.1110984874114604 2.0
    vertex 22.752279176890738 1.9510984874114596 2.0
  endloop
endfacet
facet normal 1.0 0.0 0.0
  outer loop
    vertex 22.752279176890738 1.9510984874114596 0.0
    vertex 22.752279176890738 1.1110984874114604 2.0
    vertex 22.752279176890738 1.1110984874114604 0.0
  endloop
endfacet
facet normal 1.0 0.0 0.0
  outer loop
    vertex 22.752279176890738 1.1110984874114604 2.0
    vertex 22.752279176890738 1.9510984874114596 0.0
    vertex 22.752279176890738 1.9510984874114596 2.0
  endloop
endfacet
facet normal -0.0 -1.0 -0.0
  outer loop
    vertex 22.752279176890738 1.1110984874114604 2.0
    vertex 21.91227917689074 1.1110984874114604 0.0
    vertex 22.752279176890738 1.1110984874114604 0.0
  endloop
endfacet
facet normal -0.0 -1.0 -0.0
  outer loop
    vertex 21.91227917689074 1.1110984874114604 0.0
    vertex 22.752279176890738 1.1110984874114604 2.0
    vertex 21.91227917689074 1.1110984874114604 2.0
  endloop
endfacet
facet normal -1.0 0.0 0.0
  outer loop
    vertex 21.91227917689074 1.9510984874114596 2.0
    vertex 21.91227917689074 1.1110984874114604 0.0
    vertex 21.91227917689074 1.1110984874114604 2.0
  endloop
endfacet
facet normal -1.0 0.0 0.0
  outer loop
    vertex 21.91227917689074 1.1110984874114604 0.0
    vertex 21.91227917689074 1.9510984874114596 2.0
    vertex 21.91227917689074 1.9510984874114596 0.0
  endloop
endfacet
facet normal -0.0 1.0 0.0
  outer loop
    vertex 21.91227917689074 1.9510984874114596 2.0
    vertex 22.752279176890738 1.9510984874114596 0.0
    vertex 21.91227917689074 1.9510984874114596 0.0
  endloop
endfacet
facet normal -0.0 1.0 0.0
  outer loop
    vertex 22.752279176890738 1.9510984874114596 0.0
    vertex 21.91227917689074 1.9510984874114596 2.0
    vertex 22.752279176890738 1.9510984874114596 2.0
  endloop
endfacet
facet normal -0.0 -0.0 1.0
  outer loop
    vertex 17.859895546477972 4.202856935483069 2.0
    vertex 17.45989554647797 4.47285693548307 2.0
    vertex 17.45989554647797 4.202856935483069 2.0
  endloop
endfacet
facet normal -0.0 -0.0 1.0
  outer loop
    vertex 17.45989554647797 4.47285693548307 2.0
    vertex 17.859895546477972 4.202856935483069 2.0
    vertex 17.859895546477972 4.47285693548307 2.0
  endloop
endfacet
facet normal 1.0 0.0 0.0
  outer loop
    vertex 17.859895546477972 4.47285693548307 0.0
    vertex 17.859895546477972 4.202856935483069 2.0
    vertex 17.859895546477972 4.202856935483069 0.0
  endloop
endfacet
facet normal 1.0 0.0 0.0
  outer loop
    vertex 17.859895546477972 4.202856935483069 2.0
    vertex 17.859895546477972 4.47285693548307 0.0
    vertex 17.859895546477972 4.47285693548307 2.0
  endloop
endfacet
facet normal -0.0 -1.0 -0.0
  outer loop
    vertex 17.859895546477972 4.202856935483069 2.0
    vertex 17.45989554647797 4.202856935483069 0.0
    vertex 17.859895546477972 4.202856935483069 0.0
  endloop
endfacet
facet normal -0.0 -1.0 -0.0
  outer loop
    vertex 17.45989554647797 4.202856935483069 0.0
    vertex 17.859895546477972 4.202856935483069 2.0
    vertex 17.45989554647797 4.202856935483069 2.0
  endloop
endfacet
facet normal -1.0 0.0 0.0
  outer loop
    vertex 17.45989554647797 4.47285693548307 2.0
    vertex 17.45989554647797 4.202856935483069 0.0
    vertex 17.45989554647797 4.202856935483069 2.0
  endloop
endfacet
facet normal -1.0 0.0 0.0
  outer loop
    vertex 17.45989554647797 4.202856935483069 0.0
    vertex 17.45989554647797 4.47285693548307 2.0
    vertex 17.45989554647797 4.47285693548307 0.0
  endloop
endfacet
facet normal -0.0 1.0 0.0
  outer loop
    vertex 17.45989554647797 4.47285693548307 2.0
    vertex 17.859895546477972 4.47285693548307 0.0
    vertex 17.45989554647797 4.47285693548307 0.0
  endloop
endfacet
facet normal -0.0 1.0 0.0
  outer loop
    vertex 17.859895546477972 4.47285693548307 0.0
    vertex 17.45989554647797 4.47285693548307 2.0
    vertex 17.859895546477972 4.47285693548307 2.0
  endloop
endfacet
endsolid iros2017_corridor
