solid collision
facet normal 0.0 0.0 -1.0
  outer loop
    vertex 6.997368421052631 0.10000000000000019 0.0
    vertex 4.0 0.0 0.0
    vertex 4.0 0.10000000000000002 0.0
  endloop
endfacet
facet normal 0.0 0.0 -1.0
  outer loop
    vertex 4.0 0.0 0.0
    vertex 6.997368421052631 0.10000000000000019 0.0
    vertex 6.999999999999999 0.0 0.0
  endloop
endfacet
facet normal -0.0 -0.0 1.0
  outer loop
    vertex 0.0 0.0 3.0
    vertex 0.09999999999999999 0.1 3.0
    vertex 0.0 2.0 3.0
  endloop
endfacet
facet normal -0.0 -0.0 1.0
  outer loop
    vertex 0.09999999999999999 0.1 3.0
    vertex 0.0 0.0 3.0
    vertex 10.0 0.0 3.0
  endloop
endfacet
facet normal -0.0 -0.0 1.0
  outer loop
    vertex 0.09999999999999999 0.1 3.0
    vertex 10.0 0.0 3.0
    vertex 3.8 0.1 3.0
  endloop
endfacet
facet normal -0.0 -0.0 1.0
  outer loop
    vertex 3.8 0.1 3.0
    vertex 10.0 0.0 3.0
    vertex 4.0 0.10000000000000002 3.0
  endloop
endfacet
facet normal -0.0 -0.0 1.0
  outer loop
    vertex 4.0 0.10000000000000002 3.0
    vertex 10.0 0.0 3.0
    vertex 9.9 0.1 3.0
  endloop
endfacet
facet normal -0.0 -0.0 1.0
  outer loop
    vertex 9.9 0.1 3.0
    vertex 10.0 0.0 3.0
    vertex 9.9 1.9 3.0
  endloop
endfacet
facet normal -0.0 -0.0 1.0
  outer loop
    vertex 0.0 2.0 3.0
    vertex 0.1 1.9 3.0
    vertex 10.0 2.0 3.0
  endloop
endfacet
facet normal -0.0 -0.0 1.0
  outer loop
    vertex 0.1 1.9 3.0
    vertex 0.0 2.0 3.0
    vertex 0.09999999999999999 0.1 3.0
  endloop
endfacet
facet normal -0.0 -0.0 1.0
  outer loop
    vertex 10.0 2.0 3.0
    vertex 0.1 1.9 3.0
    vertex 9.9 1.9 3.0
  endloop
endfacet
facet normal -0.0 -0.0 1.0
  outer loop
    vertex 10.0 2.0 3.0
    vertex 9.9 1.9 3.0
    vertex 10.0 0.0 3.0
  endloop
endfacet
facet normal 1.0 0.0 0.0
  outer loop
    vertex 10.0 2.0 0.0
    vertex 10.0 0.0 3.0
    vertex 10.0 0.0 0.0
  endloop
endfacet
facet normal 1.0 0.0 0.0
  outer loop
    vertex 10.0 0.0 3.0
    vertex 10.0 2.0 0.0
    vertex 10.0 2.0 3.0
  endloop
endfacet
facet normal 0.0 -1.0 0.0
  outer loop
    vertex 10.0 0.0 3.0
    vertex 6.999999999999999 0.0 0.0
    vertex 10.0 0.0 0.0
  endloop
endfacet
facet normal 0.0 -1.0 0.0
  outer loop
    vertex 6.999999999999999 0.0 0.0
    vertex 10.0 0.0 3.0
    vertex 4.0 0.0 0.0
  endloop
endfacet
facet normal 0.0 -1.0 0.0
  outer loop
    vertex 4.0 0.0 0.0
    vertex 10.0 0.0 3.0
    vertex 3.8 0.0 0.0
  endloop
endfacet
facet normal 0.0 -1.0 0.0
  outer loop
    vertex 3.8 0.0 0.0
    vertex 10.0 0.0 3.0
    vertex 0.0 0.0 0.0
  endloop
endfacet
facet normal 0.0 -1.0 0.0
  outer loop
    vertex 0.0 0.0 0.0
    vertex 10.0 0.0 3.0
    vertex 0.0 0.0 3.0
  endloop
endfacet
facet normal -1.0 0.0 0.0
  outer loop
    vertex 0.0 2.0 3.0
    vertex 0.0 0.0 0.0
    vertex 0.0 0.0 3.0
  endloop
endfacet
facet normal -1.0 0.0 0.0
  outer loop
    vertex 0.0 0.0 0.0
    vertex 0.0 2.0 3.0
    vertex 0.0 2.0 0.0
  endloop
endfacet
facet normal -0.0 0.9999999999999999 0.0
  outer loop
    vertex 0.0 2.0 3.0
    vertex 10.0 2.0 0.0
    vertex 0.0 2.0 0.0
  endloop
endfacet
facet normal -0.0 0.9999999999999999 0.0
  outer loop
    vertex 10.0 2.0 0.0
    vertex 0.0 2.0 3.0
    vertex 10.0 2.0 3.0
  endloop
endfacet
facet normal 0.0 -1.0 0.0
  outer loop
    vertex 9.9 1.9 3.0
    vertex 7.1499999999999995 1.9 0.0
    vertex 9.9 1.9 0.0
  endloop
endfacet
facet normal 0.0 -1.0 0.0
  outer loop
    vertex 7.1499999999999995 1.9 0.0
    vertex 9.9 1.9 3.0
    vertex 7.1499999999999995 1.9 1.0
  endloop
endfacet
facet normal 0.0 -1.0 0.0
  outer loop
    vertex 7.1499999999999995 1.9 1.0
    vertex 9.9 1.9 3.0
    vertex 6.949999999999999 1.9 1.0
  endloop
endfacet
facet normal 0.0 -1.0 0.0
  outer loop
    vertex 6.949999999999999 1.9 1.0
    vertex 0.1 1.9 0.0
    vertex 6.949999999999999 1.9 0.0
  endloop
endfacet
facet normal 0.0 -1.0 0.0
  outer loop
    vertex 0.1 1.9 0.0
    vertex 6.949999999999999 1.9 1.0
    vertex 0.1 1.9 3.0
  endloop
endfacet
facet normal 0.0 -1.0 0.0
  outer loop
    vertex 0.1 1.9 3.0
    vertex 6.949999999999999 1.9 1.0
    vertex 9.9 1.9 3.0
  endloop
endfacet
facet normal 1.0 -1.2533184366879545e-17 0.0
  outer loop
    vertex 0.1 1.9 0.0
    vertex 0.09999999999999999 0.1 3.0
    vertex 0.09999999999999999 0.1 0.0
  endloop
endfacet
facet normal 1.0 -1.2533184366879545e-17 0.0
  outer loop
    vertex 0.09999999999999999 0.1 3.0
    vertex 0.1 1.9 0.0
    vertex 0.1 1.9 3.0
  endloop
endfacet
facet normal 1.0611934592031977e-18 1.0 3.1242629840254666e-17
  outer loop
    vertex 4.0 0.10000000000000002 3.0
    vertex 6.997368421052631 0.10000000000000019 0.0
    vertex 4.0 0.10000000000000002 0.0
  endloop
endfacet
facet normal 1.0611934592031977e-18 1.0 3.1242629840254666e-17
  outer loop
    vertex 6.997368421052631 0.10000000000000019 0.0
    vertex 4.0 0.10000000000000002 3.0
    vertex 6.997368421052631 0.10000000000000019 1.0
  endloop
endfacet
facet normal 1.0611934592031977e-18 1.0 3.1242629840254666e-17
  outer loop
    vertex 6.997368421052631 0.10000000000000019 1.0
    vertex 4.0 0.10000000000000002 3.0
    vertex 7.1499999999999995 0.10000000000000017 1.0
  endloop
endfacet
facet normal 1.0611934592031977e-18 1.0 3.1242629840254666e-17
  outer loop
    vertex 7.1499999999999995 0.10000000000000017 1.0
    vertex 4.0 0.10000000000000002 3.0
    vertex 7.197368421052631 0.10000000000000017 1.0
  endloop
endfacet
facet normal 1.0611934592031977e-18 1.0 3.1242629840254666e-17
  outer loop
    vertex 7.197368421052631 0.10000000000000017 1.0
    vertex 9.9 0.1 0.0
    vertex 7.197368421052631 0.10000000000000017 0.0
  endloop
endfacet
facet normal 1.0611934592031977e-18 1.0 3.1242629840254666e-17
  outer loop
    vertex 9.9 0.1 0.0
    vertex 7.197368421052631 0.10000000000000017 1.0
    vertex 9.9 0.1 3.0
  endloop
endfacet
facet normal 1.0611934592031977e-18 1.0 3.1242629840254666e-17
  outer loop
    vertex 9.9 0.1 3.0
    vertex 7.197368421052631 0.10000000000000017 1.0
    vertex 4.0 0.10000000000000002 3.0
  endloop
endfacet
facet normal -1.0 0.0 0.0
  outer loop
    vertex 9.9 1.9 3.0
    vertex 9.9 0.1 0.0
    vertex 9.9 0.1 3.0
  endloop
endfacet
facet normal -1.0 0.0 0.0
  outer loop
    vertex 9.9 0.1 0.0
    vertex 9.9 1.9 3.0
    vertex 9.9 1.9 0.0
  endloop
endfacet
facet normal 0.0 0.0 -1.0
  outer loop
    vertex 6.949999999999999 1.9 0.0
    vertex 3.8 0.8 0.0
    vertex 0.1 1.9 0.0
  endloop
endfacet
facet normal 0.0 0.0 -1.0
  outer loop
    vertex 3.8 0.8 0.0
    vertex 6.949999999999999 1.9 0.0
    vertex 4.0 0.8 0.0
  endloop
endfacet
facet normal 0.0 0.0 -1.0
  outer loop
    vertex 4.0 0.8 0.0
    vertex 6.949999999999999 1.9 0.0
    vertex 4.0 0.10000000000000002 0.0
  endloop
endfacet
facet normal 0.0 0.0 -1.0
  outer loop
    vertex 4.0 0.10000000000000002 0.0
    vertex 6.949999999999999 1.9 0.0
    vertex 6.997368421052631 0.10000000000000019 0.0
  endloop
endfacet
facet normal 0.0 0.0 -1.0
  outer loop
    vertex 0.1 1.9 0.0
    vertex 3.8 0.1 0.0
    vertex 0.09999999999999999 0.1 0.0
  endloop
endfacet
facet normal 0.0 0.0 -1.0
  outer loop
    vertex 3.8 0.1 0.0
    vertex 0.1 1.9 0.0
    vertex 3.8 0.8 0.0
  endloop
endfacet
facet normal 0.0 0.0 -1.0
  outer loop
    vertex 4.0 0.10000000000000002 0.0
    vertex 3.8 0.0 0.0
    vertex 3.8 0.1 0.0
  endloop
endfacet
facet normal 0.0 0.0 -1.0
  outer loop
    vertex 3.8 0.0 0.0
    vertex 4.0 0.10000000000000002 0.0
    vertex 4.0 0.0 0.0
  endloop
endfacet
facet normal 0.0 0.0 -1.0
  outer loop
    vertex 4.0 0.8 3.0
    vertex 3.8 0.1 3.0
    vertex 3.8 0.8 3.0
  endloop
endfacet
facet normal 0.0 0.0 -1.0
  outer loop
    vertex 3.8 0.1 3.0
    vertex 4.0 0.8 3.0
    vertex 4.0 0.10000000000000002 3.0
  endloop
endfacet
facet normal 1.0 -0.0 -0.0
  outer loop
    vertex 3.8 0.8 0.0
    vertex 3.8 0.1 3.0
    vertex 3.8 0.1 0.0
  endloop
endfacet
facet normal 1.0 -0.0 -0.0
  outer loop
    vertex 3.8 0.1 3.0
    vertex 3.8 0.8 0.0
    vertex 3.8 0.8 3.0
  endloop
endfacet
facet normal 0.0 -1.0 0.0
  outer loop
    vertex 4.0 0.8 3.0
    vertex 3.8 0.8 0.0
    vertex 4.0 0.8 0.0
  endloop
endfacet
facet normal 0.0 -1.0 0.0
  outer loop
    vertex 3.8 0.8 0.0
    vertex 4.0 0.8 3.0
    vertex 3.8 0.8 3.0
  endloop
endfacet
facet normal -1.0 0.0 0.0
  outer loop
    vertex 4.0 0.8 3.0
    vertex 4.0 0.10000000000000002 0.0
    vertex 4.0 0.10000000000000002 3.0
  endloop
endfacet
facet normal -1.0 0.0 0.0
  outer loop
    vertex 4.0 0.10000000000000002 0.0
    vertex 4.0 0.8 3.0
    vertex 4.0 0.8 0.0
  endloop
endfacet
facet normal -1.127986593019159e-16 1.0 -0.0
  outer loop
    vertex 3.8 0.1 3.0
    vertex 4.0 0.10000000000000002 0.0
    vertex 3.8 0.1 0.0
  endloop
endfacet
facet normal -1.127986593019159e-16 1.0 -0.0
  outer loop
    vertex 4.0 0.10000000000000002 0.0
    vertex 3.8 0.1 3.0
    vertex 4.0 0.10000000000000002 3.0
  endloop
endfacet
facet normal 3.0486124135652954e-18 1.0 -0.0
  outer loop
    vertex 0.09999999999999999 0.1 3.0
    vertex 3.8 0.1 0.0
    vertex 0.09999999999999999 0.1 0.0
  endloop
endfacet
facet normal 3.0486124135652954e-18 1.0 -0.0
  outer loop
    vertex 3.8 0.1 0.0
    vertex 0.09999999999999999 0.1 3.0
    vertex 3.8 0.1 3.0
  endloop
endfacet
facet normal 0.0 0.0 -1.0
  outer loop
    vertex 0.0 2.0 0.0
    vertex 0.1 1.9 0.0
    vertex 0.0 0.0 0.0
  endloop
endfacet
facet normal 0.0 0.0 -1.0
  outer loop
    vertex 0.1 1.9 0.0
    vertex 0.0 2.0 0.0
    vertex 10.0 2.0 0.0
  endloop
endfacet
facet normal 0.0 0.0 -1.0
  outer loop
    vertex 0.0 0.0 0.0
    vertex 0.1 1.9 0.0
    vertex 0.09999999999999999 0.1 0.0
  endloop
endfacet
facet normal 0.0 0.0 -1.0
  outer loop
    vertex 0.1 1.9 0.0
    vertex 10.0 2.0 0.0
    vertex 6.949999999999999 1.9 0.0
  endloop
endfacet
facet normal 0.0 0.0 -1.0
  outer loop
    vertex 6.949999999999999 1.9 0.0
    vertex 10.0 2.0 0.0
    vertex 7.1499999999999995 1.9 0.0
  endloop
endfacet
facet normal 0.0 0.0 -1.0
  outer loop
    vertex 7.1499999999999995 1.9 0.0
    vertex 10.0 2.0 0.0
    vertex 9.9 1.9 0.0
  endloop
endfacet
facet normal 0.0 0.0 -1.0
  outer loop
    vertex 9.9 1.9 0.0
    vertex 10.0 2.0 0.0
    vertex 9.9 0.1 0.0
  endloop
endfacet
facet normal 0.0 0.0 -1.0
  outer loop
    vertex 7.1499999999999995 0.10000000000000017 0.0
    vertex 6.999999999999999 0.0 0.0
    vertex 6.997368421052631 0.10000000000000019 0.0
  endloop
endfacet
facet normal 0.0 0.0 -1.0
  outer loop
    vertex 6.999999999999999 0.0 0.0
    vertex 7.1499999999999995 0.10000000000000017 0.0
    vertex 10.0 0.0 0.0
  endloop
endfacet
facet normal 0.0 0.0 -1.0
  outer loop
    vertex 10.0 0.0 0.0
    vertex 7.1499999999999995 0.10000000000000017 0.0
    vertex 7.197368421052631 0.10000000000000017 0.0
  endloop
endfacet
facet normal 0.0 0.0 -1.0
  outer loop
    vertex 10.0 0.0 0.0
    vertex 7.197368421052631 0.10000000000000017 0.0
    vertex 9.9 0.1 0.0
  endloop
endfacet
facet normal 0.0 0.0 -1.0
  outer loop
    vertex 10.0 0.0 0.0
    vertex 9.9 0.1 0.0
    vertex 10.0 2.0 0.0
  endloop
endfacet
facet normal 0.0 0.0 -1.0
  outer loop
    vertex 0.09999999999999999 0.1 0.0
    vertex 3.8 0.0 0.0
    vertex 0.0 0.0 0.0
  endloop
endfacet
facet normal 0.0 0.0 -1.0
  outer loop
    vertex 3.8 0.0 0.0
    vertex 0.09999999999999999 0.1 0.0
    vertex 3.8 0.1 0.0
  endloop
endfacet
facet normal 0.0 0.0 -1.0
  outer loop
    vertex 9.9 1.9 0.0
    vertex 7.197368421052631 0.10000000000000017 0.0
    vertex 7.1499999999999995 1.9 0.0
  endloop
endfacet
facet normal 0.0 0.0 -1.0
  outer loop
    vertex 7.197368421052631 0.10000000000000017 0.0
    vertex 9.9 1.9 0.0
    vertex 9.9 0.1 0.0
  endloop
endfacet
facet normal 0.0 0.0 -1.0
  outer loop
    vertex 7.1499999999999995 1.9 1.0
    vertex 6.997368421052631 0.10000000000000019 1.0
    vertex 6.949999999999999 1.9 1.0
  endloop
endfacet
facet normal 0.0 0.0 -1.0
  outer loop
    vertex 6.997368421052631 0.10000000000000019 1.0
    vertex 7.1499999999999995 1.9 1.0
    vertex 7.1499999999999995 0.10000000000000017 1.0
  endloop
endfacet
facet normal 0.0 0.0 -1.0
  outer loop
    vertex 7.1499999999999995 0.10000000000000017 1.0
    vertex 7.1499999999999995 1.9 1.0
    vertex 7.197368421052631 0.10000000000000017 1.0
  endloop
endfacet
facet normal 0.0 -0.9999999999999999 -0.0
  outer loop
    vertex 7.1499999999999995 1.9 1.0
    vertex 6.949999999999999 1.9 0.0
    vertex 7.1499999999999995 1.9 0.0
  endloop
endfacet
facet normal 0.0 -0.9999999999999999 -0.0
  outer loop
    vertex 6.949999999999999 1.9 0.0
    vertex 7.1499999999999995 1.9 1.0
    vertex 6.949999999999999 1.9 1.0
  endloop
endfacet
facet normal -0.9996539193528471 -0.026306682088232742 -0.0
  outer loop
    vertex 7.1499999999999995 1.9 1.0
    vertex 7.197368421052631 0.10000000000000017 0.0
    vertex 7.197368421052631 0.10000000000000017 1.0
  endloop
endfacet
facet normal -0.9996539193528471 -0.026306682088232742 -0.0
  outer loop
    vertex 7.197368421052631 0.10000000000000017 0.0
    vertex 7.1499999999999995 1.9 1.0
    vertex 7.1499999999999995 1.9 0.0
  endloop
endfacet
facet normal 0.0 1.0 0.0
  outer loop
    vertex 7.1499999999999995 0.10000000000000017 1.0
    vertex 7.197368421052631 0.10000000000000017 0.0
    vertex 7.1499999999999995 0.10000000000000017 0.0
  endloop
endfacet
facet normal 0.0 1.0 0.0
  outer loop
    vertex 7.197368421052631 0.10000000000000017 0.0
    vertex 7.1499999999999995 0.10000000000000017 1.0
    vertex 7.197368421052631 0.10000000000000017 1.0
  endloop
endfacet
facet normal 7.390256988746173e-17 1.0 0.0
  outer loop
    vertex 6.997368421052631 0.10000000000000019 1.0
    vertex 7.1499999999999995 0.10000000000000017 0.0
    vertex 6.997368421052631 0.10000000000000019 0.0
  endloop
endfacet
facet normal 7.390256988746173e-17 1.0 0.0
  outer loop
    vertex 7.1499999999999995 0.10000000000000017 0.0
    vertex 6.997368421052631 0.10000000000000019 1.0
    vertex 7.1499999999999995 0.10000000000000017 1.0
  endloop
endfacet
facet normal 0.9996539193528471 0.026306682088232742 0.0
  outer loop
    vertex 6.949999999999999 1.9 0.0
    vertex 6.997368421052631 0.10000000000000019 1.0
    vertex 6.997368421052631 0.10000000000000019 0.0
  endloop
endfacet
facet normal 0.9996539193528471 0.026306682088232742 0.0
  outer loop
    vertex 6.997368421052631 0.10000000000000019 1.0
    vertex 6.949999999999999 1.9 0.0
    vertex 6.949999999999999 1.9 1.0
  endloop
endfacet
endsolid collision
