solid corridor_0
facet normal 0.0 0.0 -1.0
  outer loop
    vertex -1.0 10.0 0.0
    vertex -0.8 9.799999999999999 0.0
    vertex -1.0 0.0 0.0
  endloop
endfacet
facet normal 0.0 0.0 -1.0
  outer loop
    vertex -0.8 9.799999999999999 0.0
    vertex -1.0 10.0 0.0
    vertex 41.0 10.0 0.0
  endloop
endfacet
facet normal 0.0 0.0 -1.0
  outer loop
    vertex -0.8 9.799999999999999 0.0
    vertex 41.0 10.0 0.0
    vertex 40.8 9.799999999999999 0.0
  endloop
endfacet
facet normal 0.0 0.0 -1.0
  outer loop
    vertex 40.8 9.799999999999999 0.0
    vertex 41.0 10.0 0.0
    vertex 40.8 0.19999999999999998 0.0
  endloop
endfacet
facet normal 0.0 0.0 -1.0
  outer loop
    vertex -1.0 0.0 0.0
    vertex -0.8 0.2 0.0
    vertex 41.0 0.0 0.0
  endloop
endfacet
facet normal 0.0 0.0 -1.0
  outer loop
    vertex -0.8 0.2 0.0
    vertex -1.0 0.0 0.0
    vertex -0.8 9.799999999999999 0.0
  endloop
endfacet
facet normal 0.0 0.0 -1.0
  outer loop
    vertex 41.0 0.0 0.0
    vertex -0.8 0.2 0.0
    vertex 40.8 0.19999999999999998 0.0
  endloop
endfacet
facet normal 0.0 0.0 -1.0
  outer loop
    vertex 41.0 0.0 0.0
    vertex 40.8 0.19999999999999998 0.0
    vertex 41.0 10.0 0.0
  endloop
endfacet
facet normal 0.0 0.0 -1.0
  outer loop
    vertex -0.8 9.799999999999999 0.0
    vertex -0.49999999999999956 5.0 0.0
    vertex -0.8 0.2 0.0
  endloop
endfacet
facet normal 0.0 0.0 -1.0
  outer loop
    vertex -0.49999999999999956 5.0 0.0
    vertex -0.8 9.799999999999999 0.0
    vertex -0.48296291314453366 5.129409522551261 0.0
  endloop
endfacet
facet normal 0.0 0.0 -1.0
  outer loop
    vertex -0.48296291314453366 5.129409522551261 0.0
    vertex -0.8 9.799999999999999 0.0
    vertex -0.43301270189221885 5.25 0.0
  endloop
endfacet
facet normal 0.0 0.0 -1.0
  outer loop
    vertex -0.43301270189221885 5.25 0.0
    vertex -0.8 9.799999999999999 0.0
    vertex -0.3535533905932734 5.353553390593273 0.0
  endloop
endfacet
facet normal 0.0 0.0 -1.0
  outer loop
    vertex -0.3535533905932734 5.353553390593273 0.0
    vertex -0.8 9.799999999999999 0.0
    vertex -0.2499999999999997 5.433012701892219 0.0
  endloop
endfacet
facet normal 0.0 0.0 -1.0
  outer loop
    vertex -0.2499999999999997 5.433012701892219 0.0
    vertex -0.8 9.799999999999999 0.0
    vertex -0.1294095225512602 5.482962913144534 0.0
  endloop
endfacet
facet normal 0.0 0.0 -1.0
  outer loop
    vertex -0.1294095225512602 5.482962913144534 0.0
    vertex -0.8 9.799999999999999 0.0
    vertex 9.023892744153272e-17 5.5 0.0
  endloop
endfacet
facet normal 0.0 0.0 -1.0
  outer loop
    vertex 9.023892744153272e-17 5.5 0.0
    vertex -0.8 9.799999999999999 0.0
    vertex 40.8 9.799999999999999 0.0
  endloop
endfacet
facet normal 0.0 0.0 -1.0
  outer loop
    vertex 9.023892744153272e-17 5.5 0.0
    vertex 40.8 9.799999999999999 0.0
    vertex 0.12940952255126076 5.482962913144534 0.0
  endloop
endfacet
facet normal 0.0 0.0 -1.0
  outer loop
    vertex 0.12940952255126076 5.482962913144534 0.0
    vertex 40.8 9.799999999999999 0.0
    vertex 0.2500000000000001 5.433012701892219 0.0
  endloop
endfacet
facet normal 0.0 0.0 -1.0
  outer loop
    vertex 0.2500000000000001 5.433012701892219 0.0
    vertex 40.8 9.799999999999999 0.0
    vertex 0.3535533905932737 5.353553390593273 0.0
  endloop
endfacet
facet normal 0.0 0.0 -1.0
  outer loop
    vertex 0.3535533905932737 5.353553390593273 0.0
    vertex 40.8 9.799999999999999 0.0
    vertex 0.4330127018922193 5.249999999999999 0.0
  endloop
endfacet
facet normal 0.0 0.0 -1.0
  outer loop
    vertex 0.4330127018922193 5.249999999999999 0.0
    vertex 40.8 9.799999999999999 0.0
    vertex 0.48296291314453393 5.12940952255126 0.0
  endloop
endfacet
facet normal 0.0 0.0 -1.0
  outer loop
    vertex 0.48296291314453393 5.12940952255126 0.0
    vertex 40.8 9.799999999999999 0.0
    vertex 0.4999999999999997 5.0 0.0
  endloop
endfacet
facet normal 0.0 0.0 -1.0
  outer loop
    vertex 0.4999999999999997 5.0 0.0
    vertex 40.8 9.799999999999999 0.0
    vertex 39.51703708685547 5.129409522551261 0.0
  endloop
endfacet
facet normal 0.0 0.0 -1.0
  outer loop
    vertex 0.4999999999999997 5.0 0.0
    vertex 39.51703708685547 5.129409522551261 0.0
    vertex 39.5 5.0 0.0
  endloop
endfacet
facet normal 0.0 0.0 -1.0
  outer loop
    vertex 39.51703708685547 5.129409522551261 0.0
    vertex 40.8 9.799999999999999 0.0
    vertex 39.56698729810778 5.25 0.0
  endloop
endfacet
facet normal 0.0 0.0 -1.0
  outer loop
    vertex 39.56698729810778 5.25 0.0
    vertex 40.8 9.799999999999999 0.0
    vertex 39.64644660940672 5.353553390593273 0.0
  endloop
endfacet
facet normal 0.0 0.0 -1.0
  outer loop
    vertex 39.64644660940672 5.353553390593273 0.0
    vertex 40.8 9.799999999999999 0.0
    vertex 39.75 5.433012701892219 0.0
  endloop
endfacet
facet normal 0.0 0.0 -1.0
  outer loop
    vertex 39.75 5.433012701892219 0.0
    vertex 40.8 9.799999999999999 0.0
    vertex 39.87059047744874 5.482962913144534 0.0
  endloop
endfacet
facet normal 0.0 0.0 -1.0
  outer loop
    vertex 39.87059047744874 5.482962913144534 0.0
    vertex 40.8 9.799999999999999 0.0
    vertex 40.0 5.5 0.0
  endloop
endfacet
facet normal 0.0 0.0 -1.0
  outer loop
    vertex 40.0 5.5 0.0
    vertex 40.8 9.799999999999999 0.0
    vertex 40.12940952255126 5.482962913144534 0.0
  endloop
endfacet
facet normal 0.0 0.0 -1.0
  outer loop
    vertex 40.12940952255126 5.482962913144534 0.0
    vertex 40.8 9.799999999999999 0.0
    vertex 40.25 5.433012701892219 0.0
  endloop
endfacet
facet normal 0.0 0.0 -1.0
  outer loop
    vertex 40.25 5.433012701892219 0.0
    vertex 40.8 9.799999999999999 0.0
    vertex 40.35355339059328 5.353553390593273 0.0
  endloop
endfacet
facet normal 0.0 0.0 -1.0
  outer loop
    vertex 40.35355339059328 5.353553390593273 0.0
    vertex 40.8 9.799999999999999 0.0
    vertex 40.43301270189222 5.249999999999999 0.0
  endloop
endfacet
facet normal 0.0 0.0 -1.0
  outer loop
    vertex 40.43301270189222 5.249999999999999 0.0
    vertex 40.8 9.799999999999999 0.0
    vertex 40.48296291314453 5.12940952255126 0.0
  endloop
endfacet
facet normal 0.0 0.0 -1.0
  outer loop
    vertex 40.48296291314453 5.12940952255126 0.0
    vertex 40.8 9.799999999999999 0.0
    vertex 40.5 5.0 0.0
  endloop
endfacet
facet normal 0.0 0.0 -1.0
  outer loop
    vertex -0.8 0.2 0.0
    vertex 2.900658748416511e-17 4.5 0.0
    vertex 40.8 0.19999999999999998 0.0
  endloop
endfacet
facet normal 0.0 0.0 -1.0
  outer loop
    vertex 2.900658748416511e-17 4.5 0.0
    vertex -0.8 0.2 0.0
    vertex -0.12940952255126031 4.517037086855466 0.0
  endloop
endfacet
facet normal 0.0 0.0 -1.0
  outer loop
    vertex -0.12940952255126031 4.517037086855466 0.0
    vertex -0.8 0.2 0.0
    vertex -0.24999999999999992 4.566987298107781 0.0
  endloop
endfacet
facet normal 0.0 0.0 -1.0
  outer loop
    vertex -0.24999999999999992 4.566987298107781 0.0
    vertex -0.8 0.2 0.0
    vertex -0.35355339059327345 4.646446609406727 0.0
  endloop
endfacet
facet normal 0.0 0.0 -1.0
  outer loop
    vertex -0.35355339059327345 4.646446609406727 0.0
    vertex -0.8 0.2 0.0
    vertex -0.433012701892219 4.750000000000001 0.0
  endloop
endfacet
facet normal 0.0 0.0 -1.0
  outer loop
    vertex -0.433012701892219 4.750000000000001 0.0
    vertex -0.8 0.2 0.0
    vertex -0.4829629131445337 4.870590477448739 0.0
  endloop
endfacet
facet normal 0.0 0.0 -1.0
  outer loop
    vertex -0.4829629131445337 4.870590477448739 0.0
    vertex -0.8 0.2 0.0
    vertex -0.49999999999999956 5.0 0.0
  endloop
endfacet
facet normal 0.0 0.0 -1.0
  outer loop
    vertex 40.8 0.19999999999999998 0.0
    vertex 2.900658748416511e-17 4.5 0.0
    vertex 0.12940952255126018 4.517037086855466 0.0
  endloop
endfacet
facet normal 0.0 0.0 -1.0
  outer loop
    vertex 40.8 0.19999999999999998 0.0
    vertex 0.12940952255126018 4.517037086855466 0.0
    vertex 0.2499999999999998 4.56698729810778 0.0
  endloop
endfacet
facet normal 0.0 0.0 -1.0
  outer loop
    vertex 40.8 0.19999999999999998 0.0
    vertex 0.2499999999999998 4.56698729810778 0.0
    vertex 0.3535533905932734 4.646446609406727 0.0
  endloop
endfacet
facet normal 0.0 0.0 -1.0
  outer loop
    vertex 40.8 0.19999999999999998 0.0
    vertex 0.3535533905932734 4.646446609406727 0.0
    vertex 0.4330127018922189 4.75 0.0
  endloop
endfacet
facet normal 0.0 0.0 -1.0
  outer loop
    vertex 40.8 0.19999999999999998 0.0
    vertex 0.4330127018922189 4.75 0.0
    vertex 0.4829629131445338 4.870590477448739 0.0
  endloop
endfacet
facet normal 0.0 0.0 -1.0
  outer loop
    vertex 40.8 0.19999999999999998 0.0
    vertex 0.4829629131445338 4.870590477448739 0.0
    vertex 0.4999999999999997 5.0 0.0
  endloop
endfacet
facet normal 0.0 0.0 -1.0
  outer loop
    vertex 40.8 0.19999999999999998 0.0
    vertex 0.4999999999999997 5.0 0.0
    vertex 39.51703708685547 4.870590477448739 0.0
  endloop
endfacet
facet normal 0.0 0.0 -1.0
  outer loop
    vertex 39.51703708685547 4.870590477448739 0.0
    vertex 0.4999999999999997 5.0 0.0
    vertex 39.5 5.0 0.0
  endloop
endfacet
facet normal 0.0 0.0 -1.0
  outer loop
    vertex 40.8 0.19999999999999998 0.0
    vertex 39.51703708685547 4.870590477448739 0.0
    vertex 39.56698729810778 4.750000000000001 0.0
  endloop
endfacet
facet normal 0.0 0.0 -1.0
  outer loop
    vertex 40.8 0.19999999999999998 0.0
    vertex 39.56698729810778 4.750000000000001 0.0
    vertex 39.64644660940672 4.646446609406727 0.0
  endloop
endfacet
facet normal 0.0 0.0 -1.0
  outer loop
    vertex 40.8 0.19999999999999998 0.0
    vertex 39.64644660940672 4.646446609406727 0.0
    vertex 39.75 4.566987298107781 0.0
  endloop
endfacet
facet normal 0.0 0.0 -1.0
  outer loop
    vertex 40.8 0.19999999999999998 0.0
    vertex 39.75 4.566987298107781 0.0
    vertex 39.87059047744874 4.517037086855466 0.0
  endloop
endfacet
facet normal 0.0 0.0 -1.0
  outer loop
    vertex 40.8 0.19999999999999998 0.0
    vertex 39.87059047744874 4.517037086855466 0.0
    vertex 40.0 4.5 0.0
  endloop
endfacet
facet normal 0.0 0.0 -1.0
  outer loop
    vertex 40.8 0.19999999999999998 0.0
    vertex 40.0 4.5 0.0
    vertex 40.12940952255126 4.517037086855466 0.0
  endloop
endfacet
facet normal 0.0 0.0 -1.0
  outer loop
    vertex 40.8 0.19999999999999998 0.0
    vertex 40.12940952255126 4.517037086855466 0.0
    vertex 40.25 4.56698729810778 0.0
  endloop
endfacet
facet normal 0.0 0.0 -1.0
  outer loop
    vertex 40.8 0.19999999999999998 0.0
    vertex 40.25 4.56698729810778 0.0
    vertex 40.35355339059328 4.646446609406727 0.0
  endloop
endfacet
facet normal 0.0 0.0 -1.0
  outer loop
    vertex 40.8 0.19999999999999998 0.0
    vertex 40.35355339059328 4.646446609406727 0.0
    vertex 40.43301270189222 4.75 0.0
  endloop
endfacet
facet normal 0.0 0.0 -1.0
  outer loop
    vertex 40.8 0.19999999999999998 0.0
    vertex 40.43301270189222 4.75 0.0
    vertex 40.48296291314453 4.870590477448739 0.0
  endloop
endfacet
facet normal 0.0 0.0 -1.0
  outer loop
    vertex 40.8 0.19999999999999998 0.0
    vertex 40.48296291314453 4.870590477448739 0.0
    vertex 40.5 5.0 0.0
  endloop
endfacet
facet normal 0.0 0.0 -1.0
  outer loop
    vertex 40.8 0.19999999999999998 0.0
    vertex 40.5 5.0 0.0
    vertex 40.8 9.799999999999999 0.0
  endloop
endfacet
facet normal -0.0 -0.0 1.0
  outer loop
    vertex -1.0 0.0 4.0
    vertex -0.8 0.2 4.0
    vertex -1.0 10.0 4.0
  endloop
endfacet
facet normal -0.0 -0.0 1.0
  outer loop
    vertex -0.8 0.2 4.0
    vertex -1.0 0.0 4.0
    vertex 41.0 0.0 4.0
  endloop
endfacet
facet normal -0.0 -0.0 1.0
  outer loop
    vertex -0.8 0.2 4.0
    vertex 41.0 0.0 4.0
    vertex 40.8 0.19999999999999998 4.0
  endloop
endfacet
facet normal -0.0 -0.0 1.0
  outer loop
    vertex 40.8 0.19999999999999998 4.0
    vertex 41.0 0.0 4.0
    vertex 40.8 9.799999999999999 4.0
  endloop
endfacet
facet normal -0.0 -0.0 1.0
  outer loop
    vertex -1.0 10.0 4.0
    vertex -0.8 9.799999999999999 4.0
    vertex 41.0 10.0 4.0
  endloop
endfacet
facet normal -0.0 -0.0 1.0
  outer loop
    vertex -0.8 9.799999999999999 4.0
    vertex -1.0 10.0 4.0
    vertex -0.8 0.2 4.0
  endloop
endfacet
facet normal -0.0 -0.0 1.0
  outer loop
    vertex 41.0 10.0 4.0
    vertex -0.8 9.799999999999999 4.0
    vertex 40.8 9.799999999999999 4.0
  endloop
endfacet
facet normal -0.0 -0.0 1.0
  outer loop
    vertex 41.0 10.0 4.0
    vertex 40.8 9.799999999999999 4.0
    vertex 41.0 0.0 4.0
  endloop
endfacet
facet normal -0.0 -1.0 -0.0
  outer loop
    vertex 41.0 0.0 4.0
    vertex -1.0 0.0 0.0
    vertex 41.0 0.0 0.0
  endloop
endfacet
facet normal -0.0 -1.0 -0.0
  outer loop
    vertex -1.0 0.0 0.0
    vertex 41.0 0.0 4.0
    vertex -1.0 0.0 4.0
  endloop
endfacet
facet normal -1.0 0.0 0.0
  outer loop
    vertex -1.0 10.0 4.0
    vertex -1.0 0.0 0.0
    vertex -1.0 0.0 4.0
  endloop
endfacet
facet normal -1.0 0.0 0.0
  outer loop
    vertex -1.0 0.0 0.0
    vertex -1.0 10.0 4.0
    vertex -1.0 10.0 0.0
  endloop
endfacet
facet normal -0.0 1.0 0.0
  outer loop
    vertex -1.0 10.0 4.0
    vertex 41.0 10.0 0.0
    vertex -1.0 10.0 0.0
  endloop
endfacet
facet normal -0.0 1.0 0.0
  outer loop
    vertex 41.0 10.0 0.0
    vertex -1.0 10.0 4.0
    vertex 41.0 10.0 4.0
  endloop
endfacet
facet normal 1.0 0.0 0.0
  outer loop
    vertex 41.0 10.0 0.0
    vertex 41.0 0.0 4.0
    vertex 41.0 0.0 0.0
  endloop
endfacet
facet normal 1.0 0.0 0.0
  outer loop
    vertex 41.0 0.0 4.0
    vertex 41.0 10.0 0.0
    vertex 41.0 10.0 4.0
  endloop
endfacet
facet normal -1.0 0.0 0.0
  outer loop
    vertex 40.8 9.799999999999999 4.0
    vertex 40.8 0.19999999999999998 0.0
    vertex 40.8 0.19999999999999998 4.0
  endloop
endfacet
facet normal -1.0 0.0 0.0
  outer loop
    vertex 40.8 0.19999999999999998 0.0
    vertex 40.8 9.799999999999999 4.0
    vertex 40.8 9.799999999999999 0.0
  endloop
endfacet
facet normal -0.0 -1.0 -0.0
  outer loop
    vertex 40.8 9.799999999999999 4.0
    vertex -0.8 9.799999999999999 0.0
    vertex 40.8 9.799999999999999 0.0
  endloop
endfacet
facet normal -0.0 -1.0 -0.0
  outer loop
    vertex -0.8 9.799999999999999 0.0
    vertex 40.8 9.799999999999999 4.0
    vertex -0.8 9.799999999999999 4.0
  endloop
endfacet
facet normal 1.0 0.0 0.0
  outer loop
    vertex -0.8 9.799999999999999 0.0
    vertex -0.8 0.2 4.0
    vertex -0.8 0.2 0.0
  endloop
endfacet
facet normal 1.0 0.0 0.0
  outer loop
    vertex -0.8 0.2 4.0
    vertex -0.8 9.799999999999999 0.0
    vertex -0.8 9.799999999999999 4.0
  endloop
endfacet
facet normal 1.084602493287653e-18 1.0 0.0
  outer loop
    vertex -0.8 0.2 4.0
    vertex 40.8 0.19999999999999998 0.0
    vertex -0.8 0.2 0.0
  endloop
endfacet
facet normal 1.084602493287653e-18 1.0 0.0
  outer loop
    vertex 40.8 0.19999999999999998 0.0
    vertex -0.8 0.2 4.0
    vertex 40.8 0.19999999999999998 4.0
  endloop
endfacet
facet normal 0.0 0.0 -1.0
  outer loop
    vertex -0.48296291314453366 5.129409522551261 0.0
    vertex -0.4829629131445337 4.870590477448739 0.0
    vertex -0.49999999999999956 5.0 0.0
  endloop
endfacet
facet normal 0.0 0.0 -1.0
  outer loop
    vertex -0.4829629131445337 4.870590477448739 0.0
    vertex -0.48296291314453366 5.129409522551261 0.0
    vertex -0.433012701892219 4.750000000000001 0.0
  endloop
endfacet
facet normal 0.0 0.0 -1.0
  outer loop
    vertex -0.433012701892219 4.750000000000001 0.0
    vertex -0.48296291314453366 5.129409522551261 0.0
    vertex -0.43301270189221885 5.25 0.0
  endloop
endfacet
facet normal 0.0 0.0 -1.0
  outer loop
    vertex -0.433012701892219 4.750000000000001 0.0
    vertex -0.43301270189221885 5.25 0.0
    vertex -0.35355339059327345 4.646446609406727 0.0
  endloop
endfacet
facet normal 0.0 0.0 -1.0
  outer loop
    vertex -0.35355339059327345 4.646446609406727 0.0
    vertex -0.43301270189221885 5.25 0.0
    vertex -0.3535533905932734 5.353553390593273 0.0
  endloop
endfacet
facet normal 0.0 0.0 -1.0
  outer loop
    vertex -0.35355339059327345 4.646446609406727 0.0
    vertex -0.3535533905932734 5.353553390593273 0.0
    vertex -0.24999999999999992 4.566987298107781 0.0
  endloop
endfacet
facet normal 0.0 0.0 -1.0
  outer loop
    vertex -0.24999999999999992 4.566987298107781 0.0
    vertex -0.3535533905932734 5.353553390593273 0.0
    vertex -0.2499999999999997 5.433012701892219 0.0
  endloop
endfacet
facet normal 0.0 0.0 -1.0
  outer loop
    vertex -0.24999999999999992 4.566987298107781 0.0
    vertex -0.2499999999999997 5.433012701892219 0.0
    vertex -0.12940952255126031 4.517037086855466 0.0
  endloop
endfacet
facet normal 0.0 0.0 -1.0
  outer loop
    vertex -0.12940952255126031 4.517037086855466 0.0
    vertex -0.2499999999999997 5.433012701892219 0.0
    vertex -0.1294095225512602 5.482962913144534 0.0
  endloop
endfacet
facet normal 0.0 0.0 -1.0
  outer loop
    vertex -0.12940952255126031 4.517037086855466 0.0
    vertex -0.1294095225512602 5.482962913144534 0.0
    vertex 2.900658748416511e-17 4.5 0.0
  endloop
endfacet
facet normal 0.0 0.0 -1.0
  outer loop
    vertex 2.900658748416511e-17 4.5 0.0
    vertex -0.1294095225512602 5.482962913144534 0.0
    vertex 9.023892744153272e-17 5.5 0.0
  endloop
endfacet
facet normal 0.0 0.0 -1.0
  outer loop
    vertex 2.900658748416511e-17 4.5 0.0
    vertex 9.023892744153272e-17 5.5 0.0
    vertex 0.12940952255126018 4.517037086855466 0.0
  endloop
endfacet
facet normal 0.0 0.0 -1.0
  outer loop
    vertex 0.12940952255126018 4.517037086855466 0.0
    vertex 9.023892744153272e-17 5.5 0.0
    vertex 0.12940952255126076 5.482962913144534 0.0
  endloop
endfacet
facet normal 0.0 0.0 -1.0
  outer loop
    vertex 0.12940952255126018 4.517037086855466 0.0
    vertex 0.12940952255126076 5.482962913144534 0.0
    vertex 0.2499999999999998 4.56698729810778 0.0
  endloop
endfacet
facet normal 0.0 0.0 -1.0
  outer loop
    vertex 0.2499999999999998 4.56698729810778 0.0
    vertex 0.12940952255126076 5.482962913144534 0.0
    vertex 0.2500000000000001 5.433012701892219 0.0
  endloop
endfacet
facet normal 0.0 0.0 -1.0
  outer loop
    vertex 0.2499999999999998 4.56698729810778 0.0
    vertex 0.2500000000000001 5.433012701892219 0.0
    vertex 0.3535533905932734 4.646446609406727 0.0
  endloop
endfacet
facet normal 0.0 0.0 -1.0
  outer loop
    vertex 0.3535533905932734 4.646446609406727 0.0
    vertex 0.2500000000000001 5.433012701892219 0.0
    vertex 0.3535533905932737 5.353553390593273 0.0
  endloop
endfacet
facet normal 0.0 0.0 -1.0
  outer loop
    vertex 0.3535533905932734 4.646446609406727 0.0
    vertex 0.3535533905932737 5.353553390593273 0.0
    vertex 0.4330127018922189 4.75 0.0
  endloop
endfacet
facet normal 0.0 0.0 -1.0
  outer loop
    vertex 0.4330127018922189 4.75 0.0
    vertex 0.3535533905932737 5.353553390593273 0.0
    vertex 0.4330127018922193 5.249999999999999 0.0
  endloop
endfacet
facet normal 0.0 0.0 -1.0
  outer loop
    vertex 0.4330127018922189 4.75 0.0
    vertex 0.4330127018922193 5.249999999999999 0.0
    vertex 0.4829629131445338 4.870590477448739 0.0
  endloop
endfacet
facet normal 0.0 0.0 -1.0
  outer loop
    vertex 0.4829629131445338 4.870590477448739 0.0
    vertex 0.4330127018922193 5.249999999999999 0.0
    vertex 0.48296291314453393 5.12940952255126 0.0
  endloop
endfacet
facet normal 0.0 0.0 -1.0
  outer loop
    vertex 0.4829629131445338 4.870590477448739 0.0
    vertex 0.48296291314453393 5.12940952255126 0.0
    vertex 0.4999999999999997 5.0 0.0
  endloop
endfacet
facet normal 0.0 0.0 -1.0
  outer loop
    vertex 39.51703708685547 5.129409522551261 0.0
    vertex 39.51703708685547 4.870590477448739 0.0
    vertex 39.5 5.0 0.0
  endloop
endfacet
facet normal 0.0 0.0 -1.0
  outer loop
    vertex 39.51703708685547 4.870590477448739 0.0
    vertex 39.51703708685547 5.129409522551261 0.0
    vertex 39.56698729810778 5.25 0.0
  endloop
endfacet
facet normal 0.0 0.0 -1.0
  outer loop
    vertex 39.51703708685547 4.870590477448739 0.0
    vertex 39.56698729810778 5.25 0.0
    vertex 39.56698729810778 4.750000000000001 0.0
  endloop
endfacet
facet normal 0.0 0.0 -1.0
  outer loop
    vertex 39.56698729810778 4.750000000000001 0.0
    vertex 39.56698729810778 5.25 0.0
    vertex 39.64644660940672 5.353553390593273 0.0
  endloop
endfacet
facet normal 0.0 0.0 -1.0
  outer loop
    vertex 39.56698729810778 4.750000000000001 0.0
    vertex 39.64644660940672 5.353553390593273 0.0
    vertex 39.64644660940672 4.646446609406727 0.0
  endloop
endfacet
facet normal 0.0 0.0 -1.0
  outer loop
    vertex 39.64644660940672 4.646446609406727 0.0
    vertex 39.64644660940672 5.353553390593273 0.0
    vertex 39.75 5.433012701892219 0.0
  endloop
endfacet
facet normal 0.0 0.0 -1.0
  outer loop
    vertex 39.64644660940672 4.646446609406727 0.0
    vertex 39.75 5.433012701892219 0.0
    vertex 39.75 4.566987298107781 0.0
  endloop
endfacet
facet normal 0.0 0.0 -1.0
  outer loop
    vertex 39.75 4.566987298107781 0.0
    vertex 39.75 5.433012701892219 0.0
    vertex 39.87059047744874 5.482962913144534 0.0
  endloop
endfacet
facet normal 0.0 0.0 -1.0
  outer loop
    vertex 39.75 4.566987298107781 0.0
    vertex 39.87059047744874 5.482962913144534 0.0
    vertex 39.87059047744874 4.517037086855466 0.0
  endloop
endfacet
facet normal 0.0 0.0 -1.0
  outer loop
    vertex 39.87059047744874 4.517037086855466 0.0
    vertex 39.87059047744874 5.482962913144534 0.0
    vertex 40.0 5.5 0.0
  endloop
endfacet
facet normal 0.0 0.0 -1.0
  outer loop
    vertex 39.87059047744874 4.517037086855466 0.0
    vertex 40.0 5.5 0.0
    vertex 40.0 4.5 0.0
  endloop
endfacet
facet normal 0.0 0.0 -1.0
  outer loop
    vertex 40.0 4.5 0.0
    vertex 40.0 5.5 0.0
    vertex 40.12940952255126 5.482962913144534 0.0
  endloop
endfacet
facet normal 0.0 0.0 -1.0
  outer loop
    vertex 40.0 4.5 0.0
    vertex 40.12940952255126 5.482962913144534 0.0
    vertex 40.12940952255126 4.517037086855466 0.0
  endloop
endfacet
facet normal 0.0 0.0 -1.0
  outer loop
    vertex 40.12940952255126 4.517037086855466 0.0
    vertex 40.12940952255126 5.482962913144534 0.0
    vertex 40.25 5.433012701892219 0.0
  endloop
endfacet
facet normal 0.0 0.0 -1.0
  outer loop
    vertex 40.12940952255126 4.517037086855466 0.0
    vertex 40.25 5.433012701892219 0.0
    vertex 40.25 4.56698729810778 0.0
  endloop
endfacet
facet normal 0.0 0.0 -1.0
  outer loop
    vertex 40.25 4.56698729810778 0.0
    vertex 40.25 5.433012701892219 0.0
    vertex 40.35355339059328 5.353553390593273 0.0
  endloop
endfacet
facet normal 0.0 0.0 -1.0
  outer loop
    vertex 40.25 4.56698729810778 0.0
    vertex 40.35355339059328 5.353553390593273 0.0
    vertex 40.35355339059328 4.646446609406727 0.0
  endloop
endfacet
facet normal 0.0 0.0 -1.0
  outer loop
    vertex 40.35355339059328 4.646446609406727 0.0
    vertex 40.35355339059328 5.353553390593273 0.0
    vertex 40.43301270189222 5.249999999999999 0.0
  endloop
endfacet
facet normal 0.0 0.0 -1.0
  outer loop
    vertex 40.35355339059328 4.646446609406727 0.0
    vertex 40.43301270189222 5.249999999999999 0.0
    vertex 40.43301270189222 4.75 0.0
  endloop
endfacet
facet normal 0.0 0.0 -1.0
  outer loop
    vertex 40.43301270189222 4.75 0.0
    vertex 40.43301270189222 5.249999999999999 0.0
    vertex 40.48296291314453 5.12940952255126 0.0
  endloop
endfacet
facet normal 0.0 0.0 -1.0
  outer loop
    vertex 40.43301270189222 4.75 0.0
    vertex 40.48296291314453 5.12940952255126 0.0
    vertex 40.48296291314453 4.870590477448739 0.0
  endloop
endfacet
facet normal 0.0 0.0 -1.0
  outer loop
    vertex 40.48296291314453 4.870590477448739 0.0
    vertex 40.48296291314453 5.12940952255126 0.0
    vertex 40.5 5.0 0.0
  endloop
endfacet
endsolid corridor_0
