solid skir
facet normal 0.0 0.0 -1.0
  outer loop
    vertex 2.0 10.0 0.0
    vertex 2.2 9.799999999999999 0.0
    vertex 2.0 2.0 0.0
  endloop
endfacet
facet normal 0.0 0.0 -1.0
  outer loop
    vertex 2.2 9.799999999999999 0.0
    vertex 2.0 10.0 0.0
    vertex 10.0 10.0 0.0
  endloop
endfacet
facet normal 0.0 0.0 -1.0
  outer loop
    vertex 2.2 9.799999999999999 0.0
    vertex 10.0 10.0 0.0
    vertex 9.799999999999999 9.799999999999999 0.0
  endloop
endfacet
facet normal 0.0 0.0 -1.0
  outer loop
    vertex 9.799999999999999 9.799999999999999 0.0
    vertex 10.0 10.0 0.0
    vertex 9.799999999999999 8.200000000000001 0.0
  endloop
endfacet
facet normal 0.0 0.0 -1.0
  outer loop
    vertex 9.799999999999999 8.200000000000001 0.0
    vertex 10.0 10.0 0.0
    vertex 9.799999999999999 1.8 0.0
  endloop
endfacet
facet normal 0.0 0.0 -1.0
  outer loop
    vertex 9.799999999999999 1.8 0.0
    vertex 10.0 10.0 0.0
    vertex 9.799999999999999 0.2 0.0
  endloop
endfacet
facet normal 0.0 0.0 -1.0
  outer loop
    vertex 0.19999999999999998 0.2 0.0
    vertex 10.0 0.0 0.0
    vertex 0.0 0.0 0.0
  endloop
endfacet
facet normal 0.0 0.0 -1.0
  outer loop
    vertex 10.0 0.0 0.0
    vertex 0.19999999999999998 0.2 0.0
    vertex 9.799999999999999 0.2 0.0
  endloop
endfacet
facet normal 0.0 0.0 -1.0
  outer loop
    vertex 10.0 0.0 0.0
    vertex 9.799999999999999 0.2 0.0
    vertex 10.0 10.0 0.0
  endloop
endfacet
facet normal 0.0 0.0 -1.0
  outer loop
    vertex 9.799999999999999 8.200000000000001 0.0
    vertex 7.799999999999999 1.8 0.0
    vertex 7.799999999999999 8.200000000000001 0.0
  endloop
endfacet
facet normal 0.0 0.0 -1.0
  outer loop
    vertex 7.799999999999999 1.8 0.0
    vertex 9.799999999999999 8.200000000000001 0.0
    vertex 9.799999999999999 1.8 0.0
  endloop
endfacet
facet normal 0.0 0.0 -1.0
  outer loop
    vertex 0.0 2.0 0.0
    vertex 0.2 1.8 0.0
    vertex 0.0 0.0 0.0
  endloop
endfacet
facet normal 0.0 0.0 -1.0
  outer loop
    vertex 0.2 1.8 0.0
    vertex 0.0 2.0 0.0
    vertex 2.0 2.0 0.0
  endloop
endfacet
facet normal 0.0 0.0 -1.0
  outer loop
    vertex 0.0 0.0 0.0
    vertex 0.2 1.8 0.0
    vertex 0.19999999999999998 0.2 0.0
  endloop
endfacet
facet normal 0.0 0.0 -1.0
  outer loop
    vertex 0.2 1.8 0.0
    vertex 2.0 2.0 0.0
    vertex 2.2 1.8 0.0
  endloop
endfacet
facet normal 0.0 0.0 -1.0
  outer loop
    vertex 2.2 1.8 0.0
    vertex 2.0 2.0 0.0
    vertex 2.2 9.799999999999999 0.0
  endloop
endfacet
facet normal 0.0 0.0 -1.0
  outer loop
    vertex 2.2 9.799999999999999 0.0
    vertex 7.799999999999999 8.200000000000001 0.0
    vertex 2.2 1.8 0.0
  endloop
endfacet
facet normal 0.0 0.0 -1.0
  outer loop
    vertex 7.799999999999999 8.200000000000001 0.0
    vertex 2.2 9.799999999999999 0.0
    vertex 9.799999999999999 9.799999999999999 0.0
  endloop
endfacet
facet normal 0.0 0.0 -1.0
  outer loop
    vertex 2.2 1.8 0.0
    vertex 7.799999999999999 8.200000000000001 0.0
    vertex 3.0 2.0 0.0
  endloop
endfacet
facet normal 0.0 0.0 -1.0
  outer loop
    vertex 3.0 2.0 0.0
    vertex 7.799999999999999 8.200000000000001 0.0
    vertex 6.999999999999999 2.0 0.0
  endloop
endfacet
facet normal 0.0 0.0 -1.0
  outer loop
    vertex 6.999999999999999 2.0 0.0
    vertex 7.799999999999999 8.200000000000001 0.0
    vertex 6.999999999999999 1.7 0.0
  endloop
endfacet
facet normal 0.0 0.0 -1.0
  outer loop
    vertex 7.799999999999999 8.200000000000001 0.0
    vertex 9.799999999999999 9.799999999999999 0.0
    vertex 9.799999999999999 8.200000000000001 0.0
  endloop
endfacet
facet normal 0.0 0.0 -1.0
  outer loop
    vertex 0.2 1.8 0.0
    vertex 9.799999999999999 0.2 0.0
    vertex 0.19999999999999998 0.2 0.0
  endloop
endfacet
facet normal 0.0 0.0 -1.0
  outer loop
    vertex 9.799999999999999 0.2 0.0
    vertex 0.2 1.8 0.0
    vertex 2.2 1.8 0.0
  endloop
endfacet
facet normal 0.0 0.0 -1.0
  outer loop
    vertex 9.799999999999999 0.2 0.0
    vertex 2.2 1.8 0.0
    vertex 3.0 1.7 0.0
  endloop
endfacet
facet normal 0.0 0.0 -1.0
  outer loop
    vertex 3.0 1.7 0.0
    vertex 2.2 1.8 0.0
    vertex 3.0 2.0 0.0
  endloop
endfacet
facet normal 0.0 0.0 -1.0
  outer loop
    vertex 9.799999999999999 0.2 0.0
    vertex 3.0 1.7 0.0
    vertex 6.999999999999999 1.7 0.0
  endloop
endfacet
facet normal 0.0 0.0 -1.0
  outer loop
    vertex 9.799999999999999 0.2 0.0
    vertex 6.999999999999999 1.7 0.0
    vertex 7.799999999999999 1.8 0.0
  endloop
endfacet
facet normal 0.0 0.0 -1.0
  outer loop
    vertex 7.799999999999999 1.8 0.0
    vertex 6.999999999999999 1.7 0.0
    vertex 7.799999999999999 8.200000000000001 0.0
  endloop
endfacet
facet normal 0.0 0.0 -1.0
  outer loop
    vertex 9.799999999999999 0.2 0.0
    vertex 7.799999999999999 1.8 0.0
    vertex 9.799999999999999 1.8 0.0
  endloop
endfacet
facet normal 0.0 -1.0 -6.454826424119703e-18
  outer loop
    vertex 10.0 -2.7806348489249003e-16 5.999999999999998
    vertex 0.0 0.0 0.0
    vertex 10.0 0.0 0.0
  endloop
endfacet
facet normal 0.0 -1.0 -6.454826424119703e-18
  outer loop
    vertex 0.0 0.0 0.0
    vertex 10.0 -2.7806348489249003e-16 5.999999999999998
    vertex -4.955940082370638e-17 -2.7806348489249003e-16 5.999999999999998
  endloop
endfacet
facet normal -1.0 1.7231463039169106e-18 -1.0382193325159463e-17
  outer loop
    vertex -4.955940082370638e-17 10.0 5.999999999999999
    vertex 0.0 0.0 0.0
    vertex -4.955940082370638e-17 -2.7806348489249003e-16 5.999999999999998
  endloop
endfacet
facet normal -1.0 1.7231463039169106e-18 -1.0382193325159463e-17
  outer loop
    vertex 0.0 0.0 0.0
    vertex -4.955940082370638e-17 10.0 5.999999999999999
    vertex 0.0 2.0 0.0
  endloop
endfacet
facet normal -1.0 1.7231463039169106e-18 -1.0382193325159463e-17
  outer loop
    vertex 0.0 2.0 0.0
    vertex -4.955940082370638e-17 10.0 5.999999999999999
    vertex 3.1922015426799706e-17 10.0 0.0
  endloop
endfacet
facet normal 1.0 -0.0 -0.0
  outer loop
    vertex 10.0 0.0 0.0
    vertex 10.0 10.0 6.0
    vertex 10.0 -2.7806348489249003e-16 5.999999999999998
  endloop
endfacet
facet normal 1.0 -0.0 -0.0
  outer loop
    vertex 10.0 10.0 6.0
    vertex 10.0 0.0 0.0
    vertex 10.0 10.0 0.0
  endloop
endfacet
facet normal -1.0 0.0 0.0
  outer loop
    vertex 9.799999999999999 9.799999999999999 3.0
    vertex 9.799999999999999 8.200000000000001 0.0
    vertex 9.799999999999999 8.200000000000001 3.0
  endloop
endfacet
facet normal -1.0 0.0 0.0
  outer loop
    vertex 9.799999999999999 8.200000000000001 0.0
    vertex 9.799999999999999 9.799999999999999 3.0
    vertex 9.799999999999999 9.799999999999999 0.0
  endloop
endfacet
facet normal 0.0 -1.0 0.0
  outer loop
    vertex 9.799999999999999 9.799999999999999 3.0
    vertex 2.2 9.799999999999999 0.0
    vertex 9.799999999999999 9.799999999999999 0.0
  endloop
endfacet
facet normal 0.0 -1.0 0.0
  outer loop
    vertex 2.2 9.799999999999999 0.0
    vertex 9.799999999999999 9.799999999999999 3.0
    vertex 2.2 9.799999999999999 3.0
  endloop
endfacet
facet normal -0.0 -1.0 -0.0
  outer loop
    vertex 2.2 1.8 3.0
    vertex 0.2 1.8 0.0
    vertex 2.2 1.8 0.0
  endloop
endfacet
facet normal -0.0 -1.0 -0.0
  outer loop
    vertex 0.2 1.8 0.0
    vertex 2.2 1.8 3.0
    vertex 0.2 1.8 3.0
  endloop
endfacet
facet normal 1.0 -2.8199664825478977e-17 0.0
  outer loop
    vertex 0.2 1.8 0.0
    vertex 0.19999999999999998 0.2 3.0
    vertex 0.19999999999999998 0.2 0.0
  endloop
endfacet
facet normal 1.0 -2.8199664825478977e-17 0.0
  outer loop
    vertex 0.19999999999999998 0.2 3.0
    vertex 0.2 1.8 0.0
    vertex 0.2 1.8 3.0
  endloop
endfacet
facet normal -0.0 1.0 0.0
  outer loop
    vertex 0.19999999999999998 0.2 3.0
    vertex 9.799999999999999 0.2 0.0
    vertex 0.19999999999999998 0.2 0.0
  endloop
endfacet
facet normal -0.0 1.0 0.0
  outer loop
    vertex 9.799999999999999 0.2 0.0
    vertex 0.19999999999999998 0.2 3.0
    vertex 9.799999999999999 0.2 3.0
  endloop
endfacet
facet normal -1.0 0.0 0.0
  outer loop
    vertex 9.799999999999999 1.8 3.0
    vertex 9.799999999999999 0.2 0.0
    vertex 9.799999999999999 0.2 3.0
  endloop
endfacet
facet normal -1.0 0.0 0.0
  outer loop
    vertex 9.799999999999999 0.2 0.0
    vertex 9.799999999999999 1.8 3.0
    vertex 9.799999999999999 1.8 0.0
  endloop
endfacet
facet normal -0.0 -1.0 -0.0
  outer loop
    vertex 9.799999999999999 1.8 3.0
    vertex 7.799999999999999 1.8 0.0
    vertex 9.799999999999999 1.8 0.0
  endloop
endfacet
facet normal -0.0 -1.0 -0.0
  outer loop
    vertex 7.799999999999999 1.8 0.0
    vertex 9.799999999999999 1.8 3.0
    vertex 7.799999999999999 1.8 3.0
  endloop
endfacet
facet normal -1.0 0.0 0.0
  outer loop
    vertex 7.799999999999999 8.0 3.9999999999999987
    vertex 7.799999999999999 2.0 3.0
    vertex 7.799999999999999 2.0 3.9999999999999987
  endloop
endfacet
facet normal -1.0 0.0 0.0
  outer loop
    vertex 7.799999999999999 2.0 3.0
    vertex 7.799999999999999 1.8 0.0
    vertex 7.799999999999999 1.8 3.0
  endloop
endfacet
facet normal -1.0 0.0 0.0
  outer loop
    vertex 7.799999999999999 1.8 0.0
    vertex 7.799999999999999 2.0 3.0
    vertex 7.799999999999999 8.200000000000001 0.0
  endloop
endfacet
facet normal -1.0 0.0 0.0
  outer loop
    vertex 7.799999999999999 8.200000000000001 0.0
    vertex 7.799999999999999 2.0 3.0
    vertex 7.799999999999999 8.0 3.0
  endloop
endfacet
facet normal -1.0 0.0 0.0
  outer loop
    vertex 7.799999999999999 8.0 3.0
    vertex 7.799999999999999 2.0 3.0
    vertex 7.799999999999999 8.0 3.9999999999999987
  endloop
endfacet
facet normal -1.0 0.0 0.0
  outer loop
    vertex 7.799999999999999 8.200000000000001 0.0
    vertex 7.799999999999999 8.0 3.0
    vertex 7.799999999999999 8.200000000000001 3.0
  endloop
endfacet
facet normal -0.0 1.0 -0.0
  outer loop
    vertex 7.799999999999999 8.200000000000001 3.0
    vertex 9.799999999999999 8.200000000000001 0.0
    vertex 7.799999999999999 8.200000000000001 0.0
  endloop
endfacet
facet normal -0.0 1.0 -0.0
  outer loop
    vertex 9.799999999999999 8.200000000000001 0.0
    vertex 7.799999999999999 8.200000000000001 3.0
    vertex 9.799999999999999 8.200000000000001 3.0
  endloop
endfacet
facet normal -1.0 0.0 0.0
  outer loop
    vertex 6.999999999999999 2.0 3.899999999999998
    vertex 6.999999999999999 1.7 0.0
    vertex 6.999999999999999 1.7 3.899999999999998
  endloop
endfacet
facet normal -1.0 0.0 0.0
  outer loop
    vertex 6.999999999999999 1.7 0.0
    vertex 6.999999999999999 2.0 3.899999999999998
    vertex 6.999999999999999 2.0 0.0
  endloop
endfacet
facet normal 0.0 0.9999999999999999 0.0
  outer loop
    vertex 3.0 1.7 3.899999999999998
    vertex 6.999999999999999 1.7 0.0
    vertex 3.0 1.7 0.0
  endloop
endfacet
facet normal 0.0 0.9999999999999999 0.0
  outer loop
    vertex 6.999999999999999 1.7 0.0
    vertex 3.0 1.7 3.899999999999998
    vertex 6.999999999999999 1.7 3.899999999999998
  endloop
endfacet
facet normal 1.0 -0.0 -0.0
  outer loop
    vertex 3.0 2.0 0.0
    vertex 3.0 1.7 3.899999999999998
    vertex 3.0 1.7 0.0
  endloop
endfacet
facet normal 1.0 -0.0 -0.0
  outer loop
    vertex 3.0 1.7 3.899999999999998
    vertex 3.0 2.0 0.0
    vertex 3.0 2.0 3.899999999999998
  endloop
endfacet
facet normal 0.0 0.0 -1.0
  outer loop
    vertex 9.799999999999999 9.799999999999999 3.0
    vertex 2.2 8.0 3.0
    vertex 2.2 9.799999999999999 3.0
  endloop
endfacet
facet normal 0.0 0.0 -1.0
  outer loop
    vertex 2.2 8.0 3.0
    vertex 9.799999999999999 9.799999999999999 3.0
    vertex 7.799999999999999 8.200000000000001 3.0
  endloop
endfacet
facet normal 0.0 0.0 -1.0
  outer loop
    vertex 7.799999999999999 8.200000000000001 3.0
    vertex 9.799999999999999 9.799999999999999 3.0
    vertex 9.799999999999999 8.200000000000001 3.0
  endloop
endfacet
facet normal 0.0 0.0 -1.0
  outer loop
    vertex 7.799999999999999 8.0 3.0
    vertex 2.2 8.0 3.0
    vertex 7.799999999999999 8.200000000000001 3.0
  endloop
endfacet
facet normal 0.0 -1.0 0.0
  outer loop
    vertex 7.799999999999999 8.0 3.9999999999999987
    vertex 2.2 8.0 3.0
    vertex 7.799999999999999 8.0 3.0
  endloop
endfacet
facet normal 0.0 -1.0 0.0
  outer loop
    vertex 2.2 8.0 3.0
    vertex 7.799999999999999 8.0 3.9999999999999987
    vertex 2.2 8.0 3.9999999999999987
  endloop
endfacet
facet normal 6.920979685781258e-18 -1.1180044107800516e-16 1.0
  outer loop
    vertex -4.955940082370638e-17 -2.7806348489249003e-16 5.999999999999998
    vertex 0.19999999999999993 0.19999999999999976 5.999999999999998
    vertex -4.955940082370638e-17 10.0 5.999999999999999
  endloop
endfacet
facet normal 6.920979685781258e-18 -1.1180044107800516e-16 1.0
  outer loop
    vertex 0.19999999999999993 0.19999999999999976 5.999999999999998
    vertex -4.955940082370638e-17 -2.7806348489249003e-16 5.999999999999998
    vertex 10.0 -2.7806348489249003e-16 5.999999999999998
  endloop
endfacet
facet normal 6.920979685781258e-18 -1.1180044107800516e-16 1.0
  outer loop
    vertex 0.19999999999999993 0.19999999999999976 5.999999999999998
    vertex 10.0 -2.7806348489249003e-16 5.999999999999998
    vertex 9.799999999999999 0.19999999999999976 5.999999999999998
  endloop
endfacet
facet normal 6.920979685781258e-18 -1.1180044107800516e-16 1.0
  outer loop
    vertex 9.799999999999999 0.19999999999999976 5.999999999999998
    vertex 10.0 -2.7806348489249003e-16 5.999999999999998
    vertex 9.799999999999999 1.7999999999999996 5.999999999999998
  endloop
endfacet
facet normal 6.920979685781258e-18 -1.1180044107800516e-16 1.0
  outer loop
    vertex 9.799999999999999 1.7999999999999996 5.999999999999998
    vertex 10.0 -2.7806348489249003e-16 5.999999999999998
    vertex 9.799999999999999 8.200000000000001 6.0
  endloop
endfacet
facet normal 6.920979685781258e-18 -1.1180044107800516e-16 1.0
  outer loop
    vertex 9.799999999999999 8.200000000000001 6.0
    vertex 10.0 -2.7806348489249003e-16 5.999999999999998
    vertex 9.799999999999999 9.799999999999999 6.0
  endloop
endfacet
facet normal 6.920979685781258e-18 -1.1180044107800516e-16 1.0
  outer loop
    vertex -4.955940082370638e-17 10.0 5.999999999999999
    vertex 0.19999999999999998 9.799999999999999 5.999999999999999
    vertex 10.0 10.0 6.0
  endloop
endfacet
facet normal 6.920979685781258e-18 -1.1180044107800516e-16 1.0
  outer loop
    vertex 0.19999999999999998 9.799999999999999 5.999999999999999
    vertex -4.955940082370638e-17 10.0 5.999999999999999
    vertex 0.19999999999999993 0.19999999999999976 5.999999999999998
  endloop
endfacet
facet normal 6.920979685781258e-18 -1.1180044107800516e-16 1.0
  outer loop
    vertex 10.0 10.0 6.0
    vertex 0.19999999999999998 9.799999999999999 5.999999999999999
    vertex 9.799999999999999 9.799999999999999 6.0
  endloop
endfacet
facet normal 6.920979685781258e-18 -1.1180044107800516e-16 1.0
  outer loop
    vertex 10.0 10.0 6.0
    vertex 9.799999999999999 9.799999999999999 6.0
    vertex 10.0 -2.7806348489249003e-16 5.999999999999998
  endloop
endfacet
facet normal 6.920979685781258e-18 -1.1180044107800516e-16 1.0
  outer loop
    vertex 9.799999999999999 1.7999999999999996 5.999999999999998
    vertex 7.799999999999999 8.200000000000001 5.999999999999998
    vertex 7.799999999999999 1.7999999999999996 5.999999999999998
  endloop
endfacet
facet normal 6.920979685781258e-18 -1.1180044107800516e-16 1.0
  outer loop
    vertex 7.799999999999999 8.200000000000001 5.999999999999998
    vertex 9.799999999999999 1.7999999999999996 5.999999999999998
    vertex 9.799999999999999 8.200000000000001 6.0
  endloop
endfacet
facet normal 0.0 -1.0 -1.2612208959800561e-16
  outer loop
    vertex 9.799999999999999 1.7999999999999996 5.999999999999998
    vertex 7.799999999999999 1.8 3.9999999999999987
    vertex 9.799999999999999 1.8 3.9999999999999987
  endloop
endfacet
facet normal 0.0 -1.0 -1.2612208959800561e-16
  outer loop
    vertex 7.799999999999999 1.8 3.9999999999999987
    vertex 9.799999999999999 1.7999999999999996 5.999999999999998
    vertex 7.799999999999999 1.7999999999999996 5.999999999999998
  endloop
endfacet
facet normal -1.0 -0.0 -1.3580236041751015e-17
  outer loop
    vertex 9.799999999999999 1.7999999999999996 5.999999999999998
    vertex 9.799999999999999 0.2 3.9999999999999987
    vertex 9.799999999999999 0.19999999999999976 5.999999999999998
  endloop
endfacet
facet normal -1.0 -0.0 -1.3580236041751015e-17
  outer loop
    vertex 9.799999999999999 0.2 3.9999999999999987
    vertex 9.799999999999999 1.7999999999999996 5.999999999999998
    vertex 9.799999999999999 1.8 3.9999999999999987
  endloop
endfacet
facet normal 0.0 1.0 1.2612208959800564e-16
  outer loop
    vertex 0.19999999999999993 0.19999999999999976 5.999999999999998
    vertex 9.799999999999999 0.2 3.9999999999999987
    vertex 0.19999999999999996 0.2 3.9999999999999987
  endloop
endfacet
facet normal 0.0 1.0 1.2612208959800564e-16
  outer loop
    vertex 9.799999999999999 0.2 3.9999999999999987
    vertex 0.19999999999999993 0.19999999999999976 5.999999999999998
    vertex 9.799999999999999 0.19999999999999976 5.999999999999998
  endloop
endfacet
facet normal 1.0 -4.8723137269776234e-18 9.956067483616535e-18
  outer loop
    vertex 0.19999999999999996 0.2 3.9999999999999987
    vertex 0.19999999999999998 9.799999999999999 5.999999999999999
    vertex 0.19999999999999993 0.19999999999999976 5.999999999999998
  endloop
endfacet
facet normal 1.0 -4.8723137269776234e-18 9.956067483616535e-18
  outer loop
    vertex 0.19999999999999998 9.799999999999999 5.999999999999999
    vertex 0.19999999999999996 0.2 3.9999999999999987
    vertex 0.19999999999999996 2.0 3.9999999999999987
  endloop
endfacet
facet normal 1.0 -4.8723137269776234e-18 9.956067483616535e-18
  outer loop
    vertex 0.19999999999999998 9.799999999999999 5.999999999999999
    vertex 0.19999999999999996 2.0 3.9999999999999987
    vertex 0.2 9.799999999999999 3.999999999999999
  endloop
endfacet
facet normal 0.0 -1.0 0.0
  outer loop
    vertex 9.799999999999999 9.799999999999999 4.0
    vertex 0.2 9.799999999999999 3.999999999999999
    vertex 2.0 9.799999999999999 3.999999999999999
  endloop
endfacet
facet normal 0.0 -1.0 0.0
  outer loop
    vertex 0.2 9.799999999999999 3.999999999999999
    vertex 9.799999999999999 9.799999999999999 4.0
    vertex 0.19999999999999998 9.799999999999999 5.999999999999999
  endloop
endfacet
facet normal 0.0 -1.0 0.0
  outer loop
    vertex 0.19999999999999998 9.799999999999999 5.999999999999999
    vertex 9.799999999999999 9.799999999999999 4.0
    vertex 9.799999999999999 9.799999999999999 6.0
  endloop
endfacet
facet normal -1.0 -0.0 -1.3580236041751014e-17
  outer loop
    vertex 9.799999999999999 9.799999999999999 6.0
    vertex 9.799999999999999 8.200000000000001 4.0
    vertex 9.799999999999999 8.200000000000001 6.0
  endloop
endfacet
facet normal -1.0 -0.0 -1.3580236041751014e-17
  outer loop
    vertex 9.799999999999999 8.200000000000001 4.0
    vertex 9.799999999999999 9.799999999999999 6.0
    vertex 9.799999999999999 9.799999999999999 4.0
  endloop
endfacet
facet normal -9.104897673607134e-32 1.0 1.2612208959800561e-16
  outer loop
    vertex 7.799999999999999 8.200000000000001 5.999999999999998
    vertex 9.799999999999999 8.200000000000001 4.0
    vertex 7.799999999999999 8.200000000000001 3.9999999999999987
  endloop
endfacet
facet normal -9.104897673607134e-32 1.0 1.2612208959800561e-16
  outer loop
    vertex 9.799999999999999 8.200000000000001 4.0
    vertex 7.799999999999999 8.200000000000001 5.999999999999998
    vertex 9.799999999999999 8.200000000000001 6.0
  endloop
endfacet
facet normal -0.0 1.0 -0.0
  outer loop
    vertex 2.2 8.0 5.999999999999998
    vertex 7.799999999999999 8.0 3.9999999999999987
    vertex 2.2 8.0 3.9999999999999987
  endloop
endfacet
facet normal -0.0 1.0 -0.0
  outer loop
    vertex 7.799999999999999 8.0 3.9999999999999987
    vertex 2.2 8.0 5.999999999999998
    vertex 7.599999999999999 8.0 4.999999999999998
  endloop
endfacet
facet normal -0.0 1.0 -0.0
  outer loop
    vertex 7.599999999999999 8.0 4.999999999999998
    vertex 2.2 8.0 5.999999999999998
    vertex 7.599999999999999 8.0 5.999999999999998
  endloop
endfacet
facet normal -0.0 1.0 -0.0
  outer loop
    vertex 7.799999999999999 8.0 4.999999999999998
    vertex 7.799999999999999 8.0 3.9999999999999987
    vertex 7.599999999999999 8.0 4.999999999999998
  endloop
endfacet
facet normal -1.0 0.0 0.0
  outer loop
    vertex 2.2 8.0 5.999999999999998
    vertex 2.2 7.799999999999999 4.999999999999998
    vertex 2.2 7.799999999999999 5.999999999999998
  endloop
endfacet
facet normal -1.0 0.0 0.0
  outer loop
    vertex 2.2 2.2 5.999999999999998
    vertex 2.2 2.0000000000000004 3.9999999999999987
    vertex 2.2 2.0000000000000004 5.999999999999998
  endloop
endfacet
facet normal -1.0 0.0 0.0
  outer loop
    vertex 2.2 2.0000000000000004 3.9999999999999987
    vertex 2.2 2.2 5.999999999999998
    vertex 2.2 2.2 4.999999999999998
  endloop
endfacet
facet normal -1.0 0.0 0.0
  outer loop
    vertex 2.2 2.0000000000000004 3.9999999999999987
    vertex 2.2 2.2 4.999999999999998
    vertex 2.2 8.0 3.9999999999999987
  endloop
endfacet
facet normal -1.0 0.0 0.0
  outer loop
    vertex 2.2 8.0 3.9999999999999987
    vertex 2.2 2.2 4.999999999999998
    vertex 2.2 7.799999999999999 4.999999999999998
  endloop
endfacet
facet normal -1.0 0.0 0.0
  outer loop
    vertex 2.2 8.0 3.9999999999999987
    vertex 2.2 7.799999999999999 4.999999999999998
    vertex 2.2 8.0 5.999999999999998
  endloop
endfacet
facet normal -4.7635418946831416e-17 -1.0 1.0144331471494236e-16
  outer loop
    vertex 7.799999999999999 2.0 4.999999999999998
    vertex 2.2 2.0000000000000004 3.9999999999999987
    vertex 7.799999999999999 2.0 3.9999999999999987
  endloop
endfacet
facet normal -4.7635418946831416e-17 -1.0 1.0144331471494236e-16
  outer loop
    vertex 2.2 2.0000000000000004 3.9999999999999987
    vertex 7.799999999999999 2.0 4.999999999999998
    vertex 7.599999999999999 2.0000000000000004 4.999999999999998
  endloop
endfacet
facet normal -4.7635418946831416e-17 -1.0 1.0144331471494236e-16
  outer loop
    vertex 2.2 2.0000000000000004 3.9999999999999987
    vertex 7.599999999999999 2.0000000000000004 4.999999999999998
    vertex 2.2 2.0000000000000004 5.999999999999998
  endloop
endfacet
facet normal -4.7635418946831416e-17 -1.0 1.0144331471494236e-16
  outer loop
    vertex 2.2 2.0000000000000004 5.999999999999998
    vertex 7.599999999999999 2.0000000000000004 4.999999999999998
    vertex 7.599999999999999 2.0000000000000004 5.999999999999998
  endloop
endfacet
facet normal 0.0 -1.0 0.0
  outer loop
    vertex 7.599999999999999 7.799999999999999 4.999999999999998
    vertex 2.4000000000000004 7.799999999999999 3.9999999999999987
    vertex 7.599999999999999 7.799999999999999 3.9999999999999987
  endloop
endfacet
facet normal 0.0 -1.0 0.0
  outer loop
    vertex 2.4000000000000004 7.799999999999999 3.9999999999999987
    vertex 7.599999999999999 7.799999999999999 4.999999999999998
    vertex 2.4000000000000004 7.799999999999999 4.999999999999998
  endloop
endfacet
facet normal 0.0 -1.0 0.0
  outer loop
    vertex 2.4000000000000004 7.799999999999999 4.999999999999998
    vertex 7.599999999999999 7.799999999999999 4.999999999999998
    vertex 7.599999999999999 7.799999999999999 5.999999999999998
  endloop
endfacet
facet normal 0.0 -1.0 0.0
  outer loop
    vertex 2.4000000000000004 7.799999999999999 4.999999999999998
    vertex 7.599999999999999 7.799999999999999 5.999999999999998
    vertex 2.2 7.799999999999999 4.999999999999998
  endloop
endfacet
facet normal 0.0 -1.0 0.0
  outer loop
    vertex 2.2 7.799999999999999 4.999999999999998
    vertex 7.599999999999999 7.799999999999999 5.999999999999998
    vertex 2.2 7.799999999999999 5.999999999999998
  endloop
endfacet
facet normal 0.0 0.0 1.0
  outer loop
    vertex 7.599999999999999 2.0000000000000004 5.999999999999998
    vertex 2.2 2.2 5.999999999999998
    vertex 2.2 2.0000000000000004 5.999999999999998
  endloop
endfacet
facet normal 0.0 0.0 1.0
  outer loop
    vertex 2.2 2.2 5.999999999999998
    vertex 7.599999999999999 2.0000000000000004 5.999999999999998
    vertex 7.599999999999999 2.2 5.999999999999998
  endloop
endfacet
facet normal 1.0 -0.0 0.0
  outer loop
    vertex 7.599999999999999 2.2 4.999999999999998
    vertex 7.599999999999999 2.0000000000000004 5.999999999999998
    vertex 7.599999999999999 2.0000000000000004 4.999999999999998
  endloop
endfacet
facet normal 1.0 -0.0 0.0
  outer loop
    vertex 7.599999999999999 2.0000000000000004 5.999999999999998
    vertex 7.599999999999999 2.2 4.999999999999998
    vertex 7.599999999999999 2.2 5.999999999999998
  endloop
endfacet
facet normal -0.0 -0.0 1.0
  outer loop
    vertex 2.4000000000000004 2.2 4.999999999999998
    vertex 2.2 7.799999999999999 4.999999999999998
    vertex 2.2 2.2 4.999999999999998
  endloop
endfacet
facet normal -0.0 -0.0 1.0
  outer loop
    vertex 2.2 7.799999999999999 4.999999999999998
    vertex 2.4000000000000004 2.2 4.999999999999998
    vertex 2.4000000000000004 7.799999999999999 4.999999999999998
  endloop
endfacet
facet normal 0.0 0.0 1.0
  outer loop
    vertex 7.599999999999999 7.799999999999999 5.999999999999998
    vertex 2.2 8.0 5.999999999999998
    vertex 2.2 7.799999999999999 5.999999999999998
  endloop
endfacet
facet normal 0.0 0.0 1.0
  outer loop
    vertex 2.2 8.0 5.999999999999998
    vertex 7.599999999999999 7.799999999999999 5.999999999999998
    vertex 7.599999999999999 8.0 5.999999999999998
  endloop
endfacet
facet normal 0.9999999999999999 -0.0 0.0
  outer loop
    vertex 7.599999999999999 8.0 4.999999999999998
    vertex 7.599999999999999 7.799999999999999 5.999999999999998
    vertex 7.599999999999999 7.799999999999999 4.999999999999998
  endloop
endfacet
facet normal 0.9999999999999999 -0.0 0.0
  outer loop
    vertex 7.599999999999999 7.799999999999999 5.999999999999998
    vertex 7.599999999999999 8.0 4.999999999999998
    vertex 7.599999999999999 8.0 5.999999999999998
  endloop
endfacet
facet normal -1.0 0.0 0.0
  outer loop
    vertex 7.799999999999999 8.0 4.999999999999998
    vertex 7.799999999999999 2.0 3.9999999999999987
    vertex 7.799999999999999 2.0 4.999999999999998
  endloop
endfacet
facet normal -1.0 0.0 0.0
  outer loop
    vertex 7.799999999999999 2.0 3.9999999999999987
    vertex 7.799999999999999 8.0 4.999999999999998
    vertex 7.799999999999999 8.0 3.9999999999999987
  endloop
endfacet
facet normal -1.0 0.0 0.0
  outer loop
    vertex 7.599999999999999 7.799999999999999 4.999999999999998
    vertex 7.599999999999999 2.2 3.9999999999999987
    vertex 7.599999999999999 2.2 4.999999999999998
  endloop
endfacet
facet normal -1.0 0.0 0.0
  outer loop
    vertex 7.599999999999999 2.2 3.9999999999999987
    vertex 7.599999999999999 7.799999999999999 4.999999999999998
    vertex 7.599999999999999 7.799999999999999 3.9999999999999987
  endloop
endfacet
facet normal -1.0 0.0 0.0
  outer loop
    vertex 7.799999999999999 1.7999999999999996 5.999999999999998
    vertex 7.799999999999999 2.0 4.999999999999998
    vertex 7.799999999999999 1.8 3.9999999999999987
  endloop
endfacet
facet normal -1.0 0.0 0.0
  outer loop
    vertex 7.799999999999999 2.0 4.999999999999998
    vertex 7.799999999999999 1.7999999999999996 5.999999999999998
    vertex 7.799999999999999 8.200000000000001 5.999999999999998
  endloop
endfacet
facet normal -1.0 0.0 0.0
  outer loop
    vertex 7.799999999999999 2.0 4.999999999999998
    vertex 7.799999999999999 8.200000000000001 5.999999999999998
    vertex 7.799999999999999 8.0 4.999999999999998
  endloop
endfacet
facet normal -1.0 0.0 0.0
  outer loop
    vertex 7.799999999999999 8.0 4.999999999999998
    vertex 7.799999999999999 8.200000000000001 5.999999999999998
    vertex 7.799999999999999 8.0 3.9999999999999987
  endloop
endfacet
facet normal -1.0 0.0 0.0
  outer loop
    vertex 7.799999999999999 8.0 3.9999999999999987
    vertex 7.799999999999999 8.200000000000001 5.999999999999998
    vertex 7.799999999999999 8.200000000000001 3.9999999999999987
  endloop
endfacet
facet normal -1.0 0.0 0.0
  outer loop
    vertex 7.799999999999999 2.0 3.9999999999999987
    vertex 7.799999999999999 1.8 3.9999999999999987
    vertex 7.799999999999999 2.0 4.999999999999998
  endloop
endfacet
facet normal -0.0 -0.0 1.0
  outer loop
    vertex 7.799999999999999 2.0 4.999999999999998
    vertex 7.599999999999999 2.2 4.999999999999998
    vertex 7.599999999999999 2.0000000000000004 4.999999999999998
  endloop
endfacet
facet normal -0.0 -0.0 1.0
  outer loop
    vertex 7.599999999999999 2.2 4.999999999999998
    vertex 7.799999999999999 2.0 4.999999999999998
    vertex 7.599999999999999 7.799999999999999 4.999999999999998
  endloop
endfacet
facet normal -0.0 -0.0 1.0
  outer loop
    vertex 7.599999999999999 7.799999999999999 4.999999999999998
    vertex 7.799999999999999 2.0 4.999999999999998
    vertex 7.599999999999999 8.0 4.999999999999998
  endloop
endfacet
facet normal -0.0 -0.0 1.0
  outer loop
    vertex 7.599999999999999 8.0 4.999999999999998
    vertex 7.799999999999999 2.0 4.999999999999998
    vertex 7.799999999999999 8.0 4.999999999999998
  endloop
endfacet
facet normal 1.0 -0.0 -0.0
  outer loop
    vertex 2.4000000000000004 7.799999999999999 3.9999999999999987
    vertex 2.4000000000000004 2.2 4.999999999999998
    vertex 2.4000000000000004 2.2 3.9999999999999987
  endloop
endfacet
facet normal 1.0 -0.0 -0.0
  outer loop
    vertex 2.4000000000000004 2.2 4.999999999999998
    vertex 2.4000000000000004 7.799999999999999 3.9999999999999987
    vertex 2.4000000000000004 7.799999999999999 4.999999999999998
  endloop
endfacet
facet normal 1.0 3.4480130278303894e-18 -8.154084863112412e-17
  outer loop
    vertex 2.2 9.799999999999999 0.0
    vertex 2.2 1.8 3.0
    vertex 2.2 1.8 0.0
  endloop
endfacet
facet normal 1.0 3.4480130278303894e-18 -8.154084863112412e-17
  outer loop
    vertex 2.2 1.8 3.0
    vertex 2.2 9.799999999999999 0.0
    vertex 2.2 2.0000000000000004 3.0
  endloop
endfacet
facet normal 1.0 3.4480130278303894e-18 -8.154084863112412e-17
  outer loop
    vertex 2.2 2.0000000000000004 3.0
    vertex 2.2 9.799999999999999 0.0
    vertex 2.2 2.0000000000000004 3.9999999999999987
  endloop
endfacet
facet normal 1.0 3.4480130278303894e-18 -8.154084863112412e-17
  outer loop
    vertex 2.2 2.0000000000000004 3.9999999999999987
    vertex 2.2 9.799999999999999 0.0
    vertex 2.2 8.0 3.0
  endloop
endfacet
facet normal 1.0 3.4480130278303894e-18 -8.154084863112412e-17
  outer loop
    vertex 2.2 8.0 3.0
    vertex 2.2 9.799999999999999 0.0
    vertex 2.2 9.799999999999999 3.0
  endloop
endfacet
facet normal 1.0 3.4480130278303894e-18 -8.154084863112412e-17
  outer loop
    vertex 2.2 8.0 3.9999999999999987
    vertex 2.2 2.0000000000000004 3.9999999999999987
    vertex 2.2 8.0 3.0
  endloop
endfacet
facet normal -2.823363631331095e-17 -8.933966635801904e-17 1.0
  outer loop
    vertex 9.799999999999999 0.2 3.9999999999999987
    vertex 0.19999999999999996 2.0 3.9999999999999987
    vertex 0.19999999999999996 0.2 3.9999999999999987
  endloop
endfacet
facet normal -2.823363631331095e-17 -8.933966635801904e-17 1.0
  outer loop
    vertex 0.19999999999999996 2.0 3.9999999999999987
    vertex 9.799999999999999 0.2 3.9999999999999987
    vertex 2.2 2.0000000000000004 3.9999999999999987
  endloop
endfacet
facet normal -2.823363631331095e-17 -8.933966635801904e-17 1.0
  outer loop
    vertex 0.19999999999999996 2.0 3.9999999999999987
    vertex 2.2 2.0000000000000004 3.9999999999999987
    vertex 0.2 9.799999999999999 3.999999999999999
  endloop
endfacet
facet normal -2.823363631331095e-17 -8.933966635801904e-17 1.0
  outer loop
    vertex 0.2 9.799999999999999 3.999999999999999
    vertex 2.2 2.0000000000000004 3.9999999999999987
    vertex 2.0 9.799999999999999 3.999999999999999
  endloop
endfacet
facet normal -2.823363631331095e-17 -8.933966635801904e-17 1.0
  outer loop
    vertex 2.2 2.0000000000000004 3.9999999999999987
    vertex 9.799999999999999 0.2 3.9999999999999987
    vertex 7.799999999999999 1.8 3.9999999999999987
  endloop
endfacet
facet normal -2.823363631331095e-17 -8.933966635801904e-17 1.0
  outer loop
    vertex 7.799999999999999 1.8 3.9999999999999987
    vertex 9.799999999999999 0.2 3.9999999999999987
    vertex 9.799999999999999 1.8 3.9999999999999987
  endloop
endfacet
facet normal -2.823363631331095e-17 -8.933966635801904e-17 1.0
  outer loop
    vertex 7.799999999999999 2.0 3.9999999999999987
    vertex 2.2 2.0000000000000004 3.9999999999999987
    vertex 7.799999999999999 1.8 3.9999999999999987
  endloop
endfacet
facet normal -2.823363631331095e-17 -8.933966635801904e-17 1.0
  outer loop
    vertex 2.0 9.799999999999999 3.999999999999999
    vertex 2.2 8.0 3.9999999999999987
    vertex 9.799999999999999 9.799999999999999 4.0
  endloop
endfacet
facet normal -2.823363631331095e-17 -8.933966635801904e-17 1.0
  outer loop
    vertex 2.2 8.0 3.9999999999999987
    vertex 2.0 9.799999999999999 3.999999999999999
    vertex 2.2 2.0000000000000004 3.9999999999999987
  endloop
endfacet
facet normal -2.823363631331095e-17 -8.933966635801904e-17 1.0
  outer loop
    vertex 9.799999999999999 9.799999999999999 4.0
    vertex 2.2 8.0 3.9999999999999987
    vertex 7.799999999999999 8.200000000000001 3.9999999999999987
  endloop
endfacet
facet normal -2.823363631331095e-17 -8.933966635801904e-17 1.0
  outer loop
    vertex 7.799999999999999 8.200000000000001 3.9999999999999987
    vertex 2.2 8.0 3.9999999999999987
    vertex 7.799999999999999 8.0 3.9999999999999987
  endloop
endfacet
facet normal -2.823363631331095e-17 -8.933966635801904e-17 1.0
  outer loop
    vertex 9.799999999999999 9.799999999999999 4.0
    vertex 7.799999999999999 8.200000000000001 3.9999999999999987
    vertex 9.799999999999999 8.200000000000001 4.0
  endloop
endfacet
facet normal -0.0 -0.0 1.0
  outer loop
    vertex 2.0 2.0 0.0
    vertex 3.1922015426799706e-17 10.0 0.0
    vertex 0.0 2.0 0.0
  endloop
endfacet
facet normal -0.0 -0.0 1.0
  outer loop
    vertex 3.1922015426799706e-17 10.0 0.0
    vertex 2.0 2.0 0.0
    vertex 2.0 10.0 0.0
  endloop
endfacet
facet normal -0.0 1.0 -0.0
  outer loop
    vertex -4.955940082370638e-17 10.0 5.999999999999999
    vertex 2.0 10.0 0.0
    vertex 3.1922015426799706e-17 10.0 0.0
  endloop
endfacet
facet normal -0.0 1.0 -0.0
  outer loop
    vertex 2.0 10.0 0.0
    vertex -4.955940082370638e-17 10.0 5.999999999999999
    vertex 10.0 10.0 0.0
  endloop
endfacet
facet normal -0.0 1.0 -0.0
  outer loop
    vertex 10.0 10.0 0.0
    vertex -4.955940082370638e-17 10.0 5.999999999999999
    vertex 10.0 10.0 6.0
  endloop
endfacet
facet normal 3.2907551588569275e-17 1.0 9.188430502096117e-17
  outer loop
    vertex 2.2 2.2 5.999999999999998
    vertex 2.4000000000000004 2.2 4.999999999999998
    vertex 2.2 2.2 4.999999999999998
  endloop
endfacet
facet normal 3.2907551588569275e-17 1.0 9.188430502096117e-17
  outer loop
    vertex 2.4000000000000004 2.2 4.999999999999998
    vertex 2.2 2.2 5.999999999999998
    vertex 7.599999999999999 2.2 4.999999999999998
  endloop
endfacet
facet normal 3.2907551588569275e-17 1.0 9.188430502096117e-17
  outer loop
    vertex 7.599999999999999 2.2 4.999999999999998
    vertex 2.2 2.2 5.999999999999998
    vertex 7.599999999999999 2.2 5.999999999999998
  endloop
endfacet
facet normal 3.2907551588569275e-17 1.0 9.188430502096117e-17
  outer loop
    vertex 2.4000000000000004 2.2 4.999999999999998
    vertex 7.599999999999999 2.2 3.9999999999999987
    vertex 2.4000000000000004 2.2 3.9999999999999987
  endloop
endfacet
facet normal 3.2907551588569275e-17 1.0 9.188430502096117e-17
  outer loop
    vertex 7.599999999999999 2.2 3.9999999999999987
    vertex 2.4000000000000004 2.2 4.999999999999998
    vertex 7.599999999999999 2.2 4.999999999999998
  endloop
endfacet
facet normal 0.0 -1.0 0.0
  outer loop
    vertex 6.999999999999999 2.0 3.899999999999998
    vertex 3.0 2.0 0.0
    vertex 6.999999999999999 2.0 0.0
  endloop
endfacet
facet normal 0.0 -1.0 0.0
  outer loop
    vertex 3.0 2.0 0.0
    vertex 6.999999999999999 2.0 3.899999999999998
    vertex 3.0 2.0 3.899999999999998
  endloop
endfacet
facet normal 0.0 0.0 -1.0
  outer loop
    vertex 6.999999999999999 2.0 3.899999999999998
    vertex 3.0 1.7 3.899999999999998
    vertex 3.0 2.0 3.899999999999998
  endloop
endfacet
facet normal 0.0 0.0 -1.0
  outer loop
    vertex 3.0 1.7 3.899999999999998
    vertex 6.999999999999999 2.0 3.899999999999998
    vertex 6.999999999999999 1.7 3.899999999999998
  endloop
endfacet
facet normal 0.0 0.0 -1.0
  outer loop
    vertex 6.999999999999999 2.0 0.0
    vertex 3.0 1.7 0.0
    vertex 3.0 2.0 0.0
  endloop
endfacet
facet normal 0.0 0.0 -1.0
  outer loop
    vertex 3.0 1.7 0.0
    vertex 6.999999999999999 2.0 0.0
    vertex 6.999999999999999 1.7 0.0
  endloop
endfacet
endsolid skir
