solid corridor
facet normal 0.0 0.0 -1.0
  outer loop
    vertex -1.0 10.0 0.0
    vertex -0.8 9.799999999999999 0.0
    vertex -1.0 0.0 0.0
  endloop
endfacet
facet normal 0.0 0.0 -1.0
  outer loop
    vertex -0.8 9.799999999999999 0.0
    vertex -1.0 10.0 0.0
    vertex 41.0 10.0 0.0
  endloop
endfacet
facet normal 0.0 0.0 -1.0
  outer loop
    vertex -0.8 9.799999999999999 0.0
    vertex 41.0 10.0 0.0
    vertex 40.8 9.799999999999999 0.0
  endloop
endfacet
facet normal 0.0 0.0 -1.0
  outer loop
    vertex 40.8 9.799999999999999 0.0
    vertex 41.0 10.0 0.0
    vertex 40.8 0.19999999999999998 0.0
  endloop
endfacet
facet normal 0.0 0.0 -1.0
  outer loop
    vertex -1.0 0.0 0.0
    vertex -0.8 0.2 0.0
    vertex 41.0 0.0 0.0
  endloop
endfacet
facet normal 0.0 0.0 -1.0
  outer loop
    vertex -0.8 0.2 0.0
    vertex -1.0 0.0 0.0
    vertex -0.8 9.799999999999999 0.0
  endloop
endfacet
facet normal 0.0 0.0 -1.0
  outer loop
    vertex 41.0 0.0 0.0
    vertex -0.8 0.2 0.0
    vertex 40.8 0.19999999999999998 0.0
  endloop
endfacet
facet normal 0.0 0.0 -1.0
  outer loop
    vertex 41.0 0.0 0.0
    vertex 40.8 0.19999999999999998 0.0
    vertex 41.0 10.0 0.0
  endloop
endfacet
facet normal 0.0 0.0 -1.0
  outer loop
    vertex -0.8 9.799999999999999 0.0
    vertex -0.49999999999999956 5.0 0.0
    vertex -0.8 0.2 0.0
  endloop
endfacet
facet normal 0.0 0.0 -1.0
  outer loop
    vertex -0.49999999999999956 5.0 0.0
    vertex -0.8 9.799999999999999 0.0
    vertex -0.48296291314453366 5.129409522551261 0.0
  endloop
endfacet
facet normal 0.0 0.0 -1.0
  outer loop
    vertex -0.48296291314453366 5.129409522551261 0.0
    vertex -0.8 9.799999999999999 0.0
    vertex -0.43301270189221885 5.25 0.0
  endloop
endfacet
facet normal 0.0 0.0 -1.0
  outer loop
    vertex -0.43301270189221885 5.25 0.0
    vertex -0.8 9.799999999999999 0.0
    vertex -0.3535533905932734 5.353553390593273 0.0
  endloop
endfacet
facet normal 0.0 0.0 -1.0
  outer loop
    vertex -0.3535533905932734 5.353553390593273 0.0
    vertex -0.8 9.799999999999999 0.0
    vertex 2.3024953278536717 7.6243674945925495 -5.775291356258094e-15
  endloop
endfacet
facet normal 0.0 0.0 -1.0
  outer loop
    vertex 2.3024953278536717 7.6243674945925495 -5.775291356258094e-15
    vertex -0.8 9.799999999999999 0.0
    vertex 13.111509460666873 9.552294043358073 0.0
  endloop
endfacet
facet normal 0.0 0.0 -1.0
  outer loop
    vertex 13.111509460666873 9.552294043358073 0.0
    vertex -0.8 9.799999999999999 0.0
    vertex 40.8 9.799999999999999 0.0
  endloop
endfacet
facet normal 0.0 0.0 -1.0
  outer loop
    vertex -0.3535533905932734 5.353553390593273 0.0
    vertex 2.3024953278536717 7.6243674945925495 -5.775291356258094e-15
    vertex -0.2499999999999997 5.433012701892219 0.0
  endloop
endfacet
facet normal 0.0 0.0 -1.0
  outer loop
    vertex -0.2499999999999997 5.433012701892219 0.0
    vertex 2.3024953278536717 7.6243674945925495 -5.775291356258094e-15
    vertex -0.1294095225512602 5.482962913144534 0.0
  endloop
endfacet
facet normal 0.0 0.0 -1.0
  outer loop
    vertex -0.1294095225512602 5.482962913144534 0.0
    vertex 2.3024953278536717 7.6243674945925495 -5.775291356258094e-15
    vertex 9.023892744153272e-17 5.5 0.0
  endloop
endfacet
facet normal 0.0 0.0 -1.0
  outer loop
    vertex 9.023892744153272e-17 5.5 0.0
    vertex 2.3024953278536717 7.6243674945925495 -5.775291356258094e-15
    vertex 0.12940952255126076 5.482962913144534 0.0
  endloop
endfacet
facet normal 0.0 0.0 -1.0
  outer loop
    vertex 0.12940952255126076 5.482962913144534 0.0
    vertex 2.3024953278536717 7.6243674945925495 -5.775291356258094e-15
    vertex 0.2500000000000001 5.433012701892219 0.0
  endloop
endfacet
facet normal 0.0 0.0 -1.0
  outer loop
    vertex 0.2500000000000001 5.433012701892219 0.0
    vertex 2.3024953278536717 7.6243674945925495 -5.775291356258094e-15
    vertex 0.3535533905932737 5.353553390593273 0.0
  endloop
endfacet
facet normal 0.0 0.0 -1.0
  outer loop
    vertex 0.3535533905932737 5.353553390593273 0.0
    vertex 2.3024953278536717 7.6243674945925495 -5.775291356258094e-15
    vertex 0.4330127018922193 5.249999999999999 0.0
  endloop
endfacet
facet normal 0.0 0.0 -1.0
  outer loop
    vertex 0.4330127018922193 5.249999999999999 0.0
    vertex 2.3024953278536717 7.6243674945925495 -5.775291356258094e-15
    vertex 0.48296291314453393 5.12940952255126 0.0
  endloop
endfacet
facet normal 0.0 0.0 -1.0
  outer loop
    vertex 0.48296291314453393 5.12940952255126 0.0
    vertex 2.3024953278536717 7.6243674945925495 -5.775291356258094e-15
    vertex 0.4999999999999997 5.0 0.0
  endloop
endfacet
facet normal 0.0 0.0 -1.0
  outer loop
    vertex 2.3024953278536717 7.6243674945925495 -5.775291356258094e-15
    vertex 13.111509460666873 9.552294043358073 0.0
    vertex 8.362088776201928 8.624367494592551 -5.775291356258094e-15
  endloop
endfacet
facet normal 0.0 0.0 -1.0
  outer loop
    vertex 2.3024953278536717 7.6243674945925495 -5.775291356258094e-15
    vertex 8.362088776201928 8.624367494592551 -5.775291356258094e-15
    vertex 3.3024953278536717 7.6243674945925495 -5.775291356258094e-15
  endloop
endfacet
facet normal 0.0 0.0 -1.0
  outer loop
    vertex 3.3024953278536717 7.6243674945925495 -5.775291356258094e-15
    vertex 8.362088776201928 8.624367494592551 -5.775291356258094e-15
    vertex 3.3024953278536717 6.6243674945925495 -5.775291356258094e-15
  endloop
endfacet
facet normal 0.0 0.0 -1.0
  outer loop
    vertex 3.3024953278536717 6.6243674945925495 -5.775291356258094e-15
    vertex 8.362088776201928 8.624367494592551 -5.775291356258094e-15
    vertex 3.3024953278536717 4.349966765432979 -5.775291356258094e-15
  endloop
endfacet
facet normal 0.0 0.0 -1.0
  outer loop
    vertex 3.3024953278536717 4.349966765432979 -5.775291356258094e-15
    vertex 8.362088776201928 8.624367494592551 -5.775291356258094e-15
    vertex 3.3024953278536717 3.3499667654329786 -5.775291356258094e-15
  endloop
endfacet
facet normal 0.0 0.0 -1.0
  outer loop
    vertex 3.3024953278536717 3.3499667654329786 -5.775291356258094e-15
    vertex 8.362088776201928 8.624367494592551 -5.775291356258094e-15
    vertex 5.796859651366955 5.950150168940933 0.0
  endloop
endfacet
facet normal 0.0 0.0 -1.0
  outer loop
    vertex 5.796859651366955 5.950150168940933 0.0
    vertex 8.362088776201928 8.624367494592551 -5.775291356258094e-15
    vertex 6.7968596513669555 5.950150168940933 0.0
  endloop
endfacet
facet normal 0.0 0.0 -1.0
  outer loop
    vertex 6.7968596513669555 5.950150168940933 0.0
    vertex 8.362088776201928 8.624367494592551 -5.775291356258094e-15
    vertex 6.7968596513669555 4.950150168940932 0.0
  endloop
endfacet
facet normal 0.0 0.0 -1.0
  outer loop
    vertex 8.362088776201928 8.624367494592551 -5.775291356258094e-15
    vertex 13.111509460666873 9.552294043358073 0.0
    vertex 9.36208877620193 8.624367494592551 -5.775291356258094e-15
  endloop
endfacet
facet normal 0.0 0.0 -1.0
  outer loop
    vertex 9.36208877620193 8.624367494592551 -5.775291356258094e-15
    vertex 13.111509460666873 9.552294043358073 0.0
    vertex 9.36208877620193 7.6243674945925495 -5.775291356258094e-15
  endloop
endfacet
facet normal 0.0 0.0 -1.0
  outer loop
    vertex 9.36208877620193 7.6243674945925495 -5.775291356258094e-15
    vertex 13.111509460666873 9.552294043358073 0.0
    vertex 9.607613812525267 3.6905601926179403 0.0
  endloop
endfacet
facet normal 0.0 0.0 -1.0
  outer loop
    vertex 9.607613812525267 3.6905601926179403 0.0
    vertex 13.111509460666873 9.552294043358073 0.0
    vertex 11.816670505758843 7.264095462858792 -5.775291356258094e-15
  endloop
endfacet
facet normal 0.0 0.0 -1.0
  outer loop
    vertex 9.607613812525267 3.6905601926179403 0.0
    vertex 11.816670505758843 7.264095462858792 -5.775291356258094e-15
    vertex 10.607613812525267 3.6905601926179403 0.0
  endloop
endfacet
facet normal 0.0 0.0 -1.0
  outer loop
    vertex 10.607613812525267 3.6905601926179403 0.0
    vertex 11.816670505758843 7.264095462858792 -5.775291356258094e-15
    vertex 10.607613812525267 2.6905601926179394 0.0
  endloop
endfacet
facet normal 0.0 0.0 -1.0
  outer loop
    vertex 11.816670505758843 7.264095462858792 -5.775291356258094e-15
    vertex 13.111509460666873 9.552294043358073 0.0
    vertex 12.816670505758843 7.264095462858792 -5.775291356258094e-15
  endloop
endfacet
facet normal 0.0 0.0 -1.0
  outer loop
    vertex 12.816670505758843 7.264095462858792 -5.775291356258094e-15
    vertex 13.111509460666873 9.552294043358073 0.0
    vertex 12.816670505758843 6.2640954628587915 -5.775291356258094e-15
  endloop
endfacet
facet normal 0.0 0.0 -1.0
  outer loop
    vertex 12.816670505758843 6.2640954628587915 -5.775291356258094e-15
    vertex 13.111509460666873 9.552294043358073 0.0
    vertex 12.858291664913416 1.8378857348122324 0.0
  endloop
endfacet
facet normal 0.0 0.0 -1.0
  outer loop
    vertex 12.858291664913416 1.8378857348122324 0.0
    vertex 13.111509460666873 9.552294043358073 0.0
    vertex 12.858291664913416 0.8378857348122319 0.0
  endloop
endfacet
facet normal 0.0 0.0 -1.0
  outer loop
    vertex 13.111509460666873 9.552294043358073 0.0
    vertex 40.8 9.799999999999999 0.0
    vertex 14.111509460666873 9.552294043358073 0.0
  endloop
endfacet
facet normal 0.0 0.0 -1.0
  outer loop
    vertex 14.111509460666873 9.552294043358073 0.0
    vertex 40.8 9.799999999999999 0.0
    vertex 14.111509460666873 8.55229404335807 0.0
  endloop
endfacet
facet normal 0.0 0.0 -1.0
  outer loop
    vertex 14.111509460666873 8.55229404335807 0.0
    vertex 40.8 9.799999999999999 0.0
    vertex 16.80267854798184 7.0291620792824325 0.0
  endloop
endfacet
facet normal 0.0 0.0 -1.0
  outer loop
    vertex 14.111509460666873 8.55229404335807 0.0
    vertex 16.80267854798184 7.0291620792824325 0.0
    vertex 14.39262517211777 5.080098522561312 0.0
  endloop
endfacet
facet normal 0.0 0.0 -1.0
  outer loop
    vertex 14.39262517211777 5.080098522561312 0.0
    vertex 16.80267854798184 7.0291620792824325 0.0
    vertex 14.39262517211777 4.080098522561311 0.0
  endloop
endfacet
facet normal 0.0 0.0 -1.0
  outer loop
    vertex 16.80267854798184 7.0291620792824325 0.0
    vertex 40.8 9.799999999999999 0.0
    vertex 17.80267854798184 7.0291620792824325 0.0
  endloop
endfacet
facet normal 0.0 0.0 -1.0
  outer loop
    vertex 17.80267854798184 7.0291620792824325 0.0
    vertex 40.8 9.799999999999999 0.0
    vertex 17.80267854798184 6.029162079282431 0.0
  endloop
endfacet
facet normal 0.0 0.0 -1.0
  outer loop
    vertex 17.80267854798184 6.029162079282431 0.0
    vertex 40.8 9.799999999999999 0.0
    vertex 39.51703708685547 5.129409522551261 0.0
  endloop
endfacet
facet normal 0.0 0.0 -1.0
  outer loop
    vertex 17.80267854798184 6.029162079282431 0.0
    vertex 39.51703708685547 5.129409522551261 0.0
    vertex 39.5 5.0 0.0
  endloop
endfacet
facet normal 0.0 0.0 -1.0
  outer loop
    vertex 39.51703708685547 5.129409522551261 0.0
    vertex 40.8 9.799999999999999 0.0
    vertex 39.56698729810778 5.25 0.0
  endloop
endfacet
facet normal 0.0 0.0 -1.0
  outer loop
    vertex 39.56698729810778 5.25 0.0
    vertex 40.8 9.799999999999999 0.0
    vertex 39.64644660940672 5.353553390593273 0.0
  endloop
endfacet
facet normal 0.0 0.0 -1.0
  outer loop
    vertex 39.64644660940672 5.353553390593273 0.0
    vertex 40.8 9.799999999999999 0.0
    vertex 39.75 5.433012701892219 0.0
  endloop
endfacet
facet normal 0.0 0.0 -1.0
  outer loop
    vertex 39.75 5.433012701892219 0.0
    vertex 40.8 9.799999999999999 0.0
    vertex 39.87059047744874 5.482962913144534 0.0
  endloop
endfacet
facet normal 0.0 0.0 -1.0
  outer loop
    vertex 39.87059047744874 5.482962913144534 0.0
    vertex 40.8 9.799999999999999 0.0
    vertex 40.0 5.5 0.0
  endloop
endfacet
facet normal 0.0 0.0 -1.0
  outer loop
    vertex 40.0 5.5 0.0
    vertex 40.8 9.799999999999999 0.0
    vertex 40.12940952255126 5.482962913144534 0.0
  endloop
endfacet
facet normal 0.0 0.0 -1.0
  outer loop
    vertex 40.12940952255126 5.482962913144534 0.0
    vertex 40.8 9.799999999999999 0.0
    vertex 40.25 5.433012701892219 0.0
  endloop
endfacet
facet normal 0.0 0.0 -1.0
  outer loop
    vertex 40.25 5.433012701892219 0.0
    vertex 40.8 9.799999999999999 0.0
    vertex 40.35355339059328 5.353553390593273 0.0
  endloop
endfacet
facet normal 0.0 0.0 -1.0
  outer loop
    vertex 40.35355339059328 5.353553390593273 0.0
    vertex 40.8 9.799999999999999 0.0
    vertex 40.43301270189222 5.249999999999999 0.0
  endloop
endfacet
facet normal 0.0 0.0 -1.0
  outer loop
    vertex 40.43301270189222 5.249999999999999 0.0
    vertex 40.8 9.799999999999999 0.0
    vertex 40.48296291314453 5.12940952255126 0.0
  endloop
endfacet
facet normal 0.0 0.0 -1.0
  outer loop
    vertex 40.48296291314453 5.12940952255126 0.0
    vertex 40.8 9.799999999999999 0.0
    vertex 40.5 5.0 0.0
  endloop
endfacet
facet normal 0.0 0.0 -1.0
  outer loop
    vertex -0.8 0.2 0.0
    vertex 11.858291664913414 0.8378857348122319 0.0
    vertex 40.8 0.19999999999999998 0.0
  endloop
endfacet
facet normal 0.0 0.0 -1.0
  outer loop
    vertex 11.858291664913414 0.8378857348122319 0.0
    vertex -0.8 0.2 0.0
    vertex 2.3024953278536717 3.3499667654329786 -5.775291356258094e-15
  endloop
endfacet
facet normal 0.0 0.0 -1.0
  outer loop
    vertex 2.3024953278536717 3.3499667654329786 -5.775291356258094e-15
    vertex -0.8 0.2 0.0
    vertex -0.24999999999999992 4.566987298107781 0.0
  endloop
endfacet
facet normal 0.0 0.0 -1.0
  outer loop
    vertex -0.24999999999999992 4.566987298107781 0.0
    vertex -0.8 0.2 0.0
    vertex -0.35355339059327345 4.646446609406727 0.0
  endloop
endfacet
facet normal 0.0 0.0 -1.0
  outer loop
    vertex -0.35355339059327345 4.646446609406727 0.0
    vertex -0.8 0.2 0.0
    vertex -0.433012701892219 4.750000000000001 0.0
  endloop
endfacet
facet normal 0.0 0.0 -1.0
  outer loop
    vertex -0.433012701892219 4.750000000000001 0.0
    vertex -0.8 0.2 0.0
    vertex -0.4829629131445337 4.870590477448739 0.0
  endloop
endfacet
facet normal 0.0 0.0 -1.0
  outer loop
    vertex -0.4829629131445337 4.870590477448739 0.0
    vertex -0.8 0.2 0.0
    vertex -0.49999999999999956 5.0 0.0
  endloop
endfacet
facet normal 0.0 0.0 -1.0
  outer loop
    vertex 2.3024953278536717 3.3499667654329786 -5.775291356258094e-15
    vertex -0.24999999999999992 4.566987298107781 0.0
    vertex -0.12940952255126031 4.517037086855466 0.0
  endloop
endfacet
facet normal 0.0 0.0 -1.0
  outer loop
    vertex 2.3024953278536717 3.3499667654329786 -5.775291356258094e-15
    vertex -0.12940952255126031 4.517037086855466 0.0
    vertex 2.900658748416511e-17 4.5 0.0
  endloop
endfacet
facet normal 0.0 0.0 -1.0
  outer loop
    vertex 2.3024953278536717 3.3499667654329786 -5.775291356258094e-15
    vertex 2.900658748416511e-17 4.5 0.0
    vertex 0.12940952255126018 4.517037086855466 0.0
  endloop
endfacet
facet normal 0.0 0.0 -1.0
  outer loop
    vertex 2.3024953278536717 3.3499667654329786 -5.775291356258094e-15
    vertex 0.12940952255126018 4.517037086855466 0.0
    vertex 0.2499999999999998 4.56698729810778 0.0
  endloop
endfacet
facet normal 0.0 0.0 -1.0
  outer loop
    vertex 2.3024953278536717 3.3499667654329786 -5.775291356258094e-15
    vertex 0.2499999999999998 4.56698729810778 0.0
    vertex 0.3535533905932734 4.646446609406727 0.0
  endloop
endfacet
facet normal 0.0 0.0 -1.0
  outer loop
    vertex 2.3024953278536717 3.3499667654329786 -5.775291356258094e-15
    vertex 0.3535533905932734 4.646446609406727 0.0
    vertex 0.4330127018922189 4.75 0.0
  endloop
endfacet
facet normal 0.0 0.0 -1.0
  outer loop
    vertex 2.3024953278536717 3.3499667654329786 -5.775291356258094e-15
    vertex 0.4330127018922189 4.75 0.0
    vertex 0.4829629131445338 4.870590477448739 0.0
  endloop
endfacet
facet normal 0.0 0.0 -1.0
  outer loop
    vertex 2.3024953278536717 3.3499667654329786 -5.775291356258094e-15
    vertex 0.4829629131445338 4.870590477448739 0.0
    vertex 0.4999999999999997 5.0 0.0
  endloop
endfacet
facet normal 0.0 0.0 -1.0
  outer loop
    vertex 2.3024953278536717 3.3499667654329786 -5.775291356258094e-15
    vertex 0.4999999999999997 5.0 0.0
    vertex 2.3024953278536717 7.6243674945925495 -5.775291356258094e-15
  endloop
endfacet
facet normal 0.0 0.0 -1.0
  outer loop
    vertex 2.3024953278536717 3.3499667654329786 -5.775291356258094e-15
    vertex 2.3024953278536717 7.6243674945925495 -5.775291356258094e-15
    vertex 2.3024953278536717 6.6243674945925495 -5.775291356258094e-15
  endloop
endfacet
facet normal 0.0 0.0 -1.0
  outer loop
    vertex 2.3024953278536717 3.3499667654329786 -5.775291356258094e-15
    vertex 2.3024953278536717 6.6243674945925495 -5.775291356258094e-15
    vertex 2.3024953278536717 4.349966765432979 -5.775291356258094e-15
  endloop
endfacet
facet normal 0.0 0.0 -1.0
  outer loop
    vertex 11.858291664913414 0.8378857348122319 0.0
    vertex 2.3024953278536717 3.3499667654329786 -5.775291356258094e-15
    vertex 3.3024953278536717 3.3499667654329786 -5.775291356258094e-15
  endloop
endfacet
facet normal 0.0 0.0 -1.0
  outer loop
    vertex 11.858291664913414 0.8378857348122319 0.0
    vertex 3.3024953278536717 3.3499667654329786 -5.775291356258094e-15
    vertex 5.796859651366955 4.950150168940932 0.0
  endloop
endfacet
facet normal 0.0 0.0 -1.0
  outer loop
    vertex 5.796859651366955 4.950150168940932 0.0
    vertex 3.3024953278536717 3.3499667654329786 -5.775291356258094e-15
    vertex 5.796859651366955 5.950150168940933 0.0
  endloop
endfacet
facet normal 0.0 0.0 -1.0
  outer loop
    vertex 11.858291664913414 0.8378857348122319 0.0
    vertex 5.796859651366955 4.950150168940932 0.0
    vertex 6.7968596513669555 4.950150168940932 0.0
  endloop
endfacet
facet normal 0.0 0.0 -1.0
  outer loop
    vertex 11.858291664913414 0.8378857348122319 0.0
    vertex 6.7968596513669555 4.950150168940932 0.0
    vertex 9.607613812525267 2.6905601926179394 0.0
  endloop
endfacet
facet normal 0.0 0.0 -1.0
  outer loop
    vertex 9.607613812525267 2.6905601926179394 0.0
    vertex 6.7968596513669555 4.950150168940932 0.0
    vertex 8.362088776201928 7.6243674945925495 -5.775291356258094e-15
  endloop
endfacet
facet normal 0.0 0.0 -1.0
  outer loop
    vertex 8.362088776201928 7.6243674945925495 -5.775291356258094e-15
    vertex 6.7968596513669555 4.950150168940932 0.0
    vertex 8.362088776201928 8.624367494592551 -5.775291356258094e-15
  endloop
endfacet
facet normal 0.0 0.0 -1.0
  outer loop
    vertex 9.607613812525267 2.6905601926179394 0.0
    vertex 8.362088776201928 7.6243674945925495 -5.775291356258094e-15
    vertex 9.36208877620193 7.6243674945925495 -5.775291356258094e-15
  endloop
endfacet
facet normal 0.0 0.0 -1.0
  outer loop
    vertex 9.607613812525267 2.6905601926179394 0.0
    vertex 9.36208877620193 7.6243674945925495 -5.775291356258094e-15
    vertex 9.607613812525267 3.6905601926179403 0.0
  endloop
endfacet
facet normal 0.0 0.0 -1.0
  outer loop
    vertex 11.858291664913414 0.8378857348122319 0.0
    vertex 9.607613812525267 2.6905601926179394 0.0
    vertex 10.607613812525267 2.6905601926179394 0.0
  endloop
endfacet
facet normal 0.0 0.0 -1.0
  outer loop
    vertex 11.858291664913414 0.8378857348122319 0.0
    vertex 10.607613812525267 2.6905601926179394 0.0
    vertex 11.816670505758843 6.2640954628587915 -5.775291356258094e-15
  endloop
endfacet
facet normal 0.0 0.0 -1.0
  outer loop
    vertex 11.816670505758843 6.2640954628587915 -5.775291356258094e-15
    vertex 10.607613812525267 2.6905601926179394 0.0
    vertex 11.816670505758843 7.264095462858792 -5.775291356258094e-15
  endloop
endfacet
facet normal 0.0 0.0 -1.0
  outer loop
    vertex 11.858291664913414 0.8378857348122319 0.0
    vertex 11.816670505758843 6.2640954628587915 -5.775291356258094e-15
    vertex 11.858291664913414 1.8378857348122324 0.0
  endloop
endfacet
facet normal 0.0 0.0 -1.0
  outer loop
    vertex 40.8 0.19999999999999998 0.0
    vertex 11.858291664913414 0.8378857348122319 0.0
    vertex 12.858291664913416 0.8378857348122319 0.0
  endloop
endfacet
facet normal 0.0 0.0 -1.0
  outer loop
    vertex 40.8 0.19999999999999998 0.0
    vertex 12.858291664913416 0.8378857348122319 0.0
    vertex 13.392625172117768 4.080098522561311 0.0
  endloop
endfacet
facet normal 0.0 0.0 -1.0
  outer loop
    vertex 13.392625172117768 4.080098522561311 0.0
    vertex 12.858291664913416 0.8378857348122319 0.0
    vertex 13.111509460666873 8.55229404335807 0.0
  endloop
endfacet
facet normal 0.0 0.0 -1.0
  outer loop
    vertex 13.111509460666873 8.55229404335807 0.0
    vertex 12.858291664913416 0.8378857348122319 0.0
    vertex 13.111509460666873 9.552294043358073 0.0
  endloop
endfacet
facet normal 0.0 0.0 -1.0
  outer loop
    vertex 13.392625172117768 4.080098522561311 0.0
    vertex 13.111509460666873 8.55229404335807 0.0
    vertex 13.392625172117768 5.080098522561312 0.0
  endloop
endfacet
facet normal 0.0 0.0 -1.0
  outer loop
    vertex 40.8 0.19999999999999998 0.0
    vertex 13.392625172117768 4.080098522561311 0.0
    vertex 14.39262517211777 4.080098522561311 0.0
  endloop
endfacet
facet normal 0.0 0.0 -1.0
  outer loop
    vertex 40.8 0.19999999999999998 0.0
    vertex 14.39262517211777 4.080098522561311 0.0
    vertex 16.80267854798184 6.029162079282431 0.0
  endloop
endfacet
facet normal 0.0 0.0 -1.0
  outer loop
    vertex 16.80267854798184 6.029162079282431 0.0
    vertex 14.39262517211777 4.080098522561311 0.0
    vertex 16.80267854798184 7.0291620792824325 0.0
  endloop
endfacet
facet normal 0.0 0.0 -1.0
  outer loop
    vertex 40.8 0.19999999999999998 0.0
    vertex 16.80267854798184 6.029162079282431 0.0
    vertex 17.80267854798184 6.029162079282431 0.0
  endloop
endfacet
facet normal 0.0 0.0 -1.0
  outer loop
    vertex 40.8 0.19999999999999998 0.0
    vertex 17.80267854798184 6.029162079282431 0.0
    vertex 39.51703708685547 4.870590477448739 0.0
  endloop
endfacet
facet normal 0.0 0.0 -1.0
  outer loop
    vertex 39.51703708685547 4.870590477448739 0.0
    vertex 17.80267854798184 6.029162079282431 0.0
    vertex 39.5 5.0 0.0
  endloop
endfacet
facet normal 0.0 0.0 -1.0
  outer loop
    vertex 40.8 0.19999999999999998 0.0
    vertex 39.51703708685547 4.870590477448739 0.0
    vertex 39.56698729810778 4.750000000000001 0.0
  endloop
endfacet
facet normal 0.0 0.0 -1.0
  outer loop
    vertex 40.8 0.19999999999999998 0.0
    vertex 39.56698729810778 4.750000000000001 0.0
    vertex 39.64644660940672 4.646446609406727 0.0
  endloop
endfacet
facet normal 0.0 0.0 -1.0
  outer loop
    vertex 40.8 0.19999999999999998 0.0
    vertex 39.64644660940672 4.646446609406727 0.0
    vertex 39.75 4.566987298107781 0.0
  endloop
endfacet
facet normal 0.0 0.0 -1.0
  outer loop
    vertex 40.8 0.19999999999999998 0.0
    vertex 39.75 4.566987298107781 0.0
    vertex 39.87059047744874 4.517037086855466 0.0
  endloop
endfacet
facet normal 0.0 0.0 -1.0
  outer loop
    vertex 40.8 0.19999999999999998 0.0
    vertex 39.87059047744874 4.517037086855466 0.0
    vertex 40.0 4.5 0.0
  endloop
endfacet
facet normal 0.0 0.0 -1.0
  outer loop
    vertex 40.8 0.19999999999999998 0.0
    vertex 40.0 4.5 0.0
    vertex 40.12940952255126 4.517037086855466 0.0
  endloop
endfacet
facet normal 0.0 0.0 -1.0
  outer loop
    vertex 40.8 0.19999999999999998 0.0
    vertex 40.12940952255126 4.517037086855466 0.0
    vertex 40.25 4.56698729810778 0.0
  endloop
endfacet
facet normal 0.0 0.0 -1.0
  outer loop
    vertex 40.8 0.19999999999999998 0.0
    vertex 40.25 4.56698729810778 0.0
    vertex 40.35355339059328 4.646446609406727 0.0
  endloop
endfacet
facet normal 0.0 0.0 -1.0
  outer loop
    vertex 40.8 0.19999999999999998 0.0
    vertex 40.35355339059328 4.646446609406727 0.0
    vertex 40.43301270189222 4.75 0.0
  endloop
endfacet
facet normal 0.0 0.0 -1.0
  outer loop
    vertex 40.8 0.19999999999999998 0.0
    vertex 40.43301270189222 4.75 0.0
    vertex 40.48296291314453 4.870590477448739 0.0
  endloop
endfacet
facet normal 0.0 0.0 -1.0
  outer loop
    vertex 40.8 0.19999999999999998 0.0
    vertex 40.48296291314453 4.870590477448739 0.0
    vertex 40.5 5.0 0.0
  endloop
endfacet
facet normal 0.0 0.0 -1.0
  outer loop
    vertex 40.8 0.19999999999999998 0.0
    vertex 40.5 5.0 0.0
    vertex 40.8 9.799999999999999 0.0
  endloop
endfacet
facet normal 0.0 0.0 -1.0
  outer loop
    vertex 14.111509460666873 8.55229404335807 0.0
    vertex 13.392625172117768 5.080098522561312 0.0
    vertex 13.111509460666873 8.55229404335807 0.0
  endloop
endfacet
facet normal 0.0 0.0 -1.0
  outer loop
    vertex 13.392625172117768 5.080098522561312 0.0
    vertex 14.111509460666873 8.55229404335807 0.0
    vertex 14.39262517211777 5.080098522561312 0.0
  endloop
endfacet
facet normal 0.0 0.0 -1.0
  outer loop
    vertex 12.816670505758843 6.2640954628587915 -5.775291356258094e-15
    vertex 11.858291664913414 1.8378857348122324 0.0
    vertex 11.816670505758843 6.2640954628587915 -5.775291356258094e-15
  endloop
endfacet
facet normal 0.0 0.0 -1.0
  outer loop
    vertex 11.858291664913414 1.8378857348122324 0.0
    vertex 12.816670505758843 6.2640954628587915 -5.775291356258094e-15
    vertex 12.858291664913416 1.8378857348122324 0.0
  endloop
endfacet
facet normal 0.0 0.0 -1.0
  outer loop
    vertex 3.3024953278536717 6.6243674945925495 -5.775291356258094e-15
    vertex 2.3024953278536717 4.349966765432979 -5.775291356258094e-15
    vertex 2.3024953278536717 6.6243674945925495 -5.775291356258094e-15
  endloop
endfacet
facet normal 0.0 0.0 -1.0
  outer loop
    vertex 2.3024953278536717 4.349966765432979 -5.775291356258094e-15
    vertex 3.3024953278536717 6.6243674945925495 -5.775291356258094e-15
    vertex 3.3024953278536717 4.349966765432979 -5.775291356258094e-15
  endloop
endfacet
facet normal -0.0 -0.0 1.0
  outer loop
    vertex -1.0 0.0 4.0
    vertex -0.8 0.2 4.0
    vertex -1.0 10.0 4.0
  endloop
endfacet
facet normal -0.0 -0.0 1.0
  outer loop
    vertex -0.8 0.2 4.0
    vertex -1.0 0.0 4.0
    vertex 41.0 0.0 4.0
  endloop
endfacet
facet normal -0.0 -0.0 1.0
  outer loop
    vertex -0.8 0.2 4.0
    vertex 41.0 0.0 4.0
    vertex 40.8 0.19999999999999998 4.0
  endloop
endfacet
facet normal -0.0 -0.0 1.0
  outer loop
    vertex 40.8 0.19999999999999998 4.0
    vertex 41.0 0.0 4.0
    vertex 40.8 9.799999999999999 4.0
  endloop
endfacet
facet normal -0.0 -0.0 1.0
  outer loop
    vertex -1.0 10.0 4.0
    vertex -0.8 9.799999999999999 4.0
    vertex 41.0 10.0 4.0
  endloop
endfacet
facet normal -0.0 -0.0 1.0
  outer loop
    vertex -0.8 9.799999999999999 4.0
    vertex -1.0 10.0 4.0
    vertex -0.8 0.2 4.0
  endloop
endfacet
facet normal -0.0 -0.0 1.0
  outer loop
    vertex 41.0 10.0 4.0
    vertex -0.8 9.799999999999999 4.0
    vertex 40.8 9.799999999999999 4.0
  endloop
endfacet
facet normal -0.0 -0.0 1.0
  outer loop
    vertex 41.0 10.0 4.0
    vertex 40.8 9.799999999999999 4.0
    vertex 41.0 0.0 4.0
  endloop
endfacet
facet normal -0.0 -1.0 -0.0
  outer loop
    vertex 41.0 0.0 4.0
    vertex -1.0 0.0 0.0
    vertex 41.0 0.0 0.0
  endloop
endfacet
facet normal -0.0 -1.0 -0.0
  outer loop
    vertex -1.0 0.0 0.0
    vertex 41.0 0.0 4.0
    vertex -1.0 0.0 4.0
  endloop
endfacet
facet normal -1.0 0.0 0.0
  outer loop
    vertex -1.0 10.0 4.0
    vertex -1.0 0.0 0.0
    vertex -1.0 0.0 4.0
  endloop
endfacet
facet normal -1.0 0.0 0.0
  outer loop
    vertex -1.0 0.0 0.0
    vertex -1.0 10.0 4.0
    vertex -1.0 10.0 0.0
  endloop
endfacet
facet normal -0.0 1.0 0.0
  outer loop
    vertex -1.0 10.0 4.0
    vertex 41.0 10.0 0.0
    vertex -1.0 10.0 0.0
  endloop
endfacet
facet normal -0.0 1.0 0.0
  outer loop
    vertex 41.0 10.0 0.0
    vertex -1.0 10.0 4.0
    vertex 41.0 10.0 4.0
  endloop
endfacet
facet normal 1.0 0.0 0.0
  outer loop
    vertex 41.0 10.0 0.0
    vertex 41.0 0.0 4.0
    vertex 41.0 0.0 0.0
  endloop
endfacet
facet normal 1.0 0.0 0.0
  outer loop
    vertex 41.0 0.0 4.0
    vertex 41.0 10.0 0.0
    vertex 41.0 10.0 4.0
  endloop
endfacet
facet normal -1.0 0.0 0.0
  outer loop
    vertex 40.8 9.799999999999999 4.0
    vertex 40.8 0.19999999999999998 0.0
    vertex 40.8 0.19999999999999998 4.0
  endloop
endfacet
facet normal -1.0 0.0 0.0
  outer loop
    vertex 40.8 0.19999999999999998 0.0
    vertex 40.8 9.799999999999999 4.0
    vertex 40.8 9.799999999999999 0.0
  endloop
endfacet
facet normal -0.0 -1.0 -0.0
  outer loop
    vertex 40.8 9.799999999999999 4.0
    vertex -0.8 9.799999999999999 0.0
    vertex 40.8 9.799999999999999 0.0
  endloop
endfacet
facet normal -0.0 -1.0 -0.0
  outer loop
    vertex -0.8 9.799999999999999 0.0
    vertex 40.8 9.799999999999999 4.0
    vertex -0.8 9.799999999999999 4.0
  endloop
endfacet
facet normal 1.0 0.0 0.0
  outer loop
    vertex -0.8 9.799999999999999 0.0
    vertex -0.8 0.2 4.0
    vertex -0.8 0.2 0.0
  endloop
endfacet
facet normal 1.0 0.0 0.0
  outer loop
    vertex -0.8 0.2 4.0
    vertex -0.8 9.799999999999999 0.0
    vertex -0.8 9.799999999999999 4.0
  endloop
endfacet
facet normal 1.084602493287653e-18 1.0 0.0
  outer loop
    vertex -0.8 0.2 4.0
    vertex 40.8 0.19999999999999998 0.0
    vertex -0.8 0.2 0.0
  endloop
endfacet
facet normal 1.084602493287653e-18 1.0 0.0
  outer loop
    vertex 40.8 0.19999999999999998 0.0
    vertex -0.8 0.2 4.0
    vertex 40.8 0.19999999999999998 4.0
  endloop
endfacet
facet normal 0.0 0.0 -1.0
  outer loop
    vertex -0.48296291314453366 5.129409522551261 0.0
    vertex -0.4829629131445337 4.870590477448739 0.0
    vertex -0.49999999999999956 5.0 0.0
  endloop
endfacet
facet normal 0.0 0.0 -1.0
  outer loop
    vertex -0.4829629131445337 4.870590477448739 0.0
    vertex -0.48296291314453366 5.129409522551261 0.0
    vertex -0.433012701892219 4.750000000000001 0.0
  endloop
endfacet
facet normal 0.0 0.0 -1.0
  outer loop
    vertex -0.433012701892219 4.750000000000001 0.0
    vertex -0.48296291314453366 5.129409522551261 0.0
    vertex -0.43301270189221885 5.25 0.0
  endloop
endfacet
facet normal 0.0 0.0 -1.0
  outer loop
    vertex -0.433012701892219 4.750000000000001 0.0
    vertex -0.43301270189221885 5.25 0.0
    vertex -0.35355339059327345 4.646446609406727 0.0
  endloop
endfacet
facet normal 0.0 0.0 -1.0
  outer loop
    vertex -0.35355339059327345 4.646446609406727 0.0
    vertex -0.43301270189221885 5.25 0.0
    vertex -0.3535533905932734 5.353553390593273 0.0
  endloop
endfacet
facet normal 0.0 0.0 -1.0
  outer loop
    vertex -0.35355339059327345 4.646446609406727 0.0
    vertex -0.3535533905932734 5.353553390593273 0.0
    vertex -0.24999999999999992 4.566987298107781 0.0
  endloop
endfacet
facet normal 0.0 0.0 -1.0
  outer loop
    vertex -0.24999999999999992 4.566987298107781 0.0
    vertex -0.3535533905932734 5.353553390593273 0.0
    vertex -0.2499999999999997 5.433012701892219 0.0
  endloop
endfacet
facet normal 0.0 0.0 -1.0
  outer loop
    vertex -0.24999999999999992 4.566987298107781 0.0
    vertex -0.2499999999999997 5.433012701892219 0.0
    vertex -0.12940952255126031 4.517037086855466 0.0
  endloop
endfacet
facet normal 0.0 0.0 -1.0
  outer loop
    vertex -0.12940952255126031 4.517037086855466 0.0
    vertex -0.2499999999999997 5.433012701892219 0.0
    vertex -0.1294095225512602 5.482962913144534 0.0
  endloop
endfacet
facet normal 0.0 0.0 -1.0
  outer loop
    vertex -0.12940952255126031 4.517037086855466 0.0
    vertex -0.1294095225512602 5.482962913144534 0.0
    vertex 2.900658748416511e-17 4.5 0.0
  endloop
endfacet
facet normal 0.0 0.0 -1.0
  outer loop
    vertex 2.900658748416511e-17 4.5 0.0
    vertex -0.1294095225512602 5.482962913144534 0.0
    vertex 9.023892744153272e-17 5.5 0.0
  endloop
endfacet
facet normal 0.0 0.0 -1.0
  outer loop
    vertex 2.900658748416511e-17 4.5 0.0
    vertex 9.023892744153272e-17 5.5 0.0
    vertex 0.12940952255126018 4.517037086855466 0.0
  endloop
endfacet
facet normal 0.0 0.0 -1.0
  outer loop
    vertex 0.12940952255126018 4.517037086855466 0.0
    vertex 9.023892744153272e-17 5.5 0.0
    vertex 0.12940952255126076 5.482962913144534 0.0
  endloop
endfacet
facet normal 0.0 0.0 -1.0
  outer loop
    vertex 0.12940952255126018 4.517037086855466 0.0
    vertex 0.12940952255126076 5.482962913144534 0.0
    vertex 0.2499999999999998 4.56698729810778 0.0
  endloop
endfacet
facet normal 0.0 0.0 -1.0
  outer loop
    vertex 0.2499999999999998 4.56698729810778 0.0
    vertex 0.12940952255126076 5.482962913144534 0.0
    vertex 0.2500000000000001 5.433012701892219 0.0
  endloop
endfacet
facet normal 0.0 0.0 -1.0
  outer loop
    vertex 0.2499999999999998 4.56698729810778 0.0
    vertex 0.2500000000000001 5.433012701892219 0.0
    vertex 0.3535533905932734 4.646446609406727 0.0
  endloop
endfacet
facet normal 0.0 0.0 -1.0
  outer loop
    vertex 0.3535533905932734 4.646446609406727 0.0
    vertex 0.2500000000000001 5.433012701892219 0.0
    vertex 0.3535533905932737 5.353553390593273 0.0
  endloop
endfacet
facet normal 0.0 0.0 -1.0
  outer loop
    vertex 0.3535533905932734 4.646446609406727 0.0
    vertex 0.3535533905932737 5.353553390593273 0.0
    vertex 0.4330127018922189 4.75 0.0
  endloop
endfacet
facet normal 0.0 0.0 -1.0
  outer loop
    vertex 0.4330127018922189 4.75 0.0
    vertex 0.3535533905932737 5.353553390593273 0.0
    vertex 0.4330127018922193 5.249999999999999 0.0
  endloop
endfacet
facet normal 0.0 0.0 -1.0
  outer loop
    vertex 0.4330127018922189 4.75 0.0
    vertex 0.4330127018922193 5.249999999999999 0.0
    vertex 0.4829629131445338 4.870590477448739 0.0
  endloop
endfacet
facet normal 0.0 0.0 -1.0
  outer loop
    vertex 0.4829629131445338 4.870590477448739 0.0
    vertex 0.4330127018922193 5.249999999999999 0.0
    vertex 0.48296291314453393 5.12940952255126 0.0
  endloop
endfacet
facet normal 0.0 0.0 -1.0
  outer loop
    vertex 0.4829629131445338 4.870590477448739 0.0
    vertex 0.48296291314453393 5.12940952255126 0.0
    vertex 0.4999999999999997 5.0 0.0
  endloop
endfacet
facet normal 0.0 0.0 -1.0
  outer loop
    vertex 39.51703708685547 5.129409522551261 0.0
    vertex 39.51703708685547 4.870590477448739 0.0
    vertex 39.5 5.0 0.0
  endloop
endfacet
facet normal 0.0 0.0 -1.0
  outer loop
    vertex 39.51703708685547 4.870590477448739 0.0
    vertex 39.51703708685547 5.129409522551261 0.0
    vertex 39.56698729810778 5.25 0.0
  endloop
endfacet
facet normal 0.0 0.0 -1.0
  outer loop
    vertex 39.51703708685547 4.870590477448739 0.0
    vertex 39.56698729810778 5.25 0.0
    vertex 39.56698729810778 4.750000000000001 0.0
  endloop
endfacet
facet normal 0.0 0.0 -1.0
  outer loop
    vertex 39.56698729810778 4.750000000000001 0.0
    vertex 39.56698729810778 5.25 0.0
    vertex 39.64644660940672 5.353553390593273 0.0
  endloop
endfacet
facet normal 0.0 0.0 -1.0
  outer loop
    vertex 39.56698729810778 4.750000000000001 0.0
    vertex 39.64644660940672 5.353553390593273 0.0
    vertex 39.64644660940672 4.646446609406727 0.0
  endloop
endfacet
facet normal 0.0 0.0 -1.0
  outer loop
    vertex 39.64644660940672 4.646446609406727 0.0
    vertex 39.64644660940672 5.353553390593273 0.0
    vertex 39.75 5.433012701892219 0.0
  endloop
endfacet
facet normal 0.0 0.0 -1.0
  outer loop
    vertex 39.64644660940672 4.646446609406727 0.0
    vertex 39.75 5.433012701892219 0.0
    vertex 39.75 4.566987298107781 0.0
  endloop
endfacet
facet normal 0.0 0.0 -1.0
  outer loop
    vertex 39.75 4.566987298107781 0.0
    vertex 39.75 5.433012701892219 0.0
    vertex 39.87059047744874 5.482962913144534 0.0
  endloop
endfacet
facet normal 0.0 0.0 -1.0
  outer loop
    vertex 39.75 4.566987298107781 0.0
    vertex 39.87059047744874 5.482962913144534 0.0
    vertex 39.87059047744874 4.517037086855466 0.0
  endloop
endfacet
facet normal 0.0 0.0 -1.0
  outer loop
    vertex 39.87059047744874 4.517037086855466 0.0
    vertex 39.87059047744874 5.482962913144534 0.0
    vertex 40.0 5.5 0.0
  endloop
endfacet
facet normal 0.0 0.0 -1.0
  outer loop
    vertex 39.87059047744874 4.517037086855466 0.0
    vertex 40.0 5.5 0.0
    vertex 40.0 4.5 0.0
  endloop
endfacet
facet normal 0.0 0.0 -1.0
  outer loop
    vertex 40.0 4.5 0.0
    vertex 40.0 5.5 0.0
    vertex 40.12940952255126 5.482962913144534 0.0
  endloop
endfacet
facet normal 0.0 0.0 -1.0
  outer loop
    vertex 40.0 4.5 0.0
    vertex 40.12940952255126 5.482962913144534 0.0
    vertex 40.12940952255126 4.517037086855466 0.0
  endloop
endfacet
facet normal 0.0 0.0 -1.0
  outer loop
    vertex 40.12940952255126 4.517037086855466 0.0
    vertex 40.12940952255126 5.482962913144534 0.0
    vertex 40.25 5.433012701892219 0.0
  endloop
endfacet
facet normal 0.0 0.0 -1.0
  outer loop
    vertex 40.12940952255126 4.517037086855466 0.0
    vertex 40.25 5.433012701892219 0.0
    vertex 40.25 4.56698729810778 0.0
  endloop
endfacet
facet normal 0.0 0.0 -1.0
  outer loop
    vertex 40.25 4.56698729810778 0.0
    vertex 40.25 5.433012701892219 0.0
    vertex 40.35355339059328 5.353553390593273 0.0
  endloop
endfacet
facet normal 0.0 0.0 -1.0
  outer loop
    vertex 40.25 4.56698729810778 0.0
    vertex 40.35355339059328 5.353553390593273 0.0
    vertex 40.35355339059328 4.646446609406727 0.0
  endloop
endfacet
facet normal 0.0 0.0 -1.0
  outer loop
    vertex 40.35355339059328 4.646446609406727 0.0
    vertex 40.35355339059328 5.353553390593273 0.0
    vertex 40.43301270189222 5.249999999999999 0.0
  endloop
endfacet
facet normal 0.0 0.0 -1.0
  outer loop
    vertex 40.35355339059328 4.646446609406727 0.0
    vertex 40.43301270189222 5.249999999999999 0.0
    vertex 40.43301270189222 4.75 0.0
  endloop
endfacet
facet normal 0.0 0.0 -1.0
  outer loop
    vertex 40.43301270189222 4.75 0.0
    vertex 40.43301270189222 5.249999999999999 0.0
    vertex 40.48296291314453 5.12940952255126 0.0
  endloop
endfacet
facet normal 0.0 0.0 -1.0
  outer loop
    vertex 40.43301270189222 4.75 0.0
    vertex 40.48296291314453 5.12940952255126 0.0
    vertex 40.48296291314453 4.870590477448739 0.0
  endloop
endfacet
facet normal 0.0 0.0 -1.0
  outer loop
    vertex 40.48296291314453 4.870590477448739 0.0
    vertex 40.48296291314453 5.12940952255126 0.0
    vertex 40.5 5.0 0.0
  endloop
endfacet
facet normal 0.0 0.0 -1.0
  outer loop
    vertex 3.3024953278536717 7.6243674945925495 2.9999999999999942
    vertex 2.3024953278536717 6.6243674945925495 2.9999999999999942
    vertex 2.3024953278536717 7.6243674945925495 2.9999999999999942
  endloop
endfacet
facet normal 0.0 0.0 -1.0
  outer loop
    vertex 2.3024953278536717 6.6243674945925495 2.9999999999999942
    vertex 3.3024953278536717 7.6243674945925495 2.9999999999999942
    vertex 3.3024953278536717 6.6243674945925495 2.9999999999999942
  endloop
endfacet
facet normal 0.0 -1.0 -0.0
  outer loop
    vertex 3.3024953278536717 7.6243674945925495 2.9999999999999942
    vertex 2.3024953278536717 7.6243674945925495 -5.775291356258094e-15
    vertex 3.3024953278536717 7.6243674945925495 -5.775291356258094e-15
  endloop
endfacet
facet normal 0.0 -1.0 -0.0
  outer loop
    vertex 2.3024953278536717 7.6243674945925495 -5.775291356258094e-15
    vertex 3.3024953278536717 7.6243674945925495 2.9999999999999942
    vertex 2.3024953278536717 7.6243674945925495 2.9999999999999942
  endloop
endfacet
facet normal -1.0 -0.0 -0.0
  outer loop
    vertex 3.3024953278536717 7.6243674945925495 2.9999999999999942
    vertex 3.3024953278536717 6.6243674945925495 -5.775291356258094e-15
    vertex 3.3024953278536717 6.6243674945925495 2.9999999999999942
  endloop
endfacet
facet normal -1.0 -0.0 -0.0
  outer loop
    vertex 3.3024953278536717 6.6243674945925495 -5.775291356258094e-15
    vertex 3.3024953278536717 7.6243674945925495 2.9999999999999942
    vertex 3.3024953278536717 7.6243674945925495 -5.775291356258094e-15
  endloop
endfacet
facet normal 0.0 1.0 0.0
  outer loop
    vertex 2.3024953278536717 6.6243674945925495 2.9999999999999942
    vertex 3.3024953278536717 6.6243674945925495 -5.775291356258094e-15
    vertex 2.3024953278536717 6.6243674945925495 -5.775291356258094e-15
  endloop
endfacet
facet normal 0.0 1.0 0.0
  outer loop
    vertex 3.3024953278536717 6.6243674945925495 -5.775291356258094e-15
    vertex 2.3024953278536717 6.6243674945925495 2.9999999999999942
    vertex 3.3024953278536717 6.6243674945925495 2.9999999999999942
  endloop
endfacet
facet normal 1.0 -0.0 -0.0
  outer loop
    vertex 2.3024953278536717 7.6243674945925495 -5.775291356258094e-15
    vertex 2.3024953278536717 6.6243674945925495 2.9999999999999942
    vertex 2.3024953278536717 6.6243674945925495 -5.775291356258094e-15
  endloop
endfacet
facet normal 1.0 -0.0 -0.0
  outer loop
    vertex 2.3024953278536717 6.6243674945925495 2.9999999999999942
    vertex 2.3024953278536717 7.6243674945925495 -5.775291356258094e-15
    vertex 2.3024953278536717 7.6243674945925495 2.9999999999999942
  endloop
endfacet
facet normal 0.0 0.0 -1.0
  outer loop
    vertex 3.3024953278536717 4.349966765432979 2.9999999999999942
    vertex 2.3024953278536717 3.3499667654329786 2.9999999999999942
    vertex 2.3024953278536717 4.349966765432979 2.9999999999999942
  endloop
endfacet
facet normal 0.0 0.0 -1.0
  outer loop
    vertex 2.3024953278536717 3.3499667654329786 2.9999999999999942
    vertex 3.3024953278536717 4.349966765432979 2.9999999999999942
    vertex 3.3024953278536717 3.3499667654329786 2.9999999999999942
  endloop
endfacet
facet normal -1.0 -0.0 -0.0
  outer loop
    vertex 3.3024953278536717 4.349966765432979 2.9999999999999942
    vertex 3.3024953278536717 3.3499667654329786 -5.775291356258094e-15
    vertex 3.3024953278536717 3.3499667654329786 2.9999999999999942
  endloop
endfacet
facet normal -1.0 -0.0 -0.0
  outer loop
    vertex 3.3024953278536717 3.3499667654329786 -5.775291356258094e-15
    vertex 3.3024953278536717 4.349966765432979 2.9999999999999942
    vertex 3.3024953278536717 4.349966765432979 -5.775291356258094e-15
  endloop
endfacet
facet normal 0.0 1.0 0.0
  outer loop
    vertex 2.3024953278536717 3.3499667654329786 2.9999999999999942
    vertex 3.3024953278536717 3.3499667654329786 -5.775291356258094e-15
    vertex 2.3024953278536717 3.3499667654329786 -5.775291356258094e-15
  endloop
endfacet
facet normal 0.0 1.0 0.0
  outer loop
    vertex 3.3024953278536717 3.3499667654329786 -5.775291356258094e-15
    vertex 2.3024953278536717 3.3499667654329786 2.9999999999999942
    vertex 3.3024953278536717 3.3499667654329786 2.9999999999999942
  endloop
endfacet
facet normal 1.0 -0.0 -0.0
  outer loop
    vertex 2.3024953278536717 4.349966765432979 -5.775291356258094e-15
    vertex 2.3024953278536717 3.3499667654329786 2.9999999999999942
    vertex 2.3024953278536717 3.3499667654329786 -5.775291356258094e-15
  endloop
endfacet
facet normal 1.0 -0.0 -0.0
  outer loop
    vertex 2.3024953278536717 3.3499667654329786 2.9999999999999942
    vertex 2.3024953278536717 4.349966765432979 -5.775291356258094e-15
    vertex 2.3024953278536717 4.349966765432979 2.9999999999999942
  endloop
endfacet
facet normal 0.0 -1.0 -0.0
  outer loop
    vertex 3.3024953278536717 4.349966765432979 2.9999999999999942
    vertex 2.3024953278536717 4.349966765432979 -5.775291356258094e-15
    vertex 3.3024953278536717 4.349966765432979 -5.775291356258094e-15
  endloop
endfacet
facet normal 0.0 -1.0 -0.0
  outer loop
    vertex 2.3024953278536717 4.349966765432979 -5.775291356258094e-15
    vertex 3.3024953278536717 4.349966765432979 2.9999999999999942
    vertex 2.3024953278536717 4.349966765432979 2.9999999999999942
  endloop
endfacet
facet normal 0.0 0.0 -1.0
  outer loop
    vertex 6.7968596513669555 5.950150168940933 3.0
    vertex 5.796859651366955 4.950150168940932 3.0
    vertex 5.796859651366955 5.950150168940933 3.0
  endloop
endfacet
facet normal 0.0 0.0 -1.0
  outer loop
    vertex 5.796859651366955 4.950150168940932 3.0
    vertex 6.7968596513669555 5.950150168940933 3.0
    vertex 6.7968596513669555 4.950150168940932 3.0
  endloop
endfacet
facet normal 0.0 1.0 0.0
  outer loop
    vertex 5.796859651366955 4.950150168940932 3.0
    vertex 6.7968596513669555 4.950150168940932 0.0
    vertex 5.796859651366955 4.950150168940932 0.0
  endloop
endfacet
facet normal 0.0 1.0 0.0
  outer loop
    vertex 6.7968596513669555 4.950150168940932 0.0
    vertex 5.796859651366955 4.950150168940932 3.0
    vertex 6.7968596513669555 4.950150168940932 3.0
  endloop
endfacet
facet normal 1.0 -0.0 -0.0
  outer loop
    vertex 5.796859651366955 5.950150168940933 0.0
    vertex 5.796859651366955 4.950150168940932 3.0
    vertex 5.796859651366955 4.950150168940932 0.0
  endloop
endfacet
facet normal 1.0 -0.0 -0.0
  outer loop
    vertex 5.796859651366955 4.950150168940932 3.0
    vertex 5.796859651366955 5.950150168940933 0.0
    vertex 5.796859651366955 5.950150168940933 3.0
  endloop
endfacet
facet normal 0.0 -1.0 -0.0
  outer loop
    vertex 6.7968596513669555 5.950150168940933 3.0
    vertex 5.796859651366955 5.950150168940933 0.0
    vertex 6.7968596513669555 5.950150168940933 0.0
  endloop
endfacet
facet normal 0.0 -1.0 -0.0
  outer loop
    vertex 5.796859651366955 5.950150168940933 0.0
    vertex 6.7968596513669555 5.950150168940933 3.0
    vertex 5.796859651366955 5.950150168940933 3.0
  endloop
endfacet
facet normal -1.0 -0.0 -0.0
  outer loop
    vertex 6.7968596513669555 5.950150168940933 3.0
    vertex 6.7968596513669555 4.950150168940932 0.0
    vertex 6.7968596513669555 4.950150168940932 3.0
  endloop
endfacet
facet normal -1.0 -0.0 -0.0
  outer loop
    vertex 6.7968596513669555 4.950150168940932 0.0
    vertex 6.7968596513669555 5.950150168940933 3.0
    vertex 6.7968596513669555 5.950150168940933 0.0
  endloop
endfacet
facet normal 0.0 0.0 -1.0
  outer loop
    vertex 9.36208877620193 8.624367494592551 2.9999999999999942
    vertex 8.362088776201928 7.6243674945925495 2.9999999999999942
    vertex 8.362088776201928 8.624367494592551 2.9999999999999942
  endloop
endfacet
facet normal 0.0 0.0 -1.0
  outer loop
    vertex 8.362088776201928 7.6243674945925495 2.9999999999999942
    vertex 9.36208877620193 8.624367494592551 2.9999999999999942
    vertex 9.36208877620193 7.6243674945925495 2.9999999999999942
  endloop
endfacet
facet normal 0.0 1.0 0.0
  outer loop
    vertex 8.362088776201928 7.6243674945925495 2.9999999999999942
    vertex 9.36208877620193 7.6243674945925495 -5.775291356258094e-15
    vertex 8.362088776201928 7.6243674945925495 -5.775291356258094e-15
  endloop
endfacet
facet normal 0.0 1.0 0.0
  outer loop
    vertex 9.36208877620193 7.6243674945925495 -5.775291356258094e-15
    vertex 8.362088776201928 7.6243674945925495 2.9999999999999942
    vertex 9.36208877620193 7.6243674945925495 2.9999999999999942
  endloop
endfacet
facet normal 1.0 -0.0 -0.0
  outer loop
    vertex 8.362088776201928 8.624367494592551 -5.775291356258094e-15
    vertex 8.362088776201928 7.6243674945925495 2.9999999999999942
    vertex 8.362088776201928 7.6243674945925495 -5.775291356258094e-15
  endloop
endfacet
facet normal 1.0 -0.0 -0.0
  outer loop
    vertex 8.362088776201928 7.6243674945925495 2.9999999999999942
    vertex 8.362088776201928 8.624367494592551 -5.775291356258094e-15
    vertex 8.362088776201928 8.624367494592551 2.9999999999999942
  endloop
endfacet
facet normal 0.0 -1.0 -0.0
  outer loop
    vertex 9.36208877620193 8.624367494592551 2.9999999999999942
    vertex 8.362088776201928 8.624367494592551 -5.775291356258094e-15
    vertex 9.36208877620193 8.624367494592551 -5.775291356258094e-15
  endloop
endfacet
facet normal 0.0 -1.0 -0.0
  outer loop
    vertex 8.362088776201928 8.624367494592551 -5.775291356258094e-15
    vertex 9.36208877620193 8.624367494592551 2.9999999999999942
    vertex 8.362088776201928 8.624367494592551 2.9999999999999942
  endloop
endfacet
facet normal -1.0 -0.0 -0.0
  outer loop
    vertex 9.36208877620193 8.624367494592551 2.9999999999999942
    vertex 9.36208877620193 7.6243674945925495 -5.775291356258094e-15
    vertex 9.36208877620193 7.6243674945925495 2.9999999999999942
  endloop
endfacet
facet normal -1.0 -0.0 -0.0
  outer loop
    vertex 9.36208877620193 7.6243674945925495 -5.775291356258094e-15
    vertex 9.36208877620193 8.624367494592551 2.9999999999999942
    vertex 9.36208877620193 8.624367494592551 -5.775291356258094e-15
  endloop
endfacet
facet normal 0.0 0.0 -1.0
  outer loop
    vertex 14.111509460666873 9.552294043358073 3.0
    vertex 13.111509460666873 8.55229404335807 3.0
    vertex 13.111509460666873 9.552294043358073 3.0
  endloop
endfacet
facet normal 0.0 0.0 -1.0
  outer loop
    vertex 13.111509460666873 8.55229404335807 3.0
    vertex 14.111509460666873 9.552294043358073 3.0
    vertex 14.111509460666873 8.55229404335807 3.0
  endloop
endfacet
facet normal -1.0 -0.0 -0.0
  outer loop
    vertex 14.111509460666873 9.552294043358073 3.0
    vertex 14.111509460666873 8.55229404335807 0.0
    vertex 14.111509460666873 8.55229404335807 3.0
  endloop
endfacet
facet normal -1.0 -0.0 -0.0
  outer loop
    vertex 14.111509460666873 8.55229404335807 0.0
    vertex 14.111509460666873 9.552294043358073 3.0
    vertex 14.111509460666873 9.552294043358073 0.0
  endloop
endfacet
facet normal 0.0 1.0 0.0
  outer loop
    vertex 13.111509460666873 8.55229404335807 3.0
    vertex 14.111509460666873 8.55229404335807 0.0
    vertex 13.111509460666873 8.55229404335807 0.0
  endloop
endfacet
facet normal 0.0 1.0 0.0
  outer loop
    vertex 14.111509460666873 8.55229404335807 0.0
    vertex 13.111509460666873 8.55229404335807 3.0
    vertex 14.111509460666873 8.55229404335807 3.0
  endloop
endfacet
facet normal 1.0 -0.0 -0.0
  outer loop
    vertex 13.111509460666873 9.552294043358073 0.0
    vertex 13.111509460666873 8.55229404335807 3.0
    vertex 13.111509460666873 8.55229404335807 0.0
  endloop
endfacet
facet normal 1.0 -0.0 -0.0
  outer loop
    vertex 13.111509460666873 8.55229404335807 3.0
    vertex 13.111509460666873 9.552294043358073 0.0
    vertex 13.111509460666873 9.552294043358073 3.0
  endloop
endfacet
facet normal 0.0 -1.0 -0.0
  outer loop
    vertex 14.111509460666873 9.552294043358073 3.0
    vertex 13.111509460666873 9.552294043358073 0.0
    vertex 14.111509460666873 9.552294043358073 0.0
  endloop
endfacet
facet normal 0.0 -1.0 -0.0
  outer loop
    vertex 13.111509460666873 9.552294043358073 0.0
    vertex 14.111509460666873 9.552294043358073 3.0
    vertex 13.111509460666873 9.552294043358073 3.0
  endloop
endfacet
facet normal 0.0 0.0 -1.0
  outer loop
    vertex 12.816670505758843 7.264095462858792 2.9999999999999942
    vertex 11.816670505758843 6.2640954628587915 2.9999999999999942
    vertex 11.816670505758843 7.264095462858792 2.9999999999999942
  endloop
endfacet
facet normal 0.0 0.0 -1.0
  outer loop
    vertex 11.816670505758843 6.2640954628587915 2.9999999999999942
    vertex 12.816670505758843 7.264095462858792 2.9999999999999942
    vertex 12.816670505758843 6.2640954628587915 2.9999999999999942
  endloop
endfacet
facet normal 0.0 -1.0 -0.0
  outer loop
    vertex 12.816670505758843 7.264095462858792 2.9999999999999942
    vertex 11.816670505758843 7.264095462858792 -5.775291356258094e-15
    vertex 12.816670505758843 7.264095462858792 -5.775291356258094e-15
  endloop
endfacet
facet normal 0.0 -1.0 -0.0
  outer loop
    vertex 11.816670505758843 7.264095462858792 -5.775291356258094e-15
    vertex 12.816670505758843 7.264095462858792 2.9999999999999942
    vertex 11.816670505758843 7.264095462858792 2.9999999999999942
  endloop
endfacet
facet normal -1.0 -0.0 -0.0
  outer loop
    vertex 12.816670505758843 7.264095462858792 2.9999999999999942
    vertex 12.816670505758843 6.2640954628587915 -5.775291356258094e-15
    vertex 12.816670505758843 6.2640954628587915 2.9999999999999942
  endloop
endfacet
facet normal -1.0 -0.0 -0.0
  outer loop
    vertex 12.816670505758843 6.2640954628587915 -5.775291356258094e-15
    vertex 12.816670505758843 7.264095462858792 2.9999999999999942
    vertex 12.816670505758843 7.264095462858792 -5.775291356258094e-15
  endloop
endfacet
facet normal 0.0 1.0 0.0
  outer loop
    vertex 11.816670505758843 6.2640954628587915 2.9999999999999942
    vertex 12.816670505758843 6.2640954628587915 -5.775291356258094e-15
    vertex 11.816670505758843 6.2640954628587915 -5.775291356258094e-15
  endloop
endfacet
facet normal 0.0 1.0 0.0
  outer loop
    vertex 12.816670505758843 6.2640954628587915 -5.775291356258094e-15
    vertex 11.816670505758843 6.2640954628587915 2.9999999999999942
    vertex 12.816670505758843 6.2640954628587915 2.9999999999999942
  endloop
endfacet
facet normal 1.0 -0.0 -0.0
  outer loop
    vertex 11.816670505758843 7.264095462858792 -5.775291356258094e-15
    vertex 11.816670505758843 6.2640954628587915 2.9999999999999942
    vertex 11.816670505758843 6.2640954628587915 -5.775291356258094e-15
  endloop
endfacet
facet normal 1.0 -0.0 -0.0
  outer loop
    vertex 11.816670505758843 6.2640954628587915 2.9999999999999942
    vertex 11.816670505758843 7.264095462858792 -5.775291356258094e-15
    vertex 11.816670505758843 7.264095462858792 2.9999999999999942
  endloop
endfacet
facet normal 0.0 0.0 -1.0
  outer loop
    vertex 17.80267854798184 7.0291620792824325 3.0
    vertex 16.80267854798184 6.029162079282431 3.0
    vertex 16.80267854798184 7.0291620792824325 3.0
  endloop
endfacet
facet normal 0.0 0.0 -1.0
  outer loop
    vertex 16.80267854798184 6.029162079282431 3.0
    vertex 17.80267854798184 7.0291620792824325 3.0
    vertex 17.80267854798184 6.029162079282431 3.0
  endloop
endfacet
facet normal 0.0 -1.0 -0.0
  outer loop
    vertex 17.80267854798184 7.0291620792824325 3.0
    vertex 16.80267854798184 7.0291620792824325 0.0
    vertex 17.80267854798184 7.0291620792824325 0.0
  endloop
endfacet
facet normal 0.0 -1.0 -0.0
  outer loop
    vertex 16.80267854798184 7.0291620792824325 0.0
    vertex 17.80267854798184 7.0291620792824325 3.0
    vertex 16.80267854798184 7.0291620792824325 3.0
  endloop
endfacet
facet normal -1.0 -0.0 -0.0
  outer loop
    vertex 17.80267854798184 7.0291620792824325 3.0
    vertex 17.80267854798184 6.029162079282431 0.0
    vertex 17.80267854798184 6.029162079282431 3.0
  endloop
endfacet
facet normal -1.0 -0.0 -0.0
  outer loop
    vertex 17.80267854798184 6.029162079282431 0.0
    vertex 17.80267854798184 7.0291620792824325 3.0
    vertex 17.80267854798184 7.0291620792824325 0.0
  endloop
endfacet
facet normal 0.0 1.0 0.0
  outer loop
    vertex 16.80267854798184 6.029162079282431 3.0
    vertex 17.80267854798184 6.029162079282431 0.0
    vertex 16.80267854798184 6.029162079282431 0.0
  endloop
endfacet
facet normal 0.0 1.0 0.0
  outer loop
    vertex 17.80267854798184 6.029162079282431 0.0
    vertex 16.80267854798184 6.029162079282431 3.0
    vertex 17.80267854798184 6.029162079282431 3.0
  endloop
endfacet
facet normal 1.0 -0.0 -0.0
  outer loop
    vertex 16.80267854798184 7.0291620792824325 0.0
    vertex 16.80267854798184 6.029162079282431 3.0
    vertex 16.80267854798184 6.029162079282431 0.0
  endloop
endfacet
facet normal 1.0 -0.0 -0.0
  outer loop
    vertex 16.80267854798184 6.029162079282431 3.0
    vertex 16.80267854798184 7.0291620792824325 0.0
    vertex 16.80267854798184 7.0291620792824325 3.0
  endloop
endfacet
facet normal 0.0 0.0 -1.0
  outer loop
    vertex 14.39262517211777 5.080098522561312 3.0
    vertex 13.392625172117768 4.080098522561311 3.0
    vertex 13.392625172117768 5.080098522561312 3.0
  endloop
endfacet
facet normal 0.0 0.0 -1.0
  outer loop
    vertex 13.392625172117768 4.080098522561311 3.0
    vertex 14.39262517211777 5.080098522561312 3.0
    vertex 14.39262517211777 4.080098522561311 3.0
  endloop
endfacet
facet normal -1.0 -0.0 -0.0
  outer loop
    vertex 14.39262517211777 5.080098522561312 3.0
    vertex 14.39262517211777 4.080098522561311 0.0
    vertex 14.39262517211777 4.080098522561311 3.0
  endloop
endfacet
facet normal -1.0 -0.0 -0.0
  outer loop
    vertex 14.39262517211777 4.080098522561311 0.0
    vertex 14.39262517211777 5.080098522561312 3.0
    vertex 14.39262517211777 5.080098522561312 0.0
  endloop
endfacet
facet normal 0.0 1.0 0.0
  outer loop
    vertex 13.392625172117768 4.080098522561311 3.0
    vertex 14.39262517211777 4.080098522561311 0.0
    vertex 13.392625172117768 4.080098522561311 0.0
  endloop
endfacet
facet normal 0.0 1.0 0.0
  outer loop
    vertex 14.39262517211777 4.080098522561311 0.0
    vertex 13.392625172117768 4.080098522561311 3.0
    vertex 14.39262517211777 4.080098522561311 3.0
  endloop
endfacet
facet normal 1.0 -0.0 -0.0
  outer loop
    vertex 13.392625172117768 5.080098522561312 0.0
    vertex 13.392625172117768 4.080098522561311 3.0
    vertex 13.392625172117768 4.080098522561311 0.0
  endloop
endfacet
facet normal 1.0 -0.0 -0.0
  outer loop
    vertex 13.392625172117768 4.080098522561311 3.0
    vertex 13.392625172117768 5.080098522561312 0.0
    vertex 13.392625172117768 5.080098522561312 3.0
  endloop
endfacet
facet normal 0.0 -1.0 -0.0
  outer loop
    vertex 14.39262517211777 5.080098522561312 3.0
    vertex 13.392625172117768 5.080098522561312 0.0
    vertex 14.39262517211777 5.080098522561312 0.0
  endloop
endfacet
facet normal 0.0 -1.0 -0.0
  outer loop
    vertex 13.392625172117768 5.080098522561312 0.0
    vertex 14.39262517211777 5.080098522561312 3.0
    vertex 13.392625172117768 5.080098522561312 3.0
  endloop
endfacet
facet normal 0.0 0.0 -1.0
  outer loop
    vertex 10.607613812525267 3.6905601926179403 3.0
    vertex 9.607613812525267 2.6905601926179394 3.0
    vertex 9.607613812525267 3.6905601926179403 3.0
  endloop
endfacet
facet normal 0.0 0.0 -1.0
  outer loop
    vertex 9.607613812525267 2.6905601926179394 3.0
    vertex 10.607613812525267 3.6905601926179403 3.0
    vertex 10.607613812525267 2.6905601926179394 3.0
  endloop
endfacet
facet normal 0.0 -1.0 -0.0
  outer loop
    vertex 10.607613812525267 3.6905601926179403 3.0
    vertex 9.607613812525267 3.6905601926179403 0.0
    vertex 10.607613812525267 3.6905601926179403 0.0
  endloop
endfacet
facet normal 0.0 -1.0 -0.0
  outer loop
    vertex 9.607613812525267 3.6905601926179403 0.0
    vertex 10.607613812525267 3.6905601926179403 3.0
    vertex 9.607613812525267 3.6905601926179403 3.0
  endloop
endfacet
facet normal -1.0 -0.0 -0.0
  outer loop
    vertex 10.607613812525267 3.6905601926179403 3.0
    vertex 10.607613812525267 2.6905601926179394 0.0
    vertex 10.607613812525267 2.6905601926179394 3.0
  endloop
endfacet
facet normal -1.0 -0.0 -0.0
  outer loop
    vertex 10.607613812525267 2.6905601926179394 0.0
    vertex 10.607613812525267 3.6905601926179403 3.0
    vertex 10.607613812525267 3.6905601926179403 0.0
  endloop
endfacet
facet normal 0.0 1.0 0.0
  outer loop
    vertex 9.607613812525267 2.6905601926179394 3.0
    vertex 10.607613812525267 2.6905601926179394 0.0
    vertex 9.607613812525267 2.6905601926179394 0.0
  endloop
endfacet
facet normal 0.0 1.0 0.0
  outer loop
    vertex 10.607613812525267 2.6905601926179394 0.0
    vertex 9.607613812525267 2.6905601926179394 3.0
    vertex 10.607613812525267 2.6905601926179394 3.0
  endloop
endfacet
facet normal 1.0 -0.0 -0.0
  outer loop
    vertex 9.607613812525267 3.6905601926179403 0.0
    vertex 9.607613812525267 2.6905601926179394 3.0
    vertex 9.607613812525267 2.6905601926179394 0.0
  endloop
endfacet
facet normal 1.0 -0.0 -0.0
  outer loop
    vertex 9.607613812525267 2.6905601926179394 3.0
    vertex 9.607613812525267 3.6905601926179403 0.0
    vertex 9.607613812525267 3.6905601926179403 3.0
  endloop
endfacet
facet normal 0.0 0.0 -1.0
  outer loop
    vertex 12.858291664913416 1.8378857348122324 3.0
    vertex 11.858291664913414 0.8378857348122319 3.0
    vertex 11.858291664913414 1.8378857348122324 3.0
  endloop
endfacet
facet normal 0.0 0.0 -1.0
  outer loop
    vertex 11.858291664913414 0.8378857348122319 3.0
    vertex 12.858291664913416 1.8378857348122324 3.0
    vertex 12.858291664913416 0.8378857348122319 3.0
  endloop
endfacet
facet normal 0.0 -1.0 -0.0
  outer loop
    vertex 12.858291664913416 1.8378857348122324 3.0
    vertex 11.858291664913414 1.8378857348122324 0.0
    vertex 12.858291664913416 1.8378857348122324 0.0
  endloop
endfacet
facet normal 0.0 -1.0 -0.0
  outer loop
    vertex 11.858291664913414 1.8378857348122324 0.0
    vertex 12.858291664913416 1.8378857348122324 3.0
    vertex 11.858291664913414 1.8378857348122324 3.0
  endloop
endfacet
facet normal -1.0 -0.0 -0.0
  outer loop
    vertex 12.858291664913416 1.8378857348122324 3.0
    vertex 12.858291664913416 0.8378857348122319 0.0
    vertex 12.858291664913416 0.8378857348122319 3.0
  endloop
endfacet
facet normal -1.0 -0.0 -0.0
  outer loop
    vertex 12.858291664913416 0.8378857348122319 0.0
    vertex 12.858291664913416 1.8378857348122324 3.0
    vertex 12.858291664913416 1.8378857348122324 0.0
  endloop
endfacet
facet normal 0.0 1.0 0.0
  outer loop
    vertex 11.858291664913414 0.8378857348122319 3.0
    vertex 12.858291664913416 0.8378857348122319 0.0
    vertex 11.858291664913414 0.8378857348122319 0.0
  endloop
endfacet
facet normal 0.0 1.0 0.0
  outer loop
    vertex 12.858291664913416 0.8378857348122319 0.0
    vertex 11.858291664913414 0.8378857348122319 3.0
    vertex 12.858291664913416 0.8378857348122319 3.0
  endloop
endfacet
facet normal 1.0 -0.0 -0.0
  outer loop
    vertex 11.858291664913414 1.8378857348122324 0.0
    vertex 11.858291664913414 0.8378857348122319 3.0
    vertex 11.858291664913414 0.8378857348122319 0.0
  endloop
endfacet
facet normal 1.0 -0.0 -0.0
  outer loop
    vertex 11.858291664913414 0.8378857348122319 3.0
    vertex 11.858291664913414 1.8378857348122324 0.0
    vertex 11.858291664913414 1.8378857348122324 3.0
  endloop
endfacet
endsolid corridor
